<svg width="16" height="16" viewBox="0 0 16 16" fill="none" xmlns="http://www.w3.org/2000/svg">
<path fill-rule="evenodd" clip-rule="evenodd" d="M1 13V7H5.5C6.32843 7 7 6.32843 7 5.5V1H9C10.1046 1 11 1.89543 11 3V7.51491C10.9701 7.51164 10.9401 7.50889 10.9099 7.50668C9.80561 7.42578 8.77964 8.08094 8.38847 9.11682L7.32818 11.9246C6.27375 12.2181 5.5 13.1854 5.5 14.3333C5.5 14.5642 5.53129 14.7878 5.58987 15H3C1.89543 15 1 14.1046 1 13ZM4.91421 1H5.83333V4.83333C5.83333 5.38562 5.38562 5.83333 4.83333 5.83333H1V4.91421C1 4.649 1.10536 4.39464 1.29289 4.20711L2.5 3L4.20711 1.29289C4.39464 1.10536 4.649 1 4.91421 1Z" fill="#000000"/>
<path d="M8 14.3333H9.09091L10.7273 10L11.8182 15L13.6364 12.4444H15" stroke="#000000" stroke-width="2" stroke-linecap="round" stroke-linejoin="round"/>
</svg>
