<?xml version="1.0" encoding="UTF-8"?>
<svg width="16px" height="16px" viewBox="0 0 16 16" version="1.1" xmlns="http://www.w3.org/2000/svg" xmlns:xlink="http://www.w3.org/1999/xlink">
    <!-- Generator: Sketch 63.1 (92452) - https://sketch.com -->
    <title>Glyphs / Activity Feed</title>
    <desc>Created with Sketch.</desc>
    <g id="Glyphs-/-Activity-Feed" stroke="none" stroke-width="1" fill="none" fill-rule="evenodd">
        <path d="M9.92920227,8.07628131 L9.95534513,8.15281592 L11.254,12.7731288 L11.7748708,12.0073509 C11.8834707,11.8475915 12.0551139,11.7439413 12.2442301,11.720525 L12.3262168,11.715472 L15,11.715472 L15,13.0487822 L12.6786667,13.0484573 L11.5513459,14.7078779 C11.2478794,15.1543023 10.5793401,15.0689967 10.3838711,14.5885112 L10.3582035,14.5134917 L9.198,10.3858369 L8.28420573,12.6332999 C8.1922466,12.8593848 7.98527487,13.0150576 7.74709927,13.0439313 L7.66666667,13.0487822 L5.66666667,13.0487822 L5.66666667,11.715472 L7.21733333,11.7151472 L8.69600953,8.08203315 C8.92485987,7.51939611 9.71090613,7.53855524 9.92920227,8.07628131 Z M12.3333333,1 L12.3333333,9.66651608 L11,9.66651608 L11,2.33331017 L2.33333333,2.33331017 L2.33333333,12.9997915 L5,12.9997915 L5,14.3331017 L1,14.3331017 L1,1 L12.3333333,1 Z M7,6.99989575 L7,8.33320591 L3.66666667,8.33320591 L3.66666667,6.99989575 L7,6.99989575 Z M9.66666667,4.33327542 L9.66666667,5.66658558 L3.66666667,5.66658558 L3.66666667,4.33327542 L9.66666667,4.33327542 Z" id="Combined-Shape" fill="#000000" fill-rule="nonzero"></path>
    </g>
</svg>