<svg width="16" height="16" viewBox="0 0 16 16" fill="none" xmlns="http://www.w3.org/2000/svg">
<path d="M9.16788 13L9.16788 6.05558L10.7029 7.59059C11.0934 7.98112 11.7266 7.98112 12.1171 7.59059L12.356 7.35168C12.7465 6.96115 12.7465 6.32799 12.356 5.93746L8.97339 2.55483C8.96482 2.5456 8.95605 2.5365 8.94707 2.52752L8.70816 2.2886C8.31763 1.89808 7.68447 1.89808 7.29394 2.2886L3.64279 5.93975C3.25227 6.33028 3.25227 6.96344 3.64279 7.35397L3.88171 7.59288C4.27223 7.98341 4.9054 7.98341 5.29592 7.59288L6.83 6.0588L6.83 13C6.83 13.5523 7.27772 14 7.83 14H8.16788C8.72017 14 9.16788 13.5523 9.16788 13Z" fill="#000000"/>
</svg>
