<svg width="16" height="16" viewBox="0 0 16 16" fill="none" xmlns="http://www.w3.org/2000/svg">
<path d="M13 6.83212L6.05559 6.83212L7.59059 5.29711C7.98112 4.90659 7.98112 4.27342 7.59059 3.8829L7.35168 3.64398C6.96115 3.25346 6.32799 3.25345 5.93746 3.64398L2.55483 7.02661C2.5456 7.03518 2.5365 7.04395 2.52752 7.05292L2.2886 7.29184C1.89808 7.68237 1.89808 8.31553 2.2886 8.70605L5.93975 12.3572C6.33028 12.7477 6.96344 12.7477 7.35397 12.3572L7.59288 12.1183C7.98341 11.7278 7.98341 11.0946 7.59288 10.7041L6.0588 9.17L13 9.17C13.5523 9.17 14 8.72228 14 8.17V7.83212C14 7.27983 13.5523 6.83212 13 6.83212Z" fill="#000000"/>
</svg>
