<svg width="16" height="16" viewBox="0 0 16 16" fill="none" xmlns="http://www.w3.org/2000/svg">
<path d="M9.16788 3L9.16788 9.94442L10.7029 8.40941C11.0934 8.01888 11.7266 8.01889 12.1171 8.40941L12.356 8.64833C12.7465 9.03885 12.7465 9.67201 12.356 10.0625L8.97339 13.4452C8.96483 13.4544 8.95605 13.4635 8.94708 13.4725L8.70816 13.7114C8.31763 14.1019 7.68447 14.1019 7.29395 13.7114L3.64279 10.0602C3.25227 9.66972 3.25227 9.03656 3.64279 8.64603L3.88171 8.40712C4.27223 8.01659 4.9054 8.01659 5.29592 8.40712L6.83 9.9412L6.83 3C6.83 2.44771 7.27772 2 7.83001 2L8.16788 2C8.72017 2 9.16788 2.44772 9.16788 3Z" fill="#000000"/>
</svg>
