<svg width="16" height="16" viewBox="0 0 16 16" fill="none" xmlns="http://www.w3.org/2000/svg">
<path fill-rule="evenodd" clip-rule="evenodd" d="M12.6248 6.1383C12.4098 4.25462 11.09 2.74034 9.35673 2.21251C9.2281 1.52063 8.66955 1 8 1C7.33044 1 6.77189 1.52063 6.64326 2.21251C4.91 2.74034 3.59017 4.25462 3.37524 6.1383L2.92307 10.1011H2.94943C2.42507 10.1011 2 10.5262 2 11.0506C2 11.5749 2.42507 12 2.94943 12H13.0506C13.5749 12 14 11.5749 14 11.0506C14 10.5262 13.5749 10.1011 13.0506 10.1011H13.0769L12.6248 6.1383ZM8 15C6.89543 15 6 14.1046 6 13H10C10 14.1046 9.10457 15 8 15Z" fill="#000000"/>
</svg>
