<?xml version="1.0" encoding="UTF-8"?>
<svg width="16px" height="16px" viewBox="0 0 16 16" version="1.1" xmlns="http://www.w3.org/2000/svg" xmlns:xlink="http://www.w3.org/1999/xlink">
    <!-- Generator: Sketch 54 (76480) - https://sketchapp.com -->
    <title>Building</title>
    <desc>Created with Sketch.</desc>
    <g id="Building-Copy" stroke="none" stroke-width="1" fill="none" fill-rule="evenodd">
        <path d="M10,4 L14,4 L14,15 L1,15 L1,1 L10,1 L10,4 Z M3,3 L3,13 L8,13 L8,3 L3,3 Z M4,6 L4,4 L5,4 L5,6 L4,6 Z M6,6 L6,4 L7,4 L7,6 L6,6 Z M9,6 L9,13 L12,13 L12,6 L9,6 Z M4,9 L4,7 L5,7 L5,9 L4,9 Z M6,9 L6,7 L7,7 L7,9 L6,9 Z M10,9 L10,7 L11,7 L11,9 L10,9 Z M4,12 L4,10 L5,10 L5,12 L4,12 Z M6,12 L6,10 L7,10 L7,12 L6,12 Z M10,12 L10,10 L11,10 L11,12 L10,12 Z" id="" fill="#000000"></path>
    </g>
</svg>