<svg width="16" height="16" viewBox="0 0 16 16" fill="none" xmlns="http://www.w3.org/2000/svg">
<path d="M12.3311 8.5C12.7565 7.76457 13 6.91072 13 6C13 3.23858 10.7614 1 8 1C5.23858 1 3 3.23858 3 6C3 6.94628 3.26287 7.83117 3.71958 8.58561L5.40749 11.501C5.58628 11.8099 5.91607 12 6.27291 12H6.5V6C6.5 5.17157 7.17157 4.5 8 4.5C8.82843 4.5 9.5 5.17157 9.5 6V12H9.72368C10.0793 12 10.4082 11.8111 10.5874 11.5039L12.34 8.5H12.3311Z" fill="#000000"/>
<path d="M7.5 6V12H8.5V6C8.5 5.72386 8.27614 5.5 8 5.5C7.72386 5.5 7.5 5.72386 7.5 6Z" fill="#000000"/>
<path d="M10 14V13H6V14C6 14.5523 6.44772 15 7 15H9C9.55228 15 10 14.5523 10 14Z" fill="#000000"/>
</svg>
