<svg width="16" height="16" viewBox="0 0 16 16" fill="none" xmlns="http://www.w3.org/2000/svg">
<path fill-rule="evenodd" clip-rule="evenodd" d="M8 15C11.866 15 15 11.866 15 8C15 4.13401 11.866 1 8 1C4.13401 1 1 4.13401 1 8C1 11.866 4.13401 15 8 15ZM10.4485 4.89583C10.8275 4.45816 11.4983 4.43411 11.9077 4.84352C12.2777 5.21345 12.2989 5.80633 11.9564 6.2018L7.38365 11.4818C7.31367 11.5739 7.22644 11.6552 7.12309 11.7208C6.65669 12.0166 6.03882 11.8783 5.74302 11.4119L3.9245 8.54448C3.6287 8.07809 3.767 7.46021 4.2334 7.16442C4.69979 6.86863 5.31767 7.00693 5.61346 7.47332L6.71374 9.20819L10.4485 4.89583Z" fill="#000000"/>
</svg>
