<svg width="16" height="16" viewBox="0 0 16 16" fill="none" xmlns="http://www.w3.org/2000/svg">
<path fill-rule="evenodd" clip-rule="evenodd" d="M8 14C11.3137 14 14 11.3137 14 8C14 4.68629 11.3137 2 8 2C4.68629 2 2 4.68629 2 8C2 11.3137 4.68629 14 8 14ZM7.25 4.75C7.25 4.33579 7.58579 4 8 4C8.41421 4 8.75 4.33579 8.75 4.75V7.90966L10.4939 9.43556C10.8056 9.70832 10.8372 10.1821 10.5644 10.4939C10.2917 10.8056 9.81786 10.8372 9.50613 10.5644L7.51059 8.81833C7.5014 8.8104 7.4924 8.80226 7.48361 8.79391C7.41388 8.7278 7.35953 8.65117 7.32087 8.56867C7.27541 8.47195 7.25 8.36394 7.25 8.25V4.75Z" fill="#000000"/>
</svg>
