<?xml version="1.0" encoding="UTF-8"?>
<svg width="16px" height="16px" viewBox="0 0 16 16" version="1.1" xmlns="http://www.w3.org/2000/svg" xmlns:xlink="http://www.w3.org/1999/xlink">
    <g id="CreditCard-Copy" stroke="none" stroke-width="1" fill="none" fill-rule="evenodd">
        <path d="M13,3 C14.1015625,3 15,3.8984375 15,5 L15,11 C15,12.1015625 14.1015625,13 13,13 L3,13 C1.8984375,13 1,12.1015625 1,11 L1,5 C1,3.8984375 1.8984375,3 3,3 L13,3 Z M3,6 L13,6 L13,5 L3,5 L3,6 Z M13,11 L13,8 L3,8 L3,11 L13,11 Z M12,10 L9,10 L9,9 L12,9 L12,10 Z" id="" fill="#000000"></path>
    </g>
</svg>
