<svg width="16" height="16" viewBox="0 0 16 16" fill="none" xmlns="http://www.w3.org/2000/svg">
<path d="M2 2.5C2 2.22386 2.22386 2 2.5 2H5.5C5.77614 2 6 2.22386 6 2.5V8.5C6 8.77614 5.77614 9 5.5 9H2.5C2.22386 9 2 8.77614 2 8.5V2.5Z" fill="#000"/>
<path d="M7 7.5C7 7.22386 7.22386 7 7.5 7H13.5C13.7761 7 14 7.22386 14 7.5V13.5C14 13.7761 13.7761 14 13.5 14H7.5C7.22386 14 7 13.7761 7 13.5V7.5Z" fill="#000"/>
<path d="M7 2.5C7 2.22386 7.22386 2 7.5 2H13.5C13.7761 2 14 2.22386 14 2.5V5.5C14 5.77614 13.7761 6 13.5 6H7.5C7.22386 6 7 5.77614 7 5.5V2.5Z" fill="#000"/>
<path d="M2 10.5C2 10.2239 2.22386 10 2.5 10H5.5C5.77614 10 6 10.2239 6 10.5V13.5C6 13.7761 5.77614 14 5.5 14H2.5C2.22386 14 2 13.7761 2 13.5V10.5Z" fill="#000"/>
</svg>
