<svg width="16" height="16" viewBox="0 0 16 16" fill="none" xmlns="http://www.w3.org/2000/svg">
<path fill-rule="evenodd" clip-rule="evenodd" d="M9.52439 2.5747V8.13199H11.2363C11.942 8.13199 12.2687 8.91538 11.7353 9.32836L8.49897 11.8337C8.21256 12.0554 7.78744 12.0554 7.50102 11.8337L4.26475 9.32836C3.73129 8.91538 4.05802 8.13199 4.76373 8.13199H6.375V2.5747C6.375 1.70502 7.08002 1 7.9497 1C8.81938 1 9.52439 1.70502 9.52439 2.5747ZM2.5 11H4.30042L6.70523 12.8617C7.46018 13.4461 8.53982 13.4461 9.29477 12.8617L11.6996 11H13.5C14.3284 11 15 11.6716 15 12.5C15 13.3284 14.3284 14 13.5 14H2.5C1.67157 14 1 13.3284 1 12.5C1 11.6716 1.67157 11 2.5 11Z" fill="#000000"/>
</svg>
