<svg width="16" height="16" viewBox="0 0 16 16" fill="none" xmlns="http://www.w3.org/2000/svg">
<path fill-rule="evenodd" clip-rule="evenodd" d="M2.75 6C3.7165 6 4.5 6.7835 4.5 7.75C4.5 8.7165 3.7165 9.5 2.75 9.5C1.7835 9.5 1 8.7165 1 7.75C1 6.7835 1.7835 6 2.75 6ZM7.75 6C8.7165 6 9.5 6.7835 9.5 7.75C9.5 8.7165 8.7165 9.5 7.75 9.5C6.7835 9.5 6 8.7165 6 7.75C6 6.7835 6.7835 6 7.75 6ZM14.5 7.75C14.5 6.7835 13.7165 6 12.75 6C11.7835 6 11 6.7835 11 7.75C11 8.7165 11.7835 9.5 12.75 9.5C13.7165 9.5 14.5 8.7165 14.5 7.75Z" fill="#000000"/>
</svg>
