<?xml version="1.0" encoding="UTF-8"?>
<svg width="16px" height="16px" viewBox="0 0 16 16" version="1.1" xmlns="http://www.w3.org/2000/svg" xmlns:xlink="http://www.w3.org/1999/xlink">
    <!-- Generator: Sketch 63.1 (92452) - https://sketch.com -->
    <title>Glyphs / Folder</title>
    <desc>Created with Sketch.</desc>
    <g id="Glyphs-/-Folder" stroke="none" stroke-width="1" fill="none" fill-rule="evenodd">
        <path d="M8.8168828,3.47879822 L7.33518709,2 L3.18336484,2 C1.97540781,2 1,2.97388186 1,4.17062315 L1,10.8293769 C1,12.0261181 1.97540781,13 3.18336484,13 L12.8166352,13 C14.0245922,13 15,12.0261181 15,10.8293769 L15,5.65034619 L14.9940238,5.48860609 C14.9108461,4.36708234 13.9696851,3.47972305 12.8166352,3.47972305 L8.8168828,3.47879822 Z M3.04087194,4 L6.39559946,4 L7.92153761,5.53301127 L12.9591281,5.53301127 C12.9795363,5.53301127 13,5.55357057 13,5.58373591 L13,10.9492754 C13,10.9794407 12.9795363,11 12.9591281,11 L3.04087194,11 C3.02046374,11 3,10.9794407 3,10.9492754 L3,4.05072464 C3,4.0205593 3.02046374,4 3.04087194,4 Z" id="Path" fill="#000000"></path>
    </g>
</svg>
