<svg width="16" height="16" viewBox="0 0 16 16" fill="none" xmlns="http://www.w3.org/2000/svg">
<path fill-rule="evenodd" clip-rule="evenodd" d="M7.51193 1.01678C7.67329 1.00565 7.83604 1 8 1C8.16396 1 8.32671 1.00565 8.48807 1.01678C8.88252 1.04399 9.18022 1.38581 9.15302 1.78025C9.12581 2.1747 8.78399 2.47241 8.38954 2.4452C8.26095 2.43633 8.13106 2.43182 8 2.43182C7.86894 2.43182 7.73905 2.43633 7.61046 2.4452C7.21601 2.47241 6.87419 2.1747 6.84698 1.78025C6.81978 1.38581 7.11748 1.04399 7.51193 1.01678ZM5.88788 2.03629C6.06146 2.39154 5.9142 2.82024 5.55896 2.99382C5.32527 3.10801 5.10067 3.23814 4.88658 3.38282C4.55899 3.60421 4.11395 3.51811 3.89257 3.19052C3.67118 2.86293 3.75727 2.41789 4.08487 2.1965C4.35387 2.0147 4.63629 1.85106 4.93035 1.70737C5.28559 1.53379 5.71429 1.68105 5.88788 2.03629ZM10.1121 2.03629C10.2857 1.68105 10.7144 1.53379 11.0696 1.70737C11.3637 1.85106 11.6461 2.01471 11.9151 2.1965C12.2427 2.41789 12.3288 2.86293 12.1074 3.19052C11.886 3.51811 11.441 3.60421 11.1134 3.38282C10.8993 3.23814 10.6747 3.10801 10.441 2.99382C10.0858 2.82024 9.93853 2.39154 10.1121 2.03629ZM3.19052 3.89257C3.51811 4.11395 3.60421 4.55899 3.38282 4.88658C3.23814 5.10067 3.10801 5.32527 2.99382 5.55896C2.82024 5.9142 2.39154 6.06146 2.03629 5.88788C1.68105 5.71429 1.53379 5.28559 1.70737 4.93035C1.85106 4.63629 2.01471 4.35387 2.1965 4.08487C2.41789 3.75727 2.86293 3.67118 3.19052 3.89257ZM12.8095 3.89257C13.1371 3.67118 13.5821 3.75727 13.8035 4.08487C13.9853 4.35387 14.1489 4.63629 14.2926 4.93035C14.4662 5.28559 14.3189 5.71429 13.9637 5.88788C13.6085 6.06146 13.1798 5.9142 13.0062 5.55896C12.892 5.32527 12.7619 5.10067 12.6172 4.88658C12.3958 4.55899 12.4819 4.11395 12.8095 3.89257ZM1.78025 6.84698C2.1747 6.87419 2.47241 7.21601 2.4452 7.61046C2.43633 7.73905 2.43182 7.86894 2.43182 8C2.43182 8.13106 2.43633 8.26095 2.4452 8.38954C2.47241 8.78399 2.1747 9.12581 1.78025 9.15302C1.38581 9.18022 1.04399 8.88252 1.01678 8.48807C1.00565 8.32671 1 8.16396 1 8C1 7.83604 1.00565 7.67329 1.01678 7.51193C1.04399 7.11748 1.38581 6.81978 1.78025 6.84698ZM14.2197 6.84698C14.6142 6.81978 14.956 7.11748 14.9832 7.51193C14.9943 7.67329 15 7.83604 15 8C15 8.16396 14.9943 8.32671 14.9832 8.48807C14.956 8.88252 14.6142 9.18022 14.2197 9.15302C13.8253 9.12581 13.5276 8.78399 13.5548 8.38954C13.5637 8.26095 13.5682 8.13106 13.5682 8C13.5682 7.86894 13.5637 7.73905 13.5548 7.61046C13.5276 7.21601 13.8253 6.87419 14.2197 6.84698ZM2.03629 10.1121C2.39154 9.93853 2.82024 10.0858 2.99382 10.441C3.10801 10.6747 3.23814 10.8993 3.38282 11.1134C3.60421 11.441 3.51811 11.886 3.19052 12.1074C2.86293 12.3288 2.41789 12.2427 2.1965 11.9151C2.0147 11.6461 1.85106 11.3637 1.70737 11.0696C1.53379 10.7144 1.68105 10.2857 2.03629 10.1121ZM13.9637 10.1121C14.3189 10.2857 14.4662 10.7144 14.2926 11.0696C14.1489 11.3637 13.9853 11.6461 13.8035 11.9151C13.5821 12.2427 13.1371 12.3288 12.8095 12.1074C12.4819 11.886 12.3958 11.441 12.6172 11.1134C12.7619 10.8993 12.892 10.6747 13.0062 10.441C13.1798 10.0858 13.6085 9.93853 13.9637 10.1121ZM3.89257 12.8095C4.11395 12.4819 4.55899 12.3958 4.88658 12.6172C5.10067 12.7619 5.32527 12.892 5.55896 13.0062C5.9142 13.1798 6.06146 13.6085 5.88788 13.9637C5.71429 14.3189 5.28559 14.4662 4.93035 14.2926C4.63629 14.1489 4.35387 13.9853 4.08487 13.8035C3.75727 13.5821 3.67118 13.1371 3.89257 12.8095ZM12.1074 12.8095C12.3288 13.1371 12.2427 13.5821 11.9151 13.8035C11.6461 13.9853 11.3637 14.1489 11.0696 14.2926C10.7144 14.4662 10.2857 14.3189 10.1121 13.9637C9.93853 13.6085 10.0858 13.1798 10.441 13.0062C10.6747 12.892 10.8993 12.7619 11.1134 12.6172C11.441 12.3958 11.886 12.4819 12.1074 12.8095ZM6.84698 14.2197C6.87419 13.8253 7.21601 13.5276 7.61046 13.5548C7.73905 13.5637 7.86894 13.5682 8 13.5682C8.13106 13.5682 8.26095 13.5637 8.38954 13.5548C8.78399 13.5276 9.12581 13.8253 9.15302 14.2197C9.18022 14.6142 8.88252 14.956 8.48807 14.9832C8.32671 14.9943 8.16396 15 8 15C7.83604 15 7.67329 14.9943 7.51193 14.9832C7.11748 14.956 6.81978 14.6142 6.84698 14.2197Z" fill="#000"/>
<path d="M10.8637 9.74047C10.8637 11.1729 9.65676 12.0567 7.99728 12.0567C6.22808 12.0567 4.96632 10.9596 4.89775 9.46618H6.85895C6.92753 10.1367 7.44869 10.4567 8.05213 10.4567C8.64187 10.4567 8.94359 10.2129 8.94359 9.84714C8.94359 9.45094 8.68301 9.25284 8.07956 9.08521L6.79038 8.71949C5.5972 8.38424 5.04861 7.46992 5.04861 6.35751C5.04861 5.04699 6.09093 4.10219 7.80527 4.10219C9.31389 4.10219 10.4659 4.98603 10.5756 6.50989H8.68301C8.58701 5.93083 8.18928 5.73272 7.77784 5.73272C7.29782 5.73272 6.96867 5.94606 6.96867 6.31179C6.96867 6.73847 7.33897 6.9061 7.75041 7.01277L8.95731 7.37849C10.3014 7.75946 10.8637 8.55186 10.8637 9.74047Z" fill="#000"/>
</svg>
