<svg width="16" height="16" viewBox="0 0 16 16" fill="none" xmlns="http://www.w3.org/2000/svg">
<path fill-rule="evenodd" clip-rule="evenodd" d="M7.68697 1.75127C7.86982 1.60448 8.13013 1.60448 8.31298 1.75127L14.7458 6.91541C14.9651 7.09144 14.9961 7.41362 14.8145 7.62829L14.1709 8.38896C13.9949 8.5969 13.6849 8.62574 13.4736 8.45382L8.31555 4.25677C8.13175 4.10721 7.8682 4.10721 7.6844 4.25677L2.52637 8.45381C2.31508 8.62574 2.00506 8.5969 1.8291 8.38895L1.18546 7.62829C1.00382 7.41362 1.03486 7.09144 1.25415 6.91541L7.68697 1.75127Z" fill="#000"/>
<path d="M7.68763 5.24987C7.87024 5.10378 8.12971 5.10378 8.31232 5.24987L12.8123 8.84987C12.9309 8.94476 13 9.08841 13 9.24031V13.5C13 13.7761 12.7761 14 12.5 14H9.49998C9.22383 14 8.99997 13.7761 8.99997 13.5V11.5C8.99997 11.2239 8.77612 11 8.49997 11H7.49997C7.22383 11 6.99997 11.2239 6.99997 11.5V13.5C6.99997 13.7761 6.77612 14 6.49997 14H3.49997C3.22383 14 2.99997 13.7761 2.99997 13.5V9.24031C2.99997 9.08841 3.06902 8.94476 3.18763 8.84987L7.68763 5.24987Z" fill="#000"/>
</svg>
