<?xml version="1.0" encoding="UTF-8"?>
<svg width="16px" height="16px" viewBox="0 0 16 16" version="1.1" xmlns="http://www.w3.org/2000/svg" xmlns:xlink="http://www.w3.org/1999/xlink">
    <title>Important With Circle</title>
    <desc>Created with Sketch.</desc>
    <g id="Glyphs-/-Important-With-Circle" stroke="none" stroke-width="1" fill="none" fill-rule="evenodd">
        <path d="M9,8.75 L7,8.75 L6.75,3.75 L9.25,3.75 L9,8.75 Z M8,12.25 C7.31,12.25 6.75,11.69 6.75,11 C6.75,10.31 7.31,9.75 8,9.75 C8.69,9.75 9.25,10.31 9.25,11 C9.25,11.69 8.69,12.25 8,12.25 L8,12.25 Z M8,0.5 C3.857,0.5 0.5,3.857 0.5,8 C0.5,12.142 3.857,15.5 8,15.5 C12.142,15.5 15.5,12.142 15.5,8 C15.5,3.857 12.142,0.5 8,0.5 L8,0.5 Z" id="Shape" fill="#000"></path>
    </g>
</svg>
