<?xml version="1.0" encoding="UTF-8"?>
<svg width="16px" height="16px" viewBox="0 0 16 16" version="1.1" xmlns="http://www.w3.org/2000/svg" xmlns:xlink="http://www.w3.org/1999/xlink">
    <!-- Generator: Sketch 55.1 (78136) - https://sketchapp.com -->
    <title>Glyphs / Info With Circle</title>
    <desc>Created with Sketch.</desc>
    <g id="Glyphs-/-Info-With-Circle" stroke="none" stroke-width="1" fill="none" fill-rule="evenodd">
        <path d="M8,15.5 C3.85786438,15.5 0.5,12.1421356 0.5,8 C0.5,3.85786438 3.85786438,0.5 8,0.5 C12.1421356,0.5 15.5,3.85786438 15.5,8 C15.5,12.1421356 12.1421356,15.5 8,15.5 Z M9,9 L9,7 L6,7 L6,9 L7,9 L7,11 L6,11 L6,13 L10,13 L10,11 L9,11 L9,9 Z M8,6 C8.82842712,6 9.5,5.32842712 9.5,4.5 C9.5,3.67157288 8.82842712,3 8,3 C7.17157288,3 6.5,3.67157288 6.5,4.5 C6.5,5.32842712 7.17157288,6 8,6 Z" fill="#000000"></path>
    </g>
</svg>