<?xml version="1.0" encoding="UTF-8"?>
<svg width="16px" height="16px" viewBox="0 0 16 16" version="1.1" xmlns="http://www.w3.org/2000/svg" xmlns:xlink="http://www.w3.org/1999/xlink">
    <!-- Generator: Sketch 63.1 (92452) - https://sketch.com -->
    <title>Glyphs / Invite User</title>
    <desc>Created with Sketch.</desc>
    <g id="Glyphs-/-Invite-User" stroke="none" stroke-width="1" fill="none" fill-rule="evenodd">
        <path d="M6.33333333,3 C8.08365887,3 9.5,4.38744344 9.5,6.58371041 C9.5,7.52941176 9.23404947,8.40045246 8.8011068,9.07861993 C10.8235677,9.34615384 12.6666667,10.2420815 12.6666667,13.3529412 L11.0833333,13.3529412 C11.0833333,11.0149834 9.94022193,10.581576 6.53245576,10.5660533 L6.33333333,10.5656109 C2.77083333,10.5656109 1.58333333,10.9700226 1.58333333,13.3529412 L0,13.3529412 C0,10.2420815 1.84309896,9.34615384 3.87174479,9.07861993 C3.43261719,8.40045246 3.16666667,7.52941176 3.16666667,6.58371041 C3.16666667,4.38744344 4.58300781,3 6.33333333,3 Z M14,4.15257353 L14,6.09310294 L16,6.09375 L16,7.38786765 L14,7.38786765 L14,9.32904412 L12.6666667,9.32904412 L12.6666667,7.38786765 L10.6666667,7.38786765 L10.6666667,6.09375 L12.6666667,6.09375 L12.6666667,4.15257353 L14,4.15257353 Z M6.33333333,4.59276018 C5.37467448,4.59276018 4.75,5.37669683 4.75,6.58371041 C4.75,7.85916291 5.4921875,8.97285066 6.33333333,8.97285066 C7.1744792,8.97285066 7.91666667,7.85916291 7.91666667,6.58371041 C7.91666667,5.37669683 7.29817707,4.59276018 6.33333333,4.59276018 Z" id="Shape" fill="#000000" fill-rule="nonzero"></path>
    </g>
</svg>