<svg width="16" height="16" viewBox="0 0 16 16" fill="none" xmlns="http://www.w3.org/2000/svg">
<path fill-rule="evenodd" clip-rule="evenodd" d="M6 10C6.55427 10 7.08222 9.88726 7.56215 9.68347L8.87868 11L8.43934 11.4393C7.85355 12.0251 7.85355 12.9749 8.43934 13.5607C9.02513 14.1464 9.97487 14.1464 10.5607 13.5607L11 13.1213L11.4393 13.5607C12.0251 14.1464 12.9749 14.1464 13.5607 13.5607C14.1464 12.9749 14.1464 12.0251 13.5607 11.4393L9.68347 7.56215C9.88726 7.08222 10 6.55427 10 6C10 3.79086 8.20914 2 6 2C3.79086 2 2 3.79086 2 6C2 8.20914 3.79086 10 6 10ZM5.25 6.5C5.94036 6.5 6.5 5.94036 6.5 5.25C6.5 4.55964 5.94036 4 5.25 4C4.55964 4 4 4.55964 4 5.25C4 5.94036 4.55964 6.5 5.25 6.5Z" fill="#000000"/>
</svg>
