<svg width="16" height="16" viewBox="0 0 16 16" fill="none" xmlns="http://www.w3.org/2000/svg">
<path fill-rule="evenodd" clip-rule="evenodd" d="M15 13C15 13.5523 14.5523 14 14 14H9.75C9.33579 14 9 13.6642 9 13.25V12.75C9 12.3358 9.33579 12 9.75 12H13V4H9.75C9.33579 4 9 3.66421 9 3.25V2.75C9 2.33579 9.33579 2 9.75 2H14C14.5523 2 15 2.44771 15 3V13Z" fill="#000"/>
<path fill-rule="evenodd" clip-rule="evenodd" d="M6.5052 11.8839L9.70711 8.68198C10.0976 8.29146 10.0976 7.65829 9.70711 7.26777L6.50521 4.06586C6.21231 3.77297 5.73744 3.77297 5.44454 4.06586L5.09099 4.41942C4.7981 4.71231 4.7981 5.18718 5.09099 5.48008L6.61091 7L1.75 7C1.33579 7 1 7.33579 1 7.75V8.25C1 8.66422 1.33579 9 1.75 9L6.56066 9L5.09099 10.4697C4.7981 10.7626 4.7981 11.2374 5.09099 11.5303L5.44454 11.8839C5.73744 12.1768 6.21231 12.1768 6.5052 11.8839Z" fill="#000"/>
</svg>
