<?xml version="1.0" encoding="UTF-8"?>
<svg width="16px" height="16px" viewBox="0 0 16 16" version="1.1" xmlns="http://www.w3.org/2000/svg" xmlns:xlink="http://www.w3.org/1999/xlink">
    <!-- Generator: Sketch 55.1 (78136) - https://sketchapp.com -->
    <title>Glyphs / Magnifying Glass</title>
    <desc>Created with Sketch.</desc>
    <g id="Glyphs-/-Magnifying-Glass" stroke="none" stroke-width="1" fill="none" fill-rule="evenodd">
        <path d="M10.6246494,9.82290055 C10.8263905,9.85767278 11.0491384,9.87867966 11.2928932,9.87867966 L15.8890873,14.4748737 L14.4748737,15.8890873 L9.87867966,11.2928932 C9.87867966,11.0491384 9.85767278,10.8263905 9.82290055,10.6246494 C8.78482761,11.4837272 7.45270479,12 6,12 C2.6862915,12 2.66453526e-14,9.3137085 2.66453526e-14,6 C2.66453526e-14,2.6862915 2.6862915,1.77635684e-15 6,1.77635684e-15 C9.3137085,1.77635684e-15 12,2.6862915 12,6 C12,7.45270479 11.4837272,8.78482761 10.6246494,9.82290055 Z M6,10 C8.209139,10 10,8.209139 10,6 C10,3.790861 8.209139,2 6,2 C3.790861,2 2,3.790861 2,6 C2,8.209139 3.790861,10 6,10 Z M6,3 C7.65685425,3 9,4.34314575 9,6 L8,6 C8,4.8954305 7.1045695,4 6,4 L6,3 Z" fill="#000000"></path>
    </g>
</svg>