<svg width="16" height="16" viewBox="0 0 16 16" fill="none" xmlns="http://www.w3.org/2000/svg">
<path d="M13.7868 10.0736C13.5564 9.8432 13.2012 9.7952 12.9228 9.9584C12.798 10.0352 12.6636 10.0928 12.5292 10.1504C10.7628 10.8704 8.6412 9.9392 7.8252 7.9424C7.0956 6.1472 7.7388 4.208 9.1692 3.3248C9.438 3.1616 9.5724 2.8352 9.486 2.5184C9.3996 2.2016 9.1116 2 8.7948 2H8.67C5.358 2 2.67 4.688 2.67 8C2.67 11.312 5.358 14 8.67 14C10.9164 14 12.8748 12.7616 13.902 10.9376C14.0652 10.6592 14.0076 10.304 13.7772 10.0736H13.7868Z" fill="black"/>
</svg>
