<svg width="16" height="16" viewBox="0 0 16 16" fill="none" xmlns="http://www.w3.org/2000/svg">
<path d="M5 8.57279V13.4272C5 13.9565 4.39241 14.2015 4.0721 13.8014L2.12898 11.3742C1.95701 11.1594 1.95701 10.8406 2.12898 10.6258L4.0721 8.19856C4.39241 7.79846 5 8.04351 5 8.57279Z" fill="#000000"/>
<path d="M5 10H12.5C12.7761 10 13 10.2239 13 10.5V11.5C13 11.7761 12.7761 12 12.5 12H5V10Z" fill="#000000"/>
<path d="M11 7.42721V2.57279C11 2.04351 11.6076 1.79846 11.9279 2.19856L13.871 4.62577C14.043 4.84058 14.043 5.15942 13.871 5.37423L11.9279 7.80144C11.6076 8.20154 11 7.95649 11 7.42721Z" fill="#000000"/>
<path d="M3 4.5C3 4.22386 3.22386 4 3.5 4H11V6H3.5C3.22386 6 3 5.77614 3 5.5V4.5Z" fill="#000000"/>
</svg>
