<svg width="16" height="16" viewBox="0 0 16 16" fill="none" xmlns="http://www.w3.org/2000/svg">
<path d="M11.3891 4.81802C11.1938 4.62275 10.8772 4.62275 10.682 4.81802L7.85354 7.64644C7.65828 7.84171 7.65828 8.15829 7.85354 8.35355L10.682 11.182C10.8772 11.3772 11.1938 11.3772 11.3891 11.182L11.7426 10.8284C11.9379 10.6331 11.9379 10.3166 11.7426 10.1213L9.62131 8L11.7426 5.87868C11.9379 5.68342 11.9379 5.36683 11.7426 5.17157L11.3891 4.81802Z" fill="#000"/>
<path fill-rule="evenodd" clip-rule="evenodd" d="M4 1C2.34315 1 1 2.34315 1 4V12C1 13.6569 2.34315 15 4 15H12C13.6569 15 15 13.6569 15 12V4C15 2.34315 13.6569 1 12 1H4ZM5 2.5H4C3.17157 2.5 2.5 3.17157 2.5 4V12C2.5 12.8284 3.17157 13.5 4 13.5H5L5 2.5ZM6.5 2.5L6.5 13.5H12C12.8284 13.5 13.5 12.8284 13.5 12V4C13.5 3.17157 12.8284 2.5 12 2.5H6.5Z" fill="#000"/>
</svg>
