<svg width="16" height="16" viewBox="0 0 16 16" fill="none" xmlns="http://www.w3.org/2000/svg">
<path d="M8.5 4H9.5C10.6046 4 11.5 4.89543 11.5 6V10C11.5 11.1046 10.6046 12 9.5 12H8.5V4Z" fill="#000"/>
<path d="M7.78284 8.28284C7.93905 8.12663 7.93905 7.87337 7.78284 7.71716L5.23726 5.17157C5.08105 5.01536 4.82778 5.01536 4.67157 5.17157C4.51536 5.32778 4.51536 5.58105 4.67157 5.73726L6.93431 8L4.67157 10.2627C4.51536 10.419 4.51536 10.6722 4.67157 10.8284C4.82778 10.9846 5.08105 10.9846 5.23726 10.8284L7.78284 8.28284Z" fill="#000"/>
<path fill-rule="evenodd" clip-rule="evenodd" d="M14 4C14 2.89543 13.1046 2 12 2H4C2.89543 2 2 2.89543 2 4V12C2 13.1046 2.89543 14 4 14H12C13.1046 14 14 13.1046 14 12V4ZM12 3.25H4C3.58579 3.25 3.25 3.58579 3.25 4V12C3.25 12.4142 3.58579 12.75 4 12.75H12C12.4142 12.75 12.75 12.4142 12.75 12V4C12.75 3.58579 12.4142 3.25 12 3.25Z" fill="#000"/>
</svg>
