<svg width="16" height="16" viewBox="0 0 16 16" fill="none" xmlns="http://www.w3.org/2000/svg">
<path fill-rule="evenodd" clip-rule="evenodd" d="M11.75 8C11.75 10.0711 10.0711 11.75 8 11.75C7.37416 11.75 6.78413 11.5967 6.26542 11.3256L11.3256 6.26541C11.5967 6.78413 11.75 7.37416 11.75 8ZM4.67442 9.73459L9.73459 4.67442C9.21587 4.40331 8.62584 4.25 8 4.25C5.92893 4.25 4.25 5.92893 4.25 8C4.25 8.62584 4.40331 9.21587 4.67442 9.73459ZM14 8C14 11.3137 11.3137 14 8 14C4.68629 14 2 11.3137 2 8C2 4.68629 4.68629 2 8 2C11.3137 2 14 4.68629 14 8Z" fill="black"/>
</svg>
