<svg width="16" height="16" viewBox="0 0 16 16" fill="none" xmlns="http://www.w3.org/2000/svg">
<path d="M4.5 6.25C4.5 5.83579 4.83579 5.5 5.25 5.5H8.75C9.16421 5.5 9.5 5.83579 9.5 6.25C9.5 6.66421 9.16421 7 8.75 7H5.25C4.83579 7 4.5 6.66421 4.5 6.25Z" fill="#000000"/>
<path d="M4.5 8.75C4.5 8.33579 4.83579 8 5.25 8H6.75C7.16421 8 7.5 8.33579 7.5 8.75C7.5 9.16421 7.16421 9.5 6.75 9.5H5.25C4.83579 9.5 4.5 9.16421 4.5 8.75Z" fill="#000000"/>
<path fill-rule="evenodd" clip-rule="evenodd" d="M15 10L11 14H3C1.89543 14 1 13.1046 1 12V4C1 2.89543 1.89543 2 3 2H13C14.1046 2 15 2.89543 15 4V10ZM13 4H3L3 12H10V10C10 9.44772 10.4477 9 11 9H13V4Z" fill="#000000"/>
</svg>
