<?xml version="1.0" encoding="UTF-8"?>
<svg width="16px" height="16px" viewBox="0 0 16 16" version="1.1" xmlns="http://www.w3.org/2000/svg" xmlns:xlink="http://www.w3.org/1999/xlink">
    <g id="Person-Copy" stroke="none" stroke-width="1" fill="none" fill-rule="evenodd">
        <path d="M11.1171875,9.1328125 C13.671875,9.46875 16,10.59375 16,14.5 L14,14.5 C14,11.5078125 12.5,11 8,11 C3.5,11 2,11.5078125 2,14.5 L0,14.5 C0,10.59375 2.328125,9.46875 4.890625,9.1328125 C4.3359375,8.28125 4,7.1875 4,6 C4,3.2421875 5.7890625,1.5 8,1.5 C10.2109375,1.5 12,3.2421875 12,6 C12,7.1875 11.6640625,8.28125 11.1171875,9.1328125 Z M6,6 C6,7.6015625 6.9375,9 8,9 C9.0625,9 10,7.6015625 10,6 C10,4.484375 9.21875,3.5 8,3.5 C6.7890625,3.5 6,4.484375 6,6 Z" id="" fill="#000000"></path>
    </g>
</svg>
