<svg width="16" height="16" viewBox="0 0 16 16" fill="none" xmlns="http://www.w3.org/2000/svg">
<path d="M10 8.5V3.3H10.6833C11.0423 3.3 11.3333 3.00898 11.3333 2.65C11.3333 2.29101 11.0423 2 10.6833 2H5.31667C4.95768 2 4.66667 2.29101 4.66667 2.65C4.66667 3.00898 4.95768 3.3 5.31667 3.3H6V8.5L4.38343 9.55077C4.14428 9.70621 4 9.97208 4 10.2573C4 10.7227 4.37728 11.1 4.84269 11.1H7.46667V14.4667C7.46667 14.7612 7.70545 15 8 15C8.29455 15 8.53333 14.7612 8.53333 14.4667V11.1H11.1573C11.6227 11.1 12 10.7227 12 10.2573C12 9.97208 11.8557 9.70622 11.6166 9.55077L10 8.5Z" fill="#000"/>
</svg>
