<svg width="16" height="16" viewBox="0 0 16 16" fill="none" xmlns="http://www.w3.org/2000/svg">
<path fill-rule="evenodd" clip-rule="evenodd" d="M8 15C11.866 15 15 11.866 15 8C15 4.13401 11.866 1 8 1C4.13401 1 1 4.13401 1 8C1 11.866 4.13401 15 8 15ZM11 6.69296C11 5.17183 9.91753 4 8.43299 4H6V12H7.49485V9.38592H8.43299C9.91753 9.38592 11 8.21408 11 6.69296ZM9.54639 6.69296C9.54639 7.34648 9.09278 7.85352 8.41237 7.85352H7.49485V5.53239H8.41237C9.09278 5.53239 9.54639 6.03944 9.54639 6.69296Z" fill="#000"/>
</svg>
