<svg width="16" height="16" viewBox="0 0 16 16" fill="none" xmlns="http://www.w3.org/2000/svg">
<path d="M1 2C1 1.72386 1.22386 1.5 1.5 1.5H14.5C14.7761 1.5 15 1.72386 15 2V4C15 4.27614 14.7761 4.5 14.5 4.5H1.5C1.22386 4.5 1 4.27614 1 4V2Z" fill="#000"/>
<path fill-rule="evenodd" clip-rule="evenodd" d="M2.75 5.5C2.33579 5.5 2 5.83579 2 6.25V13.75C2 14.1642 2.33579 14.5 2.75 14.5H13.25C13.6642 14.5 14 14.1642 14 13.75V6.25C14 5.83579 13.6642 5.5 13.25 5.5H2.75ZM6.25 7C5.97386 7 5.75 7.22386 5.75 7.5C5.75 7.77614 5.97386 8 6.25 8H9.75C10.0261 8 10.25 7.77614 10.25 7.5C10.25 7.22386 10.0261 7 9.75 7H6.25Z" fill="#000"/>
</svg>
