<svg width="16" height="16" viewBox="0 0 16 16" fill="none" xmlns="http://www.w3.org/2000/svg">
<path fill-rule="evenodd" clip-rule="evenodd" d="M14.7706 5.71967C15.0631 6.01256 15.0631 6.48744 14.7706 6.78033L6.77898 14.7803C6.4864 15.0732 6.01202 15.0732 5.71944 14.7803C5.42685 14.4874 5.42685 14.0126 5.71944 13.7197L13.711 5.71967C14.0036 5.42678 14.478 5.42678 14.7706 5.71967Z" fill="#000"/>
<path fill-rule="evenodd" clip-rule="evenodd" d="M14.7806 10.2197C15.0731 10.5126 15.0731 10.9874 14.7806 11.2803L11.2842 14.7803C10.9917 15.0732 10.5173 15.0732 10.2247 14.7803C9.93212 14.4874 9.93212 14.0126 10.2247 13.7197L13.721 10.2197C14.0136 9.92678 14.488 9.92678 14.7806 10.2197Z" fill="#000"/>
</svg>
