<svg width="16" height="16" viewBox="0 0 16 16" fill="none" xmlns="http://www.w3.org/2000/svg">
<path d="M13 8C13 10.7614 10.7614 13 8 13C7.16895 13 6.38526 12.7973 5.69568 12.4385C5.34783 12.2576 4.90944 12.3087 4.65841 12.6099L4.32712 13.0075C4.05174 13.3379 4.1087 13.8355 4.48034 14.0521C5.51438 14.6548 6.71687 15 8 15C11.866 15 15 11.866 15 8C15 4.13401 11.866 1 8 1C6.05606 1 4.2972 1.7924 3.02879 3.07181L1.96954 2.14618C1.56206 1.7901 0.931193 2.13127 1.00611 2.66721L1.4606 5.9185C1.50083 6.20624 1.7463 6.4287 2.03684 6.43H5.31972C5.86086 6.43241 6.1144 5.76821 5.70691 5.41212L4.53896 4.3915C5.4373 3.52965 6.65679 3 8 3C10.7614 3 13 5.23858 13 8Z" fill="#000"/>
</svg>
