<?xml version="1.0" encoding="UTF-8"?>
<svg width="16px" height="16px" viewBox="0 0 16 16" version="1.1" xmlns="http://www.w3.org/2000/svg" xmlns:xlink="http://www.w3.org/1999/xlink">
    <g id="Save-Copy" stroke="none" stroke-width="1" fill="none" fill-rule="evenodd">
        <path d="M12,2 L15,6 L15,15 L1,15 L1,2 L12,2 Z M13,13 L13,6.6640625 L11,4 L9,4 L9,7 L4,7 L4,4 L3,4 L3,13 L4,13 L4,10 L9,10 L9,13 L13,13 Z M7,4 L7,6 L8,6 L8,4 L7,4 Z M8,12 L8,11 L5,11 L5,12 L8,12 Z M8,14 L8,13 L5,13 L5,14 L8,14 Z" id="" fill="#000000"></path>
    </g>
</svg>
