<svg width="16" height="16" viewBox="0 0 16 16" fill="none" xmlns="http://www.w3.org/2000/svg">
<path fill-rule="evenodd" clip-rule="evenodd" d="M8.3883 9.2529C7.4312 9.8245 6.1735 9.6983 5.3492 8.8741C4.3758 7.9007 4.3758 6.3225 5.3492 5.3492C6.3225 4.3758 7.9007 4.3758 8.8741 5.3492C9.6983 6.1735 9.8245 7.4312 9.2529 8.3883L11.2018 10.3372C11.4405 10.5759 11.4405 10.9631 11.2018 11.2018C10.9631 11.4405 10.5759 11.4405 10.3372 11.2018L8.3883 9.2529ZM8.0095 8.0095C8.5053 7.5136 8.5053 6.7096 8.0095 6.2138C7.5136 5.7179 6.7096 5.7179 6.2138 6.2138C5.7179 6.7096 5.7179 7.5136 6.2138 8.0095C6.7096 8.5053 7.5136 8.5053 8.0095 8.0095Z" fill="#000000"/>
<path fill-rule="evenodd" clip-rule="evenodd" d="M15 8C15 11.866 11.866 15 8 15C4.134 15 1 11.866 1 8C1 4.134 4.134 1 8 1C11.866 1 15 4.134 15 8ZM13.5 8C13.5 11.0375 11.0375 13.5 8 13.5C4.9624 13.5 2.5 11.0375 2.5 8C2.5 4.9624 4.9624 2.5 8 2.5C11.0375 2.5 13.5 4.9624 13.5 8Z" fill="#000000"/>
</svg>
