<svg width="16" height="16" viewBox="0 0 16 16" fill="none">
  <path d="M1.8 5.2L5.2 7.4L1.41036 9.92642C1.18282 10.0781 1.11937 10.3845 1.26793 10.6141L1.82463 11.4744C1.9761 11.7085 2.28977 11.7735 2.52176 11.6188L7.5 8.3C7.8 8.1 8 7.8 8 7.5C8 7.2 7.8 6.9 7.6 6.7L2.52235 3.28412C2.29032 3.12804 1.97539 3.19258 1.82347 3.42736L1.27593 4.27357C1.12424 4.50799 1.19394 4.82121 1.43071 4.96919L1.8 5.2ZM6.7 13C6.7 13.2761 6.92386 13.5 7.2 13.5H14.9C15.1761 13.5 15.4 13.2761 15.4 13V12C15.4 11.7239 15.1761 11.5 14.9 11.5H7.2C6.92386 11.5 6.7 11.7239 6.7 12V13Z" fill="#000000"/>
</svg>
