<svg width="16" height="16" viewBox="0 0 16 16" fill="none" xmlns="http://www.w3.org/2000/svg">
<path d="M2.08868 4.24432C2.03629 4.02602 2.13581 3.79957 2.33205 3.69055L5.37504 2C8.00004 4.5 10.625 2 10.625 2L13.668 3.69055C13.8643 3.79957 13.9638 4.02602 13.9114 4.24432L13.388 6.42503C13.3071 6.76224 13.0055 7 12.6587 7H11V12.4271C11 12.7782 10.8017 13.0992 10.4876 13.2562C8.92164 14.0392 7.07844 14.0392 5.5125 13.2562C5.19843 13.0992 5.00004 12.7782 5.00004 12.4271V7H3.34134C2.99455 7 2.69298 6.76224 2.61205 6.42503L2.08868 4.24432Z" fill="#000"/>
</svg>
