<svg width="20" height="20" viewBox="0 0 20 20" fill="none" xmlns="http://www.w3.org/2000/svg">
<path d="M17.6665 10.8045L16.3179 9.99952L17.6665 9.19529C18.3451 8.79072 18.75 8.08886 18.75 7.31758C18.75 6.5463 18.3444 5.84444 17.6665 5.43987L11.1951 1.57998C10.4563 1.13965 9.54226 1.14036 8.80494 1.57998L2.33352 5.43987C1.65487 5.84444 1.25 6.5463 1.25 7.31758C1.25 8.08886 1.6556 8.79072 2.33352 9.19529L3.68213 9.99952L2.33352 10.8045C1.65487 11.209 1.25 11.9109 1.25 12.6822C1.25 13.4534 1.6556 14.1553 2.33352 14.5599L8.80494 18.4198C9.17432 18.6399 9.58716 18.75 10 18.75C10.4128 18.75 10.8264 18.6399 11.1943 18.4205L17.6665 14.5606C18.3451 14.156 18.75 13.4541 18.75 12.6829C18.75 11.9116 18.3444 11.209 17.6665 10.8045ZM2.69856 7.31758C2.69856 7.03221 2.84269 6.78329 3.09329 6.63395L9.56543 2.77336C9.69943 2.69343 9.84935 2.65346 10 2.65346C10.1507 2.65346 10.3006 2.69413 10.4353 2.77406L16.9074 6.63395C17.158 6.78329 17.3022 7.03221 17.3022 7.31758C17.3022 7.60295 17.158 7.85186 16.9074 8.00121L14.9374 9.17636L11.1951 6.94386C10.4577 6.50423 9.54298 6.50423 8.80567 6.94386L7.20231 7.90029C6.85995 8.10452 6.75389 8.55117 6.96789 8.8875C7.17335 9.2104 7.59837 9.31133 7.92706 9.11526L9.56543 8.13794C9.83414 7.97737 10.1666 7.97737 10.4353 8.13794L13.5562 9.99952L10.4346 11.8611C10.168 12.021 9.83487 12.0217 9.56543 11.8611L3.09329 8.00051C2.84269 7.85116 2.69856 7.60295 2.69856 7.31758ZM16.9067 13.3651L10.4338 17.2257C10.1673 17.3855 9.83414 17.3862 9.56471 17.2257L3.09256 13.3658C2.84196 13.2164 2.69783 12.9675 2.69783 12.6822C2.69783 12.3968 2.84196 12.1479 3.09256 11.9985L5.0626 10.8234L8.80422 13.0552C9.1736 13.2753 9.58644 13.3854 9.99928 13.3854C10.4121 13.3854 10.8257 13.2753 11.1936 13.0559L14.936 10.8241L16.906 11.9992C17.1566 12.1486 17.3007 12.3975 17.3007 12.6829C17.3007 12.9682 17.1566 13.2171 16.906 13.3665L16.9067 13.3651Z" fill="#000"/>
</svg>
