<?xml version="1.0" encoding="UTF-8"?>
<svg width="16px" height="16px" viewBox="0 0 16 16" version="1.1" xmlns="http://www.w3.org/2000/svg" xmlns:xlink="http://www.w3.org/1999/xlink">
    <g id="Support-Copy" stroke="none" stroke-width="1" fill="none" fill-rule="evenodd">
        <path d="M8,0 C10.8984375,0 13,2.1015625 13,5 L13,11 L11,11 L11,5 C11,3.0703125 9.65625,2 8,2 C6.34375,2 5,3.0703125 5,5 L5,11 L3,11 L3,5 C3,2.1015625 5.1015625,0 8,0 Z M0,8 C0,6.34375 0.34375,5 2,5 L2,11 C0.34375,11 0,9.65625 0,8 Z M14,5 C15.65625,5 16,6.34375 16,8 C16,9.65625 15.65625,11 14,11 L14,5 Z M2,13.7890625 L2,11 L3,11 L3,13.2109375 L5,14.3515625 L5,14 L7,14 L7,16 L5,16 L5,15.5078125 L2,13.7890625 Z" id="îˆ" fill="#000000"></path>
    </g>
</svg>
