<svg width="16" height="16" viewBox="0 0 16 16" fill="none" xmlns="http://www.w3.org/2000/svg">
<path fill-rule="evenodd" clip-rule="evenodd" d="M9.70711 14.2929L14.2929 9.70711C14.6834 9.31658 14.6834 8.68342 14.2929 8.29289L8.29289 2.29289C8.10536 2.10536 7.851 2 7.58579 2H3C2.44772 2 2 2.44772 2 3V7.58579C2 7.851 2.10536 8.10536 2.29289 8.29289L8.29289 14.2929C8.68342 14.6834 9.31658 14.6834 9.70711 14.2929ZM5 6C5.55228 6 6 5.55228 6 5C6 4.44772 5.55228 4 5 4C4.44772 4 4 4.44772 4 5C4 5.55228 4.44772 6 5 6Z" fill="black"/>
</svg>
