<svg width="16" height="16" viewBox="0 0 16 16" fill="none" xmlns="http://www.w3.org/2000/svg">
<path fill-rule="evenodd" clip-rule="evenodd" d="M2.25 2C1.55965 2 1 2.55963 1 3.25V12.75C1 13.4404 1.55965 14 2.25 14H8.62012L8.62 8.62L15 8.62012V3.25C15 2.55963 14.4404 2 13.75 2H2.25ZM3 4V7.37H7.37V4H3ZM3 12V8.62H7.37V12H3ZM13 4V7.37H8.62V4H13Z" fill="#000"/>
<path fill-rule="evenodd" clip-rule="evenodd" d="M13 16C14.6569 16 16 14.6569 16 13C16 11.3431 14.6569 10 13 10C11.3431 10 10 11.3431 10 13C10 14.6569 11.3431 16 13 16ZM12.625 11.375C12.625 11.1679 12.7929 11 13 11C13.2071 11 13.375 11.1679 13.375 11.375V12.9548L14.2469 13.7178C14.4028 13.8542 14.4186 14.0911 14.2822 14.2469C14.1458 14.4028 13.9089 14.4186 13.7531 14.2822L12.7553 13.4092C12.7507 13.4052 12.7462 13.4011 12.7418 13.397C12.7069 13.3639 12.6798 13.3256 12.6604 13.2843C12.6377 13.236 12.625 13.182 12.625 13.125V11.375Z" fill="#000"/>
</svg>
