<svg width="16" height="16" viewBox="0 0 16 16" fill="none" xmlns="http://www.w3.org/2000/svg">
<path fill-rule="evenodd" clip-rule="evenodd" d="M6.15738 4.22101C6.46112 3.50344 7.17177 3 8 3C9.10457 3 10 3.89543 10 5V7H4C3.44772 7 3 7.44772 3 8V14C3 14.5523 3.44772 15 4 15H12C12.5523 15 13 14.5523 13 14V8C13 7.44772 12.5523 7 12 7V5C12 2.79086 10.2091 1 8 1C6.20247 1 4.68187 2.18568 4.17763 3.81762C3.98198 4.45082 4.53726 5 5.2 5C5.64183 5 5.98516 4.62789 6.15738 4.22101ZM8.58667 10.8099C8.83712 10.6282 9 10.3331 9 10C9 9.44771 8.55228 9 8 9C7.44772 9 7 9.44771 7 10C7 10.3361 7.16577 10.6334 7.42 10.8147V12.6667C7.42 12.9888 7.68117 13.25 8.00333 13.25C8.3255 13.25 8.58667 12.9888 8.58667 12.6667V10.8099Z" fill="#000000"/>
</svg>
