<svg width="16" height="16" viewBox="0 0 16 16" fill="none" xmlns="http://www.w3.org/2000/svg">
<path d="M3.68466 1.14265C3.90429 0.952449 4.23028 0.95245 4.44991 1.14265L6.93156 3.29182C7.34063 3.64609 7.09009 4.31811 6.54893 4.31811H5.23624L5.23624 11.6819H6.54894C7.09009 11.6819 7.34064 12.3539 6.93157 12.7082L4.44992 14.8573C4.23029 15.0476 3.9043 15.0476 3.68467 14.8573L1.20303 12.7082C0.793953 12.3539 1.0445 11.6819 1.58565 11.6819H2.89836V11.6742L2.89835 11.6696L2.89835 4.31811H1.58564C1.04449 4.31811 0.793944 3.64609 1.20302 3.29182L3.68466 1.14265Z" fill="#000000"/>
<path d="M8 8C8 7.44772 8.44772 7 9 7H14C14.5523 7 15 7.44772 15 8C15 8.55228 14.5523 9 14 9H9C8.44772 9 8 8.55228 8 8Z" fill="#000000"/>
<path d="M9 4C8.44772 4 8 4.44772 8 5C8 5.55228 8.44772 6 9 6H14C14.5523 6 15 5.55228 15 5C15 4.44772 14.5523 4 14 4H9Z" fill="#000000"/>
<path d="M8 11C8 10.4477 8.44772 10 9 10H14C14.5523 10 15 10.4477 15 11C15 11.5523 14.5523 12 14 12H9C8.44772 12 8 11.5523 8 11Z" fill="#000000"/>
</svg>
