<svg width="16" height="16" viewBox="0 0 16 16" fill="none" xmlns="http://www.w3.org/2000/svg">
<path fill-rule="evenodd" clip-rule="evenodd" d="M9.5 2.75C9.5 3.7165 8.7165 4.5 7.75 4.5C6.7835 4.5 6 3.7165 6 2.75C6 1.7835 6.7835 1 7.75 1C8.7165 1 9.5 1.7835 9.5 2.75ZM9.5 7.75C9.5 8.7165 8.7165 9.5 7.75 9.5C6.7835 9.5 6 8.7165 6 7.75C6 6.7835 6.7835 6 7.75 6C8.7165 6 9.5 6.7835 9.5 7.75ZM7.75 14.5C8.7165 14.5 9.5 13.7165 9.5 12.75C9.5 11.7835 8.7165 11 7.75 11C6.7835 11 6 11.7835 6 12.75C6 13.7165 6.7835 14.5 7.75 14.5Z" fill="#000000"/>
</svg>
