<svg width="16" height="16" viewBox="0 0 16 16" fill="none" xmlns="http://www.w3.org/2000/svg">
<path fill-rule="evenodd" clip-rule="evenodd" d="M8.8639 1.51357C8.49039 0.828811 7.50961 0.828811 7.1361 1.51357L1.12218 12.5388C0.763263 13.1968 1.23814 14 1.98608 14H14.0139C14.7619 14 15.2367 13.1968 14.8778 12.5388L8.8639 1.51357ZM7 5C7 4.44772 7.44772 4 8 4C8.55228 4 9 4.44772 9 5V9C9 9.55228 8.55228 10 8 10C7.44772 10 7 9.55228 7 9V5ZM9 12C9 12.5523 8.55228 13 8 13C7.44772 13 7 12.5523 7 12C7 11.4477 7.44772 11 8 11C8.55228 11 9 11.4477 9 12Z" fill="#000"/>
</svg>
