<svg width="16" height="16" viewBox="0 0 16 16" fill="none" xmlns="http://www.w3.org/2000/svg">
<path fill-rule="evenodd" clip-rule="evenodd" d="M8.8639 2.51357C8.49039 1.82881 7.50961 1.82881 7.1361 2.51357L1.12218 13.5388C0.763263 14.1968 1.23814 15 1.98608 15H14.0139C14.7619 15 15.2367 14.1968 14.8778 13.5388L8.8639 2.51357ZM7 6C7 5.44772 7.44772 5 8 5C8.55228 5 9 5.44772 9 6V10C9 10.5523 8.55228 11 8 11C7.44772 11 7 10.5523 7 10V6ZM9 13C9 13.5523 8.55228 14 8 14C7.44772 14 7 13.5523 7 13C7 12.4477 7.44772 12 8 12C8.55228 12 9 12.4477 9 13Z" fill="#000000"/>
</svg>
