<?xml version="1.0" encoding="UTF-8"?>
<svg width="16px" height="16px" viewBox="0 0 16 16" version="1.1" xmlns="http://www.w3.org/2000/svg" xmlns:xlink="http://www.w3.org/1999/xlink">
    <!-- Generator: Sketch 54 (76480) - https://sketchapp.com -->
    <title>XWithCircle</title>
    <desc>Created with Sketch.</desc>
    <g id="XWithCircle-Copy" stroke="none" stroke-width="1" fill="none" fill-rule="evenodd">
        <path d="M8,16 C3.581722,16 0,12.418278 0,8 C0,3.581722 3.581722,0 8,0 C12.418278,0 16,3.581722 16,8 C16,12.418278 12.418278,16 8,16 Z M8,15 C11.8659932,15 15,11.8659932 15,8 C15,4.13400675 11.8659932,1 8,1 C4.13400675,1 1,4.13400675 1,8 C1,11.8659932 4.13400675,15 8,15 Z" id="Combined-Shape" fill="#000000"></path>
        <path d="M9,7 L12.5,7 L12.5,9 L9,9 L9,12.5 L7,12.5 L7,9 L3.5,9 L3.5,7 L7,7 L7,3.5 L9,3.5 L9,7 Z" id="Combined-Shape-Copy" fill="#000000" transform="translate(8.000000, 8.000000) rotate(45.000000) translate(-8.000000, -8.000000) "></path>
    </g>
</svg>