<svg width="72" height="72" viewBox="0 0 72 72" fill="none" xmlns="http://www.w3.org/2000/svg">
<path d="M51 43.5H58.6462C63.8121 43.5 68 39.7429 68 34.5769C68 29.4109 63.8121 25.2231 58.6462 25.2231C57.673 25.2231 56.5263 25.5822 55.5605 25.9424C55.2297 26.0657 54.8735 25.8235 54.8598 25.4707C54.4728 15.4803 46.2515 7.5 36.1664 7.5C28.4085 7.5 21.6691 12.3546 18.8316 19.0861C18.7415 19.2998 18.5195 19.4278 18.2891 19.4011C17.8006 19.3445 17.3037 19.3154 16.8 19.3154C10.8923 18.8231 4 24.0615 4 31.1308C4 38.2 9.73076 43.5 16.8 43.5H33" stroke="#001E2B"/>
<path d="M33.5 56.4995C24.3873 56.4995 17 49.1122 17 39.9995C17 31.2226 23.8529 24.0462 32.5 23.5293" stroke="#001E2B"/>
<path d="M27.3668 19.2235L32.5185 23.2805C32.6889 23.4352 32.7048 23.6826 32.5558 23.8579L28.649 29.1616" stroke="#001E2B" stroke-miterlimit="10"/>
<rect x="33" y="32.5" width="18" height="32" rx="1" fill="#00ED64" stroke="#001E2B"/>
<line x1="38" y1="36.5" x2="46" y2="36.5" stroke="#001E2B"/>
</svg>
