<svg width="241" height="160" viewBox="0 0 241 160" fill="none" xmlns="http://www.w3.org/2000/svg">
<path d="M234.812 30.8169L120.233 16.434C118.226 16.181 116.288 17.2442 115.437 19.063L83.9297 81.3878L204.968 96.5844L236.592 34.01C237.24 32.622 236.343 31.0117 234.812 30.8203V30.8169Z" fill="white" stroke="black" stroke-width="0.414511" stroke-linecap="round" stroke-linejoin="round"/>
<path d="M155.702 97.8152L39.3608 83.1793L40.2919 75.8904L159.564 90.8989L155.702 97.8152Z" fill="#FFE212" stroke="black" stroke-width="0.414511" stroke-linecap="round" stroke-linejoin="round"/>
<path d="M193.192 102.506L149.182 96.981L150.113 89.6956L204.971 96.581C202.637 100.759 197.971 103.108 193.195 102.506H193.192Z" fill="black" stroke="black" stroke-width="0.414511" stroke-linecap="round" stroke-linejoin="round"/>
<path d="M199.171 90.554L226.671 35.6138L121.616 22.4241L93.8611 77.3335L199.171 90.554Z" fill="#FFE212" stroke="black" stroke-width="0.414511" stroke-linecap="round" stroke-linejoin="round"/>
<path d="M45.7435 130.448C45.7435 130.448 47.5159 131.121 49.4366 130.561C53.3573 129.658 53.7746 125.33 53.7746 125.33C58.9194 120.564 65.1746 118.882 69.2125 121.662C74.2746 125.145 73.9366 134.311 68.4573 142.137C62.978 149.959 54.4366 153.48 49.3746 149.997C46.2435 147.843 45.1815 143.511 46.1228 138.67L46.1159 138.684L19.6746 158.294L20.878 152.458L45.747 130.451L45.7435 130.448Z" fill="#B1FF05" stroke="black" stroke-width="0.414511" stroke-linecap="round" stroke-linejoin="round"/>
<path d="M45.7432 130.448L28.9432 118.968L4.82251 142.811C4.82251 142.811 8.16389 143.607 10.5535 146.787C11.6501 148.247 13.226 149.262 15.0225 149.638C16.7811 150.004 19.0087 150.787 20.8742 152.455" fill="#00ED64"/>
<path d="M45.7432 130.448L28.9432 118.968L4.82251 142.811C4.82251 142.811 8.16389 143.607 10.5535 146.787C11.6501 148.247 13.226 149.262 15.0225 149.638C16.7811 150.004 19.0087 150.787 20.8742 152.455" stroke="black" stroke-width="0.414511" stroke-linecap="round" stroke-linejoin="round"/>
<path d="M39.7159 143.426C39.6745 143.628 46.1503 138.479 46.1159 138.677C45.1641 143.703 46.34 147.901 49.371 149.99L39.7124 143.426" fill="black"/>
<path d="M39.7159 143.426C39.6745 143.628 46.1503 138.479 46.1159 138.677C45.1641 143.703 46.34 147.901 49.371 149.99L39.7124 143.426" stroke="black" stroke-width="0.414511" stroke-linecap="round" stroke-linejoin="round"/>
<path d="M28.9434 118.964C36.3365 120.643 36.9882 113.833 36.9882 113.833C42.133 109.077 48.3779 107.402 52.4124 110.178L69.2124 121.658C65.171 118.879 58.9124 120.561 53.7641 125.334L53.7744 125.327C53.7744 125.327 53.1262 132.137 45.7296 130.458L28.9399 118.961L28.9434 118.964Z" fill="#00ED64" stroke="black" stroke-width="0.414511" stroke-linecap="round" stroke-linejoin="round"/>
<path d="M53.7503 125.34L36.9641 113.846" stroke="black" stroke-width="0.414511" stroke-linecap="round" stroke-linejoin="round"/>
<path d="M36.9813 113.857L53.7503 125.34L53.7606 125.419C53.6537 126.212 52.6227 132.028 45.7296 130.462L28.9399 118.964C36.0779 120.585 36.9296 114.291 36.9813 113.857Z" fill="#B1FF05" stroke="black" stroke-width="0.414511" stroke-linecap="round" stroke-linejoin="round"/>
<path d="M19.6744 158.291L20.8778 152.455C19.0088 150.79 16.7847 150.004 15.0261 149.638C13.2295 149.262 11.6502 148.246 10.5571 146.787C8.17091 143.607 4.82608 142.811 4.82608 142.811L3.86401 147.484L19.6778 158.291H19.6744Z" fill="black" stroke="black" stroke-width="0.414511" stroke-linecap="round" stroke-linejoin="round"/>
<path d="M11.7929 142.392L19.6967 147.83C20.296 148.243 21.1189 148.095 21.5347 147.501L22.1402 146.636C22.5561 146.042 22.4074 145.226 21.8082 144.814L13.9044 139.376C13.3051 138.963 12.4822 139.111 12.0664 139.705L11.4608 140.57C11.045 141.164 11.1936 141.98 11.7929 142.392Z" fill="#E3FCF7" stroke="black" stroke-width="0.414511" stroke-linecap="round" stroke-linejoin="round"/>
<path d="M63.8435 117.99L69.7021 122.031L71.9642 120.028C73.6021 118.578 73.4883 116 71.7263 114.701C70.4056 113.723 68.5711 113.805 67.3435 114.893L63.8435 117.99Z" fill="#B1FF05" stroke="black" stroke-width="0.414511" stroke-linecap="round" stroke-linejoin="round"/>
<path d="M67.3434 114.893L63.8469 117.987L60.2676 115.532L63.7676 112.435C64.9986 111.347 66.8296 111.265 68.1503 112.243L71.7297 114.698C70.409 113.72 68.5745 113.802 67.3469 114.889L67.3434 114.893Z" fill="#00ED64" stroke="black" stroke-width="0.414511" stroke-linecap="round" stroke-linejoin="round"/>
<path d="M70.3125 118.579C70.7791 118.016 70.8197 117.285 70.4032 116.945C69.9868 116.606 69.2709 116.788 68.8043 117.351C68.3377 117.914 68.2971 118.646 68.7136 118.985C69.13 119.324 69.8459 119.143 70.3125 118.579Z" fill="white" stroke="black" stroke-width="0.414511" stroke-linecap="round" stroke-linejoin="round"/>
<path d="M45.7294 130.462L20.8743 152.455" stroke="black" stroke-width="0.414511" stroke-linecap="round" stroke-linejoin="round"/>
<path d="M195.302 12.4206L109.989 1.70947L81.2266 58.6018L166.54 69.3129L195.302 12.4206Z" fill="black" stroke="black" stroke-width="0.414511" stroke-linecap="round" stroke-linejoin="round"/>
<path d="M189.478 23.9383L125.389 15.8905L128.306 10.1298L107.078 7.46655L104.164 13.2272L81.2266 58.6016L166.54 69.3127L189.478 23.9383Z" fill="#00684A" stroke="black" stroke-width="0.414511" stroke-linecap="round" stroke-linejoin="round"/>
<path d="M192.389 18.1813L195.302 12.4206L109.989 1.70947L107.075 7.47016L192.389 18.1813Z" fill="#00EC64" stroke="black" stroke-width="0.414511" stroke-linecap="round" stroke-linejoin="round"/>
<path d="M195.302 62.6224L137.644 55.3813L128.619 73.2343L186.275 80.4754L195.302 62.6224Z" fill="white" stroke="black" stroke-width="0.414511" stroke-linecap="round" stroke-linejoin="round"/>
<path d="M186.144 67.4699L155.685 63.6477" stroke="black" stroke-width="0.414511" stroke-linecap="round" stroke-linejoin="round"/>
<path d="M163.406 70.5025L152.899 69.1863" stroke="black" stroke-width="0.414511" stroke-linecap="round" stroke-linejoin="round"/>
<path d="M183.344 73.0085L167.795 71.0564" stroke="black" stroke-width="0.414511" stroke-linecap="round" stroke-linejoin="round"/>
<path d="M61.3366 60.4888L56.2642 58.9641L51.1538 57.4358L55.0504 53.8187L58.9435 50.2324L60.1228 55.3811L61.3366 60.4888Z" fill="white" stroke="black" stroke-width="0.414511" stroke-linecap="round" stroke-linejoin="round"/>
<path d="M58.9435 50.2324L56.8814 55.7504L51.1538 57.4358L58.9435 50.2324Z" fill="black" stroke="black" stroke-width="0.414511" stroke-linecap="round" stroke-linejoin="round"/>
<path d="M61.3368 60.4887L56.8816 55.7502" stroke="black" stroke-width="0.414511" stroke-linecap="round" stroke-linejoin="round"/>
<path d="M185.023 32.7487L140.53 27.1624L136.599 34.9401L181.092 40.5265L185.023 32.7487Z" fill="black" stroke="black" stroke-width="0.414511" stroke-linecap="round" stroke-linejoin="round"/>
<path d="M178.178 46.2906L120.051 38.9949L116.12 46.7727L174.247 54.0684L178.178 46.2906Z" fill="black" stroke="black" stroke-width="0.414511" stroke-linecap="round" stroke-linejoin="round"/>
<path d="M132.592 26.1605L112.847 23.6785L108.913 31.4597L128.661 33.9383L132.592 26.1605Z" fill="black" stroke="black" stroke-width="0.414511" stroke-linecap="round" stroke-linejoin="round"/>
<path d="M138.692 23.6785L134.761 31.4597L190.888 38.5058L194.823 30.728L138.692 23.6785Z" fill="#FFA000" stroke="black" stroke-width="0.414511" stroke-linecap="round" stroke-linejoin="round"/>
<path d="M118.213 35.5112L114.278 43.289L195.302 53.4634L198.961 45.648L118.213 35.5112Z" fill="#FFC010" stroke="black" stroke-width="0.414511" stroke-linecap="round" stroke-linejoin="round"/>
<path d="M130.754 22.6769L111.009 20.1982L107.075 27.976L126.82 30.4547L130.754 22.6769Z" fill="#FFA000" stroke="black" stroke-width="0.414511" stroke-linecap="round" stroke-linejoin="round"/>
<path d="M203.174 45.3845L198.501 55.3606" stroke="black" stroke-width="0.414511" stroke-linecap="round" stroke-linejoin="round"/>
<path d="M202.06 43.9111L203.174 45.3846L205.174 44.3009" stroke="black" stroke-width="0.414511" stroke-linecap="round" stroke-linejoin="round"/>
<path d="M199.622 56.8375L198.505 55.364L196.505 56.4478" stroke="black" stroke-width="0.414511" stroke-linecap="round" stroke-linejoin="round"/>
<path d="M146.306 61.822C146.25 61.8289 146.199 61.8425 146.15 61.8699C145.73 62.1058 146.702 62.6596 147.288 63.6853C147.875 64.7109 147.847 65.822 148.268 65.5861C148.34 65.5451 148.399 65.4801 148.437 65.3947L150.54 61.863L146.402 61.8254C146.368 61.822 146.337 61.822 146.302 61.8254L146.306 61.822Z" fill="#FCB420" stroke="black" stroke-width="0.414511" stroke-linecap="round" stroke-linejoin="round"/>
<path d="M138.961 70.7966L148.271 65.5863C148.692 65.3504 148.557 64.3282 147.974 63.3025C147.388 62.2769 146.574 61.6342 146.154 61.8701L136.843 67.0803C136.423 67.3162 136.557 68.3384 137.14 69.3641C137.726 70.3897 138.54 71.0325 138.961 70.7966Z" fill="#FFE201" stroke="black" stroke-width="0.414511" stroke-linecap="round" stroke-linejoin="round"/>
<path d="M148.63 61.8428C148.63 61.8428 149.04 61.8428 149.412 62.4958C149.785 63.1488 149.568 63.5043 149.568 63.5043L150.543 61.8633L148.63 61.8462V61.8428Z" fill="#231F20" stroke="black" stroke-width="0.414511" stroke-linecap="round" stroke-linejoin="round"/>
<path d="M138.961 70.7966L141.147 69.5726C141.568 69.3367 141.433 68.3145 140.85 67.2889C140.264 66.2632 139.45 65.6205 139.03 65.8564L136.843 67.0803C136.423 67.3162 136.557 68.3384 137.14 69.3641C137.726 70.3897 138.54 71.0325 138.961 70.7966Z" fill="#FFE201" stroke="black" stroke-width="0.414511" stroke-linecap="round" stroke-linejoin="round"/>
<path d="M138.96 70.8001C139.379 70.5652 139.246 69.5431 138.662 68.5171C138.077 67.4912 137.263 66.8499 136.844 67.0847C136.424 67.3196 136.558 68.3417 137.142 69.3677C137.726 70.3937 138.54 71.035 138.96 70.8001Z" fill="#FCB420" stroke="black" stroke-width="0.414511" stroke-linecap="round" stroke-linejoin="round"/>
<path d="M107.075 13.0975C107.075 13.0975 109.009 14.4308 112.271 13.0975C115.061 11.9556 114.847 10.4274 113.488 10.0308C111.42 9.4257 110.023 12.253 111.757 13.5248C112.775 14.2701 114.468 14.5881 116.871 13.6377C121.388 11.853 117.72 10.0342 116.906 12.2975C116.402 13.6992 117.685 14.6804 119.378 14.6804C121.071 14.6804 123.468 13.053 123.468 13.053" stroke="black" stroke-width="0.414511" stroke-linecap="round" stroke-linejoin="round"/>
<path d="M137.644 55.3813L132.747 65.0702L125.237 64.1301L137.644 55.3813Z" fill="black" stroke="black" stroke-width="0.414511" stroke-linecap="round" stroke-linejoin="round"/>
<path d="M127.088 94.2156C122.388 100.848 117.016 106.817 110.609 111.563C92.9158 122.975 68.802 117.351 68.802 117.351" stroke="black" stroke-width="0.414511" stroke-linecap="round" stroke-linejoin="round"/>
<path d="M62.7124 113.371C63.4365 105.713 72.6607 107.145 76.6159 108.14C95.0676 113.846 101.206 125.34 138.488 117.99C198.506 104.188 239.43 20.7693 194.83 14.677C194.619 14.6497 194.412 14.6223 194.206 14.595" stroke="black" stroke-width="0.414511" stroke-linecap="round" stroke-linejoin="round"/>
<path d="M184.188 132.144C186.852 132.144 189.012 130.002 189.012 127.361C189.012 124.719 186.852 122.578 184.188 122.578C181.524 122.578 179.364 124.719 179.364 127.361C179.364 130.002 181.524 132.144 184.188 132.144Z" fill="white" stroke="black" stroke-width="0.414511" stroke-linecap="round" stroke-linejoin="round"/>
<path d="M181.267 123.74C181.267 123.74 181.681 129.959 185.712 131.898C184.133 132.517 180.974 132.103 179.936 129.549C178.898 126.995 180.019 125.06 181.267 123.74Z" fill="black" stroke="black" stroke-width="0.414511" stroke-linecap="round" stroke-linejoin="round"/>
<path d="M155.785 120.588C159.785 118.824 163.82 116.663 167.796 114.021" stroke="black" stroke-width="0.414511" stroke-linecap="round" stroke-linejoin="round"/>
<path d="M108.913 127.361C108.913 127.361 128.547 130.694 150.671 122.643" stroke="black" stroke-width="0.414511" stroke-linecap="round" stroke-linejoin="round"/>
</svg>
