<svg xmlns="http://www.w3.org/2000/svg" xmlns:xlink="http://www.w3.org/1999/xlink" viewBox="0 0 735.24 668.08"><defs><style>.cls-1,.cls-14,.cls-19,.cls-20,.cls-21,.cls-22,.cls-9{fill:none;}.cls-2{isolation:isolate;}.cls-3{fill:#00684a;}.cls-12,.cls-4{fill:#001e2b;}.cls-11,.cls-12,.cls-14,.cls-16,.cls-17,.cls-19,.cls-20,.cls-4,.cls-5,.cls-9{stroke:#001e2b;}.cls-12,.cls-16,.cls-17,.cls-19,.cls-20,.cls-21,.cls-22,.cls-4,.cls-5,.cls-9{stroke-miterlimit:10;}.cls-4{stroke-width:0;}.cls-11,.cls-5,.cls-8{fill:#fff;}.cls-17,.cls-6{fill:#00ed64;}.cls-7{clip-path:url(#clip-path);}.cls-10{clip-path:url(#clip-path-3);}.cls-11,.cls-14{stroke-linecap:round;stroke-linejoin:round;}.cls-13{clip-path:url(#clip-path-4);}.cls-15{clip-path:url(#clip-path-5);}.cls-16,.cls-18{fill:#b1ff05;}.cls-18{mix-blend-mode:multiply;}.cls-19{stroke-dasharray:2 2;}.cls-20{stroke-dasharray:2.01 2.01;}.cls-21,.cls-22{stroke:#b1ff05;}.cls-22{stroke-dasharray:1.99 1.99;}</style><clipPath id="clip-path" transform="translate(37.63)"><rect class="cls-1" x="260.63" y="171.19" width="223.7" height="325.18"/></clipPath><clipPath id="clip-path-3" transform="translate(37.63)"><path class="cls-1" d="M464.82,609.64l-228.7,71.62C219.52,681.26,114,578.32,114,561.73L228.81,159.05A30.06,30.06,0,0,1,258.86,129h206a30.05,30.05,0,0,1,30.05,30.05V579.59A30,30,0,0,1,464.82,609.64Z"/></clipPath><clipPath id="clip-path-4" transform="translate(37.63)"><path class="cls-1" d="M296.24,620.93c20.94-15.17,99.49-69.27,169.65-117.41l-48.41-74.4c-52.38,46.56-110.7,97-131.64,110.17-3.78,2.36-7.4,2.89-13.95-.81C276.21,553.37,287.61,592.47,296.24,620.93Z"/></clipPath><clipPath id="clip-path-5" transform="translate(37.63)"><circle class="cls-1" cx="73.82" cy="344.39" r="72.57"/></clipPath></defs><g class="cls-2"><g id="Layer_2" data-name="Layer 2"><g id="Layer_1-2" data-name="Layer 1"><path class="cls-3" d="M608.58,160.46l-1.07,293.66a69.81,69.81,0,0,1-70.06,69.55h-4.84a69.81,69.81,0,0,0-70.06,70.57l0,3.28a69.81,69.81,0,0,1-69.81,70.57h-3.65a69.82,69.82,0,0,1-69.81-70.19l.81-148.06a69.81,69.81,0,0,0-69.68-70.19l-75-.14A144.55,144.55,0,0,1,31.15,235h0A144.55,144.55,0,0,1,175.7,90.4H538.77A69.81,69.81,0,0,1,608.58,160.46Z" transform="translate(37.63)"/><path class="cls-4" d="M511.59,138.71a30.18,30.18,0,0,0-6.39-5.81,29.88,29.88,0,0,0-16.8-5.13h-206a30,30,0,0,0-30.05,30.05V578.36a30.05,30.05,0,0,0,30.05,30h206a30,30,0,0,0,23.19-10.93,30,30,0,0,0,5.92-11.61c.12-.48.23-1,.33-1.45a30.23,30.23,0,0,0,.61-6.06h0V157.82h0A29.89,29.89,0,0,0,511.59,138.71Z" transform="translate(37.63)"/><circle class="cls-5" cx="611.83" cy="470.17" r="18.24"/><path class="cls-4" d="M559.83,481.4s24.17-1.62,31.62-17.15c2.47,6.1.87,18.18-9.07,22.22S564.93,486.26,559.83,481.4Z" transform="translate(37.63)"/><rect class="cls-6" x="277.16" y="127.77" width="266.06" height="480.64" rx="30.05"/><rect class="cls-6" x="277.16" y="127.77" width="266.06" height="480.64" rx="30.05"/><rect class="cls-6" x="287.16" y="137.77" width="246.06" height="460.64" rx="20.05"/><rect class="cls-6" x="287.16" y="137.77" width="246.06" height="460.64" rx="20.05"/><g class="cls-7"><line class="cls-6" x1="78.8" y1="317.94" x2="433.47" y2="15.21"/><line class="cls-6" x1="78.8" y1="317.94" x2="433.47" y2="15.21"/><line class="cls-6" x1="115.05" y1="354.2" x2="469.73" y2="51.47"/><line class="cls-6" x1="115.05" y1="354.2" x2="469.73" y2="51.47"/><line class="cls-6" x1="151.31" y1="390.46" x2="505.99" y2="87.73"/><line class="cls-6" x1="151.31" y1="390.46" x2="505.99" y2="87.73"/><line class="cls-6" x1="187.57" y1="426.72" x2="542.24" y2="123.99"/><line class="cls-6" x1="187.57" y1="426.72" x2="542.24" y2="123.99"/><line class="cls-6" x1="223.83" y1="462.98" x2="578.5" y2="160.25"/><line class="cls-6" x1="223.83" y1="462.98" x2="578.5" y2="160.25"/><line class="cls-6" x1="260.09" y1="499.24" x2="614.76" y2="196.5"/><line class="cls-6" x1="260.09" y1="499.24" x2="614.76" y2="196.5"/><line class="cls-6" x1="296.35" y1="535.5" x2="651.02" y2="232.76"/><line class="cls-6" x1="296.35" y1="535.5" x2="651.02" y2="232.76"/><line class="cls-6" x1="332.61" y1="571.76" x2="687.28" y2="269.02"/><line class="cls-6" x1="332.61" y1="571.76" x2="687.28" y2="269.02"/><line class="cls-6" x1="368.87" y1="608.02" x2="723.54" y2="305.28"/><line class="cls-6" x1="368.87" y1="608.02" x2="723.54" y2="305.28"/></g><path class="cls-6" d="M239.52,578.36a30.05,30.05,0,0,0,30,30h206a30,30,0,0,0,30.05-30V512H239.52Z" transform="translate(37.63)"/><path class="cls-6" d="M239.52,578.36a30.05,30.05,0,0,0,30,30h206a30,30,0,0,0,30.05-30V512H239.52Z" transform="translate(37.63)"/><path class="cls-6" d="M505.58,157.82a30,30,0,0,0-30.05-30h-206a30.05,30.05,0,0,0-30,30.05v2.68H505.58Z" transform="translate(37.63)"/><path class="cls-6" d="M505.58,157.82a30,30,0,0,0-30.05-30h-206a30.05,30.05,0,0,0-30,30.05v2.68H505.58Z" transform="translate(37.63)"/><path class="cls-6" d="M372.55,151.71h0a16.08,16.08,0,0,0,16.09-16.08v-7.86H356.46v7.86A16.09,16.09,0,0,0,372.55,151.71Z" transform="translate(37.63)"/><rect class="cls-8" x="277.16" y="127.77" width="266.06" height="480.64" rx="30.05"/><rect class="cls-9" x="277.16" y="127.77" width="266.06" height="480.64" rx="30.05"/><rect class="cls-6" x="287.16" y="137.77" width="246.06" height="460.64" rx="20.05"/><rect class="cls-9" x="287.16" y="137.77" width="246.06" height="460.64" rx="20.05"/><g class="cls-7"><line class="cls-8" x1="78.8" y1="317.94" x2="433.47" y2="15.21"/><line class="cls-9" x1="78.8" y1="317.94" x2="433.47" y2="15.21"/><line class="cls-8" x1="115.05" y1="354.2" x2="469.73" y2="51.47"/><line class="cls-9" x1="115.05" y1="354.2" x2="469.73" y2="51.47"/><line class="cls-8" x1="151.31" y1="390.46" x2="505.99" y2="87.73"/><line class="cls-9" x1="151.31" y1="390.46" x2="505.99" y2="87.73"/><line class="cls-8" x1="187.57" y1="426.72" x2="542.24" y2="123.99"/><line class="cls-9" x1="187.57" y1="426.72" x2="542.24" y2="123.99"/><line class="cls-8" x1="223.83" y1="462.98" x2="578.5" y2="160.25"/><line class="cls-9" x1="223.83" y1="462.98" x2="578.5" y2="160.25"/><line class="cls-8" x1="260.09" y1="499.24" x2="614.76" y2="196.5"/><line class="cls-9" x1="260.09" y1="499.24" x2="614.76" y2="196.5"/><line class="cls-8" x1="296.35" y1="535.5" x2="651.02" y2="232.76"/><line class="cls-9" x1="296.35" y1="535.5" x2="651.02" y2="232.76"/><line class="cls-8" x1="332.61" y1="571.76" x2="687.28" y2="269.02"/><line class="cls-9" x1="332.61" y1="571.76" x2="687.28" y2="269.02"/><line class="cls-8" x1="368.87" y1="608.02" x2="723.54" y2="305.28"/><line class="cls-9" x1="368.87" y1="608.02" x2="723.54" y2="305.28"/></g><path class="cls-8" d="M239.52,578.36a30.05,30.05,0,0,0,30,30h206a30,30,0,0,0,30.05-30V512H239.52Z" transform="translate(37.63)"/><path class="cls-9" d="M239.52,578.36a30.05,30.05,0,0,0,30,30h206a30,30,0,0,0,30.05-30V512H239.52Z" transform="translate(37.63)"/><path class="cls-8" d="M505.58,157.82a30,30,0,0,0-30.05-30h-206a30.05,30.05,0,0,0-30,30.05v2.68H505.58Z" transform="translate(37.63)"/><path class="cls-9" d="M505.58,157.82a30,30,0,0,0-30.05-30h-206a30.05,30.05,0,0,0-30,30.05v2.68H505.58Z" transform="translate(37.63)"/><path class="cls-4" d="M372.55,151.71h0a16.08,16.08,0,0,0,16.09-16.08v-7.86H356.46v7.86A16.09,16.09,0,0,0,372.55,151.71Z" transform="translate(37.63)"/><path class="cls-6" d="M386.61,195.56c2.74,3.82,21,110,21,110L359.19,338s-94.84,25.14-93.88,21.32-4.68-147.09-4.68-147.09Z" transform="translate(37.63)"/><g class="cls-10"><line class="cls-11" x1="264.53" y1="617.6" x2="252.81" y2="625.31"/><line class="cls-11" x1="280.71" y1="642.46" x2="268.99" y2="650.17"/><line class="cls-11" x1="230.55" y1="565.09" x2="218.83" y2="572.8"/><line class="cls-11" x1="214.69" y1="534.56" x2="202.97" y2="542.27"/><path class="cls-4" d="M496.33,512h-159c-20.68,17.32-37.73,30.85-47.17,36.77-4.08,2.56-8,3-15.56-1.76-15.85-9.9-26.91-16.73-35-21.73v53.13a30.05,30.05,0,0,0,30,30h62.35C388.64,578.8,496.33,512,496.33,512Z" transform="translate(37.63)"/><line class="cls-11" x1="203.72" y1="507.71" x2="192" y2="515.42"/><line class="cls-11" x1="197.86" y1="482.1" x2="186.14" y2="489.81"/><path class="cls-5" d="M668.42,282.67,529,333a44.61,44.61,0,0,0-15.34,9.39s-186.56,171-227.84,196.92c-4.07,2.55-8,3-15.56-1.77-67.24-42-48.54-29-84.17-54C178.32,478,170.76,472.4,163,472.84a11.19,11.19,0,0,0-9.94,14l.39,1.5a189.18,189.18,0,0,0,7.82,23.57c2.43,6,4.66,11.47,6.9,16.8a401.24,401.24,0,0,0,31.77,60.42l35.92,56.16A16.23,16.23,0,0,0,258,650.44a41,41,0,0,0,3.75-2.66c4.27-3.38,16.32-12.9,30.24-23.72C312,608.52,586.8,420.71,586.8,420.71L697,398.09C688,358.46,673.33,295.84,668.42,282.67Z" transform="translate(37.63)"/><path class="cls-12" d="M668.42,282.67,529,333a44.61,44.61,0,0,0-15.34,9.39s-186.56,171-227.84,196.92c-4.07,2.55-8,3-15.56-1.77-67.24-42-48.54-29-84.17-54C178.32,478,170.76,472.4,163,472.84a11.19,11.19,0,0,0-9.94,14l.39,1.5a189.18,189.18,0,0,0,7.82,23.57c2.43,6,4.66,11.47,6.9,16.8a401.24,401.24,0,0,0,31.77,60.42l35.92,56.16A16.23,16.23,0,0,0,258,650.44a41,41,0,0,0,3.75-2.66c4.27-3.38,16.32-12.9,30.24-23.72C312,608.52,586.8,420.71,586.8,420.71L697,398.09C688,358.46,673.33,295.84,668.42,282.67Z" transform="translate(37.63)"/><path class="cls-5" d="M296.24,620.93c20.94-15.17,99.49-69.27,169.65-117.41l-48.41-74.4c-52.38,46.56-110.7,97-131.64,110.17-3.78,2.36-7.4,2.89-13.95-.81C276.21,553.37,287.61,592.47,296.24,620.93Z" transform="translate(37.63)"/><path class="cls-5" d="M315.8,607.09a132.21,132.21,0,0,1-17-33c-6.45-19.38,2.46-23.38-2.15-31.82-1.68-3.08-4.71-4.42-7.87-4.89-1,.7-2,1.34-2.92,1.91-4.07,2.55-8,3-15.56-1.77-67.24-42-48.54-29-84.17-54C178.32,478,170.76,472.4,163,472.84a11.19,11.19,0,0,0-9.94,14l.39,1.5a189.18,189.18,0,0,0,7.82,23.57c2.43,6,4.66,11.47,6.9,16.8a401.24,401.24,0,0,0,31.77,60.42l35.92,56.16A16.23,16.23,0,0,0,258,650.44a41,41,0,0,0,3.75-2.66c4.27-3.38,16.32-12.9,30.24-23.72C295,621.77,303.46,615.72,315.8,607.09Z" transform="translate(37.63)"/><circle class="cls-4" cx="307.75" cy="591.92" r="19.57"/><path class="cls-1" d="M513.68,342.37l-196.82,184,29.51,57.75L586.8,420.71,697,398.09c-9-39.63-23.67-102.25-28.58-115.42L529,333A44.61,44.61,0,0,0,513.68,342.37Z" transform="translate(37.63)"/><path class="cls-4" d="M160.81,473.2a11.26,11.26,0,0,0-7.8,13.64l.39,1.5a189.18,189.18,0,0,0,7.82,23.57c2.43,6,4.66,11.47,6.9,16.8a401.24,401.24,0,0,0,31.77,60.42l35.92,56.16A16.23,16.23,0,0,0,258,650.44a41,41,0,0,0,3.75-2.66l2.19-1.72C251.15,631.94,201.49,573.43,160.81,473.2Z" transform="translate(37.63)"/><line class="cls-9" x1="305.36" y1="536.57" x2="293.06" y2="552.25"/><line class="cls-9" x1="293.01" y1="527.96" x2="280.71" y2="543.64"/><line class="cls-9" x1="280.02" y1="520.17" x2="268.37" y2="535.03"/><line class="cls-9" x1="267.13" y1="512.27" x2="256.03" y2="526.42"/><line class="cls-9" x1="254.26" y1="504.33" x2="243.69" y2="517.81"/><line class="cls-9" x1="241.66" y1="496.04" x2="231.35" y2="509.2"/><g class="cls-13"><line class="cls-9" x1="482.23" y1="537.77" x2="417.88" y2="438.87"/><line class="cls-9" x1="455.69" y1="563.97" x2="391.34" y2="465.08"/><line class="cls-9" x1="429.16" y1="590.17" x2="364.81" y2="491.28"/><line class="cls-9" x1="395.09" y1="609.24" x2="330.74" y2="510.34"/></g></g><circle class="cls-11" cx="625.05" cy="48.58" r="32.9"/><path class="cls-4" d="M554.77,52.58a32.9,32.9,0,0,0,65.53-5C610.18,52.75,582.93,64.1,554.77,52.58Z" transform="translate(37.63)"/><line class="cls-14" x1="607.99" y1="32.54" x2="601.6" y2="39.88"/><line class="cls-14" x1="614.84" y1="41.33" x2="607.63" y2="46.05"/><line class="cls-14" x1="619.43" y1="50.61" x2="611.51" y2="53.13"/><line class="cls-14" x1="621.57" y1="60.42" x2="613.27" y2="61.11"/><line class="cls-14" x1="620.94" y1="70.81" x2="612.08" y2="70.32"/><path class="cls-14" d="M560,33.17a30.91,30.91,0,0,1,18.34,19.55,30,30,0,0,1-2.52,24.64" transform="translate(37.63)"/><line class="cls-14" x1="630.49" y1="25.26" x2="639.93" y2="27.61"/><line class="cls-14" x1="629.92" y1="36.39" x2="638.54" y2="36.13"/><line class="cls-14" x1="631.48" y1="46.63" x2="639.41" y2="44.15"/><line class="cls-14" x1="635.36" y1="55.89" x2="642.55" y2="51.7"/><line class="cls-14" x1="641.84" y1="64.04" x2="648.81" y2="58.56"/><path class="cls-14" d="M601.72,19.83a30.87,30.87,0,0,0-3.81,26.54,30,30,0,0,0,16.2,18.73" transform="translate(37.63)"/><circle class="cls-5" cx="111.46" cy="344.45" r="73.32"/><g class="cls-15"><line class="cls-14" x1="108.36" y1="412.34" x2="112.51" y2="376.73"/><line class="cls-14" x1="51.64" y1="363.29" x2="88.53" y2="354.35"/><line class="cls-14" x1="175.78" y1="366.15" x2="137.87" y2="356.62"/><line class="cls-14" x1="149.62" y1="295.63" x2="128.96" y2="325.84"/><line class="cls-14" x1="95.07" y1="322.61" x2="73.65" y2="291.13"/><polygon class="cls-16" points="134.66 444.78 88.74 452.57 77.77 418.47 109.29 405.2 139.37 417.62 134.66 444.78"/><polygon class="cls-16" points="48.6 393.6 15.13 392.79 0.64 353.6 33.1 341.69 53.08 362.83 48.6 393.6"/><polygon class="cls-16" points="196.41 402.14 219.97 361.96 191.97 339.62 168.39 364.39 169.35 396.92 196.41 402.14"/><polygon class="cls-16" points="179.04 303.53 190.15 271.95 158.63 244.51 135.99 270.65 148.69 296.82 179.04 303.53"/><polygon class="cls-16" points="78.22 297.84 46.51 299.58 37.63 268.51 65.18 249.49 91.09 268.8 78.22 297.84"/><polygon class="cls-16" points="91.02 315.54 76.33 357.31 111.52 384.19 147.95 359.03 135.28 316.6 91.02 315.54"/></g><path class="cls-4" d="M73,394.25c-29.88,0-56.12-14.36-71.22-36A73.31,73.31,0,0,0,146.37,355C131.69,378.46,104.36,394.25,73,394.25Z" transform="translate(37.63)"/><polygon class="cls-4" points="406.48 310.15 409.25 301.08 403.01 296.33 406.19 288.83 400.08 284.61 403.26 277.13 396.98 272.2 400.38 265.63 394.19 261.06 397.73 255.05 391.44 250.11 394.85 243.54 388.56 238.61 391.62 230.62 385.11 224.8 374 227.58 268.25 252.88 278.11 341.11 395.37 312.93 406.48 310.15"/><polygon class="cls-5" points="407.45 228.06 411.37 220.47 405.55 213.95 394.2 215.48 251.79 234.68 240.45 236.21 236.56 244.03 242.35 250.32 238.34 257.23 243.93 262.07 239.92 268.99 245.44 273.26 241.38 279.79 246.97 284.64 242.96 291.55 248.68 297.32 244.57 303.49 250.3 309.29 246.26 316.01 252.2 323.41 263.55 321.88 405.96 302.69 417.3 301.15 421.07 292.44 415.4 287.03 419.38 279.93 413.79 275.06 417.77 267.99 412.08 262.38 416.19 256.23 410.54 251.01 414.73 245.42 409.03 239.82 413.15 233.67 407.45 228.06"/><polygon class="cls-17" points="298.05 228.44 251.79 234.68 240.45 236.21 236.56 244.03 242.35 250.32 238.34 257.23 243.93 262.07 239.92 268.99 245.44 273.26 241.38 279.79 246.97 284.64 242.96 291.55 248.68 297.32 244.57 303.49 250.3 309.29 246.26 316.01 252.2 323.41 263.55 321.88 309.81 315.64 298.05 228.44"/><line class="cls-9" x1="392.51" y1="235.68" x2="313.07" y2="246.39"/><line class="cls-9" x1="394.66" y1="251.67" x2="315.23" y2="262.38"/><line class="cls-9" x1="396.82" y1="267.66" x2="317.39" y2="278.37"/><line class="cls-9" x1="398.97" y1="283.65" x2="319.54" y2="294.36"/><path class="cls-5" d="M136.81,8.5l15.66,147.63s32.28,4.28,133.87-51.27C331.44,83,397.43,54.07,470.06,64.51c-19.94-10.44-57.92-31.8-160.46-29.43S153.42,17,136.81,8.5Z" transform="translate(37.63)"/><path class="cls-18" d="M269.81,113.7c5.3-2.77,10.8-5.7,16.53-8.84C331.44,83,397.43,54.07,470.06,64.51c-19.94-10.44-57.92-31.8-160.46-29.43-14.44.33-27.92.22-40.46-.26C275.8,55.36,280,83.55,269.81,113.7Z" transform="translate(37.63)"/><path class="cls-4" d="M148.83,13.82c-5.16-2-9.93-4.19-12.81-5.67l16.45,148s3.54.47,11.93-.91Z" transform="translate(37.63)"/><line class="cls-5" x1="172.57" y1="0.05" x2="219.48" y2="427.85"/><polygon class="cls-6" points="398.97 437.14 321.51 437.14 321.51 383.46 413.74 368.09 398.97 437.14"/><path class="cls-5" d="M358.26,390.08s0-.05,0-.06c-1.36-5.32-14.91-6.44-30.28-2.52s-26.72,11.41-25.36,16.72c0,0,0,0,0,.06s0,0,0,.06,0,0,0,.05,0,0,0,.06,0,0,0,.06,0,0,0,.06,0,0,0,.05a.13.13,0,0,0,0,.06.14.14,0,0,0,0,.06.13.13,0,0,0,0,.06.08.08,0,0,0,0,.05s0,0,0,.06a.14.14,0,0,0,0,.06.13.13,0,0,0,0,.06.14.14,0,0,0,0,.06v.06l0,.05v.06l0,.06v.06l0,.05v.06l0,.06v.06l0,.05v.06l0,.06v.06a.14.14,0,0,1,0,.06.13.13,0,0,1,0,.06.08.08,0,0,1,0,.05.13.13,0,0,1,0,.06.14.14,0,0,1,0,.06.13.13,0,0,1,0,.06s0,0,0,.05,0,0,0,.06,0,0,0,.06,0,0,0,.06,0,0,0,.05,0,0,0,.06,0,0,0,.06,0,0,0,.06,0,0,0,.05,0,.05,0,.06,0,0,0,.06,0,0,0,.06,0,0,0,.06,0,0,0,.06,0,0,0,.05a.13.13,0,0,0,0,.06.14.14,0,0,0,0,.06.13.13,0,0,0,0,.06s0,0,0,0a.13.13,0,0,0,0,.06.14.14,0,0,0,0,.06v.06l0,.05v.06l0,.06v.06l0,.06v.06l0,.05v.06l0,.06V408l0,0v.06l0,.06v.06s0,0,0,.05a.13.13,0,0,1,0,.06.14.14,0,0,1,0,.06.13.13,0,0,1,0,.06.14.14,0,0,1,0,.06s0,0,0,.06a.08.08,0,0,1,0,.05s0,0,0,.06,0,0,0,.06,0,0,0,.06,0,0,0,0,0,0,0,.06,0,0,0,.06,0,0,0,.06,0,0,0,.05,0,0,0,.06,0,0,0,.06,0,0,0,.06,0,0,0,.05,0,0,0,.06a.14.14,0,0,0,0,.06.13.13,0,0,0,0,.06.14.14,0,0,0,0,.06.13.13,0,0,0,0,.06s0,0,0,0a.13.13,0,0,0,0,.06.14.14,0,0,0,0,.06v.06l0,.05V410l0,.06v.06l0,.05v.06l0,.06v.06l0,.06v0l0,.06v.06l0,.06v.06s0,0,0,.05a.13.13,0,0,1,0,.06.14.14,0,0,1,0,.06.13.13,0,0,1,0,.06s0,0,0,.05a.13.13,0,0,1,0,.06.14.14,0,0,1,0,.06s0,0,0,.06,0,0,0,0,0,0,0,.06,0,0,0,.06,0,0,0,.06,0,0,0,.06,0,0,0,.06,0,0,0,.05,0,0,0,.06,0,0,0,.06,0,0,0,.06,0,0,0,.05a.13.13,0,0,0,0,.06.14.14,0,0,0,0,.06.13.13,0,0,0,0,.06s0,0,0,0a.13.13,0,0,0,0,.06.14.14,0,0,0,0,.06.13.13,0,0,0,0,.06.08.08,0,0,0,0,.05v.06l0,.06v.06l0,.06v.06l0,.05v.06l0,.06v.06l0,.05v.06l0,.06V413l0,.05v.06a.14.14,0,0,1,0,.06.13.13,0,0,1,0,.06.14.14,0,0,1,0,.06.13.13,0,0,1,0,.06.08.08,0,0,1,0,.05s0,0,0,.06,0,0,0,.06,0,0,0,.06,0,0,0,.05,0,0,0,.06,0,0,0,.06,0,0,0,.06,0,0,0,.05,0,0,0,.06,0,0,0,.06,0,0,0,.06,0,0,0,.05,0,0,0,.06a.14.14,0,0,0,0,.06.13.13,0,0,0,0,.06.14.14,0,0,0,0,.06.13.13,0,0,0,0,.06s0,0,0,.05a.13.13,0,0,0,0,.06.14.14,0,0,0,0,.06.13.13,0,0,0,0,.06s0,0,0,.05v.06l0,.06v.06l0,.05V415l0,.06v.06l0,.06v.06l0,.05v.06l0,.06v.06s0,0,0,.05a.13.13,0,0,1,0,.06.14.14,0,0,1,0,.06.13.13,0,0,1,0,.06s0,0,0,.05a.13.13,0,0,1,0,.06.14.14,0,0,1,0,.06s0,0,0,.06c1.36,5.31,14.91,6.44,30.28,2.51s26.72-11.41,25.36-16.72c0,0,0,0,0-.05s0,0,0-.06,0,0,0-.06,0,0,0-.06,0,0,0,0a.13.13,0,0,0,0-.06.14.14,0,0,0,0-.06.13.13,0,0,0,0-.06.08.08,0,0,0,0-.05s0-.05,0-.06a.14.14,0,0,0,0-.06.13.13,0,0,0,0-.06.14.14,0,0,0,0-.06v-.06l0-.05v-.06l0-.06v-.06l0,0v-.06l0-.06v-.06l0-.05v-.06l0-.06v-.06a.14.14,0,0,1,0-.06s0,0,0-.06a.08.08,0,0,1,0-.05.13.13,0,0,1,0-.06.14.14,0,0,1,0-.06.13.13,0,0,1,0-.06s0,0,0,0,0,0,0-.06,0,0,0-.06,0,0,0-.06,0,0,0-.05,0,0,0-.06,0,0,0-.06,0,0,0-.06,0,0,0-.05,0-.05,0-.06,0,0,0-.06,0,0,0-.06,0,0,0-.06,0,0,0-.06,0,0,0,0a.13.13,0,0,0,0-.06.14.14,0,0,0,0-.06.13.13,0,0,0,0-.06s0,0,0-.05a.13.13,0,0,0,0-.06.14.14,0,0,0,0-.06v-.06l0-.05v-.06l0-.06v-.06l0-.06v-.06l0-.05v-.06l0-.06V398l0-.05v-.06l0-.06v-.06s0,0,0-.05a.13.13,0,0,1,0-.06.14.14,0,0,1,0-.06.13.13,0,0,1,0-.06l0,0a.13.13,0,0,1,0-.06.14.14,0,0,1,0-.06s0,0,0-.06,0,0,0-.06,0,0,0-.06,0,0,0-.05,0,0,0-.06,0,0,0-.06,0,0,0-.06,0,0,0-.05,0,0,0-.06,0,0,0-.06,0,0,0-.06,0,0,0-.05a.13.13,0,0,0,0-.06.14.14,0,0,0,0-.06.13.13,0,0,0,0-.06.14.14,0,0,0,0-.06.15.15,0,0,0,0-.06l0-.05a.13.13,0,0,0,0-.06.14.14,0,0,0,0-.06v-.06l0-.05V396l0-.06v-.06l0-.05v-.06l0-.06v-.06l0-.05v-.06l0-.06v-.06l0-.06v-.06s0,0,0-.05a.13.13,0,0,1,0-.06.14.14,0,0,1,0-.06.13.13,0,0,1,0-.06s0,0,0-.05,0,0,0-.06,0,0,0-.06,0,0,0-.06,0,0,0-.05,0,0,0-.06,0,0,0-.06,0,0,0-.06,0,0,0-.06,0,0,0-.05,0,0,0-.06,0,0,0-.06,0,0,0-.06,0,0,0-.06,0,0,0-.05a.13.13,0,0,0,0-.06.14.14,0,0,0,0-.06.13.13,0,0,0,0-.06s0,0,0-.05a.13.13,0,0,0,0-.06.14.14,0,0,0,0-.06.13.13,0,0,0,0-.06.08.08,0,0,0,0-.05v-.06l0-.06v-.06l0-.06v-.06l0-.05v-.06l0-.06v-.06l0-.05v-.06l0-.06V393l0,0v-.06a.14.14,0,0,1,0-.06.13.13,0,0,1,0-.06.14.14,0,0,1,0-.06s0,0,0-.06a.08.08,0,0,1,0-.05s0,0,0-.06,0,0,0-.06,0,0,0-.06,0,0,0-.05,0,0,0-.06,0,0,0-.06,0,0,0-.06,0,0,0,0,0,0,0-.06,0,0,0-.06,0,0,0-.06,0,0,0-.05,0-.05,0-.06a.14.14,0,0,0,0-.06.13.13,0,0,0,0-.06.14.14,0,0,0,0-.06.13.13,0,0,0,0-.06s0,0,0-.05a.13.13,0,0,0,0-.06.14.14,0,0,0,0-.06.13.13,0,0,0,0-.06s0,0,0,0v-.06l0-.06v-.06l0-.05v-.06l0-.06v-.06l0-.06v-.06l0-.05v-.06l0-.06v-.06s0,0,0,0a.13.13,0,0,1,0-.06.14.14,0,0,1,0-.06.13.13,0,0,1,0-.06s0,0,0-.05a.13.13,0,0,1,0-.06.14.14,0,0,1,0-.06s0,0,0-.06S358.26,390.09,358.26,390.08Z" transform="translate(37.63)"/><path class="cls-4" d="M361.21,401.64s0,0,0-.06,0,0,0-.06,0,0,0-.06,0,0,0,0a.13.13,0,0,0,0-.06.14.14,0,0,0,0-.06.13.13,0,0,0,0-.06.08.08,0,0,0,0-.05s0-.05,0-.06a.14.14,0,0,0,0-.06V401l0-.06v-.06l0-.05v-.06l0-.06v-.06l0,0v-.06l0-.06v-.06l0-.05v-.06l0-.06v-.06a.14.14,0,0,1,0-.06s0,0,0-.06a.08.08,0,0,1,0-.05.13.13,0,0,1,0-.06.14.14,0,0,1,0-.06.13.13,0,0,1,0-.06s0,0,0,0,0,0,0-.06,0,0,0-.06,0,0,0-.06,0,0,0-.05,0,0,0-.06,0,0,0-.06,0,0,0-.06,0,0,0-.05,0-.05,0-.06,0,0,0-.06,0,0,0-.06,0,0,0-.06,0,0,0-.06,0,0,0,0a.13.13,0,0,0,0-.06.14.14,0,0,0,0-.06.13.13,0,0,0,0-.06s0,0,0-.05a.13.13,0,0,0,0-.06.14.14,0,0,0,0-.06v-.06l0-.05v-.06l0-.06v-.06l0-.06v-.06l0-.05v-.06l0-.06V398l0-.05v-.06l0-.06v-.06s0,0,0-.05a.13.13,0,0,1,0-.06.14.14,0,0,1,0-.06.13.13,0,0,1,0-.06l0,0a.13.13,0,0,1,0-.06.14.14,0,0,1,0-.06s0,0,0-.06,0,0,0-.06,0,0,0-.06,0,0,0-.05,0,0,0-.06,0,0,0-.06,0,0,0-.06,0,0,0-.05,0,0,0-.06,0,0,0-.06,0,0,0-.06,0,0,0-.05a.13.13,0,0,0,0-.06.14.14,0,0,0,0-.06.13.13,0,0,0,0-.06.14.14,0,0,0,0-.06s0,0,0-.05a.14.14,0,0,0,0-.06.13.13,0,0,0,0-.06.14.14,0,0,0,0-.06v-.06l0-.05V396l0-.06v-.06l0-.05v-.06l0-.06v-.06l0-.05v-.06l0-.06v-.06l0-.06v-.06s0,0,0-.05a.13.13,0,0,1,0-.06.14.14,0,0,1,0-.06.13.13,0,0,1,0-.06s0,0,0-.05,0,0,0-.06,0,0,0-.06,0,0,0-.06,0,0,0-.05,0,0,0-.06,0,0,0-.06,0,0,0-.06,0,0,0-.06,0,0,0-.06,0,0,0,0,0,0,0-.06,0,0,0-.06,0,0,0-.06,0,0,0-.05a.13.13,0,0,0,0-.06.14.14,0,0,0,0-.06.13.13,0,0,0,0-.06s0,0,0-.05a.13.13,0,0,0,0-.06.14.14,0,0,0,0-.06.13.13,0,0,0,0-.06.08.08,0,0,0,0-.05v-.06l0-.06v-.06l0-.06v-.06l0-.05v-.06l0-.06v-.06l0-.05v-.06l0-.06V393s0,0,0,0a.13.13,0,0,1,0-.06.14.14,0,0,1,0-.06.13.13,0,0,1,0-.06.14.14,0,0,1,0-.06.13.13,0,0,1,0-.06.08.08,0,0,1,0-.05s0,0,0-.06,0,0,0-.06,0,0,0-.06,0,0,0-.05,0,0,0-.06,0,0,0-.06,0,0,0-.06,0,0,0,0,0,0,0-.06,0,0,0-.06,0,0,0-.06,0,0,0-.05,0-.05,0-.06a.14.14,0,0,0,0-.06.13.13,0,0,0,0-.06.14.14,0,0,0,0-.06.13.13,0,0,0,0-.06s0,0,0-.05a.13.13,0,0,0,0-.06.14.14,0,0,0,0-.06.13.13,0,0,0,0-.06s0,0,0,0v-.06l0-.06v-.06l0-.05v-.06l0-.06v-.06l0-.06v-.06l0-.05v-.06l0-.06v-.06s0,0,0,0a.13.13,0,0,1,0-.06.14.14,0,0,1,0-.06.13.13,0,0,1,0-.06s0,0,0-.05a.13.13,0,0,1,0-.06.14.14,0,0,1,0-.06s0,0,0-.06,0,0,0-.05,0,0,0-.06c-1.34-5.27-14.66-6.42-29.85-2.62V420c2.4-.37,4.91-.88,7.47-1.54,15.36-3.92,26.72-11.41,25.36-16.72C361.23,401.67,361.21,401.66,361.21,401.64Z" transform="translate(37.63)"/><ellipse class="cls-5" cx="330.43" cy="397.12" rx="28.71" ry="9.93" transform="translate(-50.33 94.08) rotate(-14.32)"/><path class="cls-9" d="M44.13,432.43s0,.35,0,1" transform="translate(37.63)"/><path class="cls-19" d="M44.24,435.42c1,18.5,11.14,117,111.75,129.34" transform="translate(37.63)"/><path class="cls-9" d="M157,564.88l1,.11" transform="translate(37.63)"/><path class="cls-9" d="M73,449.36l.21,1" transform="translate(37.63)"/><path class="cls-20" d="M73.6,452.29c5.86,26.2,22.48,66.17,69.59,79.6" transform="translate(37.63)"/><path class="cls-9" d="M144.16,532.17l1,.26" transform="translate(37.63)"/><path class="cls-21" d="M552.48,298.4l.82.56" transform="translate(37.63)"/><path class="cls-22" d="M554.9,300.14c19.2,14.77,22.45,42.56,2.28,69.93h0c-22.88,30.42-18.83,56.2-4,68.66" transform="translate(37.63)"/><path class="cls-21" d="M553.91,439.36l.79.61" transform="translate(37.63)"/><path class="cls-12" d="M298.39,146.14c10.12-5.85,21.34-12.18,33.53-18.37H269.57A30,30,0,0,0,244.66,141c-.54.8-1,1.63-1.51,2.48a29.93,29.93,0,0,0-3.63,14.32v23.11C255.77,172.4,275.24,161.11,298.39,146.14Z" transform="translate(37.63)"/></g></g></g></svg>