<!-- Copy of the Connect icon from LG as of 4/4/2022 -->
<svg width="16" height="16" xmlns="http://www.w3.org/2000/svg" fill="#889397" viewBox="0 0 16 16" class="leafygreen-ui-1gvnm9k" role="img" aria-label="Connect Icon"><path fill-rule="evenodd" clip-rule="evenodd" d="M12.867 8.898a4.048 4.048 0 00.687-4.8l1.275-1.275a.584.584 0 000-.826l-.826-.826a.584.584 0 00-.826 0l-1.29 1.29a4.048 4.048 0 00-4.734.722L5.277 5.058a.323.323 0 00-.041.035L3.182 7.148a4.048 4.048 0 00-.72 4.738l-1.29 1.29a.584.584 0 000 .827l.825.826a.584.584 0 00.826 0l1.278-1.278a4.048 4.048 0 004.795-.689l1.876-1.875a.324.324 0 00.041-.035l2.054-2.054zM6.561 6.776L4.685 8.65a1.916 1.916 0 000 2.707c.747.746 1.961.747 2.707 0l2.055-2.054a.321.321 0 01.04-.035l1.877-1.875a1.916 1.916 0 000-2.707 1.916 1.916 0 00-2.707 0L6.602 6.74a.32.32 0 01-.04.035z"></path></svg>