<?xml version="1.0" encoding="UTF-8"?>
<svg width="16px" height="16px" viewBox="0 0 16 16" version="1.1" xmlns="http://www.w3.org/2000/svg" xmlns:xlink="http://www.w3.org/1999/xlink">
    <!-- Generator: Sketch 54 (76480) - https://sketchapp.com -->
    <title>Lock</title>
    <desc>Created with Sketch.</desc>
    <g id="Lock-Copy" stroke="none" stroke-width="1" fill="none" fill-rule="evenodd">
        <path d="M12,7 L14,7 L14,9 L4,9 L4,13 L12,13 L12,12 L14,12 L14,15 L2,15 L2,7 L4,7 L4,5 C4,2.796875 5.796875,1 8,1 C10.203125,1 12,2.796875 12,5 L12,7 Z M10,7 L10,5 C10,3.8984375 9.1015625,3 8,3 C6.8984375,3 6,3.8984375 6,5 L6,7 L10,7 Z M12,11 L12,10 L14,10 L14,11 L12,11 Z" id="" fill="#000000"></path>
    </g>
</svg>