<svg width="696" height="468" viewBox="0 0 696 468" fill="none" xmlns="http://www.w3.org/2000/svg">
<g clip-path="url(#clip0_4697_35467)">
<path d="M196.982 181.387L436.158 207.546C438.258 207.777 440.23 208.667 441.792 210.089C443.354 211.511 444.425 213.391 444.851 215.459L486.517 362.67L577.194 372.452L575.485 388.249L328.096 361.561L230.955 351.079L226.359 334.603L191.677 187.222C191.523 186.469 191.549 185.691 191.753 184.95C191.957 184.209 192.332 183.527 192.849 182.958C193.366 182.39 194.01 181.951 194.728 181.678C195.446 181.405 196.218 181.305 196.982 181.387Z" fill="black" stroke="black" stroke-linejoin="round"/>
<path d="M362.428 296.364L331.963 290.209C328.758 289.563 325.45 289.625 322.271 290.389C317.095 291.628 309.591 293.616 308.742 294.865C308.282 295.564 309.052 301.24 324.429 298.922C326.162 298.664 327.93 298.78 329.615 299.261C340.306 302.259 351.417 306.495 351.417 306.495L362.428 296.364Z" fill="white" stroke="black" stroke-miterlimit="10"/>
<path d="M572.518 355.885L573.317 355.945L572.168 371.792L547.768 370.024L572.518 355.885Z" fill="black" stroke="black" stroke-miterlimit="10"/>
<path d="M352.266 303.078L331.114 308.074C328.74 308.664 326.563 309.867 324.799 311.561C320.662 315.558 312.209 321.433 313.318 324.011C314.827 327.458 326.138 321.723 332.303 318.785C333.993 317.785 335.812 317.018 337.708 316.507C346.701 314.879 356.563 313.41 356.563 313.41" fill="white"/>
<path d="M352.266 303.078L331.114 308.074C328.74 308.664 326.563 309.867 324.799 311.561C320.662 315.558 312.209 321.433 313.318 324.011C314.827 327.458 326.138 321.723 332.303 318.785C333.993 317.785 335.812 317.018 337.708 316.507C346.701 314.879 356.563 313.41 356.563 313.41" stroke="black" stroke-linecap="round" stroke-linejoin="round"/>
<path d="M351.677 314.179L339.078 316.278C337.459 316.427 335.581 317.477 333.342 319.645C331.614 321.323 325.299 331.995 330.615 331.955C331.904 331.955 335.121 329.237 337.509 327.059C338.434 326.21 339.536 325.577 340.735 325.205C341.934 324.834 343.201 324.733 344.443 324.91C348.22 325.45 353.996 325.96 360.141 327.199" fill="white"/>
<path d="M351.677 314.179L339.078 316.278C337.459 316.427 335.581 317.477 333.342 319.645C331.614 321.323 325.299 331.995 330.615 331.955C331.904 331.955 335.121 329.237 337.509 327.059C338.434 326.21 339.536 325.577 340.735 325.205C341.934 324.834 343.201 324.733 344.443 324.91C348.22 325.45 353.996 325.96 360.141 327.199" stroke="black" stroke-linecap="round" stroke-linejoin="round"/>
<path d="M186.661 178.31L433.72 196.295C435.832 196.447 437.84 197.265 439.456 198.631C441.072 199.998 442.213 201.842 442.713 203.899L482.391 349.401L221.403 330.416L181.595 184.335C181.413 183.59 181.408 182.812 181.583 182.065C181.757 181.319 182.105 180.623 182.599 180.036C183.093 179.449 183.718 178.987 184.423 178.687C185.129 178.387 185.896 178.258 186.661 178.31Z" fill="white" stroke="black" stroke-miterlimit="10"/>
<path d="M433.9 218.407L214.928 202.51L247.971 323.422L464.135 335.931L433.9 218.407Z" fill="#FFE212"/>
<path d="M226.549 346.703L338.508 354.836L339.657 338.989L221.373 330.396L226.549 346.703Z" fill="white" stroke="black" stroke-linejoin="round"/>
<path d="M323.985 353.804L572.16 371.811L573.31 355.966L325.134 337.959L323.985 353.804Z" fill="white" stroke="black" stroke-miterlimit="10"/>
<path d="M483.7 349.451L543.252 369.704L482.961 365.328C482.961 365.328 384.041 343.985 379.595 341.887L483.7 349.451Z" fill="black" stroke="black" stroke-miterlimit="10"/>
<path d="M236.241 331.475L198.961 192.588L444.482 210.413" stroke="black" stroke-linecap="round" stroke-linejoin="round"/>
<path d="M363.657 308.713C365.251 306.54 367.383 304.819 369.842 303.718L370.912 303.428L379.904 308.554L377.776 309.483C375.927 310.312 371.781 313.979 370.582 315.618C354.924 337.21 349.209 337.78 347.071 337.6C338.558 336.971 357.273 316.127 363.657 308.713Z" fill="black" stroke="black" stroke-miterlimit="10"/>
<path d="M346.111 312.81C348.758 310.119 351.878 307.938 355.314 306.375L357.902 305.376L362.768 314.169L360.11 315.008C358.182 315.648 353.695 318.885 352.336 320.384C340.985 332.924 336.349 341.207 326.697 339.858C318.823 338.789 338.997 319.495 346.111 312.81Z" fill="black" stroke="black" stroke-miterlimit="10"/>
<path d="M392.574 323.172C392.955 323.415 393.271 323.749 393.492 324.143C393.713 324.538 393.833 324.981 393.841 325.434C393.849 325.886 393.744 326.333 393.537 326.735C393.33 327.138 393.026 327.482 392.654 327.738C388.817 330.396 384.09 330.286 376.037 339.728C368.763 348.222 364.346 338.23 368.533 332.464C372.72 326.699 377.526 325.1 380.903 320.874C383.371 317.806 389.186 321.024 392.574 323.172Z" fill="black" stroke="black" stroke-miterlimit="10"/>
<path d="M341.925 306.755C343.712 304.975 345.666 303.373 347.761 301.969L357.752 308.374L356.194 308.893C354.245 309.553 349.839 313.03 348.33 314.439C334.921 326.969 328.796 335.472 322.431 334.533C313.049 333.134 334.761 313.67 341.925 306.755Z" fill="#FFC010" stroke="black" stroke-miterlimit="10"/>
<path d="M494.801 303.818C507.051 305.376 514.675 310.382 523.388 314.629L628.842 374.17L647.827 319.705L516.393 283.884L511.477 283.044L505.802 281.905C503.803 281.536 506.251 282.905 505.272 284.693L494.801 303.818Z" fill="#FFC010" stroke="black" stroke-miterlimit="10"/>
<path d="M655.501 327.049V327.478C655.501 328.308 655.501 329.137 655.501 329.966C655.511 330.083 655.511 330.2 655.501 330.316C655.501 331.155 655.501 332.005 655.411 332.834C655.416 332.91 655.416 332.987 655.411 333.064C655.411 333.873 655.321 334.682 655.251 335.492V335.552C655.251 335.981 655.181 336.401 655.141 336.831C655.141 336.931 655.141 337.02 655.141 337.13L655.081 337.78C655.001 338.679 654.911 339.558 654.781 340.448C654.711 341.057 654.621 341.657 654.541 342.266C652.59 356.102 647.87 369.403 640.663 381.374L614.894 366.387L601.375 358.553L601.085 358.383L552.504 330.196L551.585 329.666L582.39 302.079L595.379 305.706H595.489L639.913 318.056L647.697 320.214L655.411 322.362C655.411 322.642 655.411 322.912 655.411 323.202C655.411 323.491 655.411 323.761 655.411 324.041V324.451C655.501 325.36 655.501 326.199 655.501 327.049Z" fill="black" stroke="black" stroke-linecap="round" stroke-linejoin="round"/>
<path d="M482.521 271.054C484.294 269.813 486.361 269.055 488.516 268.856L489.405 268.906L494.961 275.091L493.112 275.251C490.639 275.804 488.275 276.767 486.118 278.098C468.652 290.518 464.196 289.499 462.657 288.83C456.292 286.152 475.796 275.071 482.521 271.054Z" fill="black" stroke="black" stroke-miterlimit="10"/>
<path d="M472.718 265.589C475.986 263.94 479.842 263.98 483.48 264.36L486.117 264.739L486.197 274.431C485.325 274.252 484.445 274.082 483.559 273.922C481.641 273.572 476.345 274.252 474.497 274.921C459.119 280.327 450.516 282.695 443.822 279.647C433.55 274.981 458.72 272.663 472.718 265.589Z" fill="black" stroke="black" stroke-miterlimit="10"/>
<path d="M472.589 259.993C474.987 259.164 476.026 261.092 478.524 261.312L484.07 271.014L482.531 270.465C480.583 269.785 474.977 269.815 472.919 270.005C454.634 271.624 444.712 273.302 440.135 269.895C432.492 264.19 455.923 265.848 472.589 259.993Z" fill="#FFC010" stroke="black" stroke-miterlimit="10"/>
<path d="M457.661 271.384C457.661 271.384 469.352 267.277 465.085 260.393C466.984 258.774 464.426 259.993 464.426 259.993L476.496 267.367C476.496 267.367 476.945 272.643 474.767 272.573C472.589 272.503 457.661 271.384 457.661 271.384Z" fill="black" stroke="black" stroke-miterlimit="10"/>
<path d="M501.166 303.817C501.166 303.817 491.024 308.414 472.329 297.043C466.074 293.236 465.704 293.146 463.107 292.117C456.892 289.649 449.997 290.788 449.398 286.971C449.198 285.752 450.807 284.023 452.815 283.354C459.719 281.066 463.047 281.935 478.254 287.681C484.649 288.63 474.627 271.174 465.085 263.15C455.543 255.127 447.1 254.358 438.646 250.511C432.901 247.883 424.568 238.52 449.637 245.065C451.886 245.655 455.353 246.564 459.35 247.953C466.277 250.279 472.873 253.493 478.974 257.515C480.812 258.754 484.499 261.702 490.834 266.398C497.444 271.361 504.373 275.884 511.577 279.937C517.245 283.086 523.257 285.574 529.493 287.351" fill="#FFC010"/>
<path d="M501.166 303.817C501.166 303.817 491.024 308.414 472.329 297.043C466.074 293.236 465.704 293.146 463.107 292.117C456.892 289.649 449.997 290.788 449.398 286.971C449.198 285.752 450.807 284.023 452.815 283.354C459.719 281.066 463.047 281.935 478.254 287.681C484.649 288.63 474.627 271.174 465.085 263.15C455.543 255.127 447.1 254.358 438.646 250.511C432.901 247.883 424.568 238.52 449.637 245.065C451.886 245.655 455.353 246.564 459.35 247.953C466.277 250.279 472.873 253.493 478.974 257.515C480.812 258.754 484.499 261.702 490.834 266.398C497.444 271.361 504.373 275.884 511.577 279.937C517.245 283.086 523.257 285.574 529.493 287.351" stroke="black" stroke-linejoin="round"/>
<path d="M655.5 327.049V327.478C655.5 328.308 655.5 329.137 655.5 329.966C655.51 330.083 655.51 330.2 655.5 330.316C655.5 331.155 655.5 332.005 655.41 332.834C655.415 332.911 655.415 332.987 655.41 333.064C655.41 333.873 655.32 334.683 655.25 335.492V335.552C655.25 335.982 655.18 336.401 655.14 336.831L638.034 349.401L637.395 349.88L630.191 355.166L615.043 366.307L614.873 366.417L599.106 378.017L594.22 381.614C592.263 383.047 590.028 384.054 587.658 384.57C585.288 385.087 582.837 385.101 580.461 384.612L576.934 383.893L416.754 340.468C414.782 339.939 412.736 339.737 410.699 339.868C397.809 340.588 386.319 336.391 380.513 333.753C378.533 332.853 376.626 331.8 374.808 330.606C365.458 324.559 355.326 319.819 344.692 316.517L345.442 302.908L350.248 300.65C351.299 300.333 352.387 300.151 353.485 300.111C360.186 299.554 366.932 300.074 373.469 301.649C389.846 305.556 421.43 313.09 422.199 313.32L550.675 330.026L552.414 330.246L565.463 331.945L590.223 310.342L595.449 305.816L595.769 305.536L627.743 277.679L637.665 269.016C638.214 269.815 638.754 270.645 639.263 271.464C640.262 273.083 641.262 274.721 642.191 276.39C642.431 276.8 642.651 277.209 642.88 277.639L643.11 278.069C643.949 279.597 644.729 281.146 645.468 282.735C645.638 283.074 645.808 283.434 645.968 283.794L646.238 284.403C646.547 285.063 646.837 285.742 647.127 286.402L648.766 290.458L649.235 291.737C649.455 292.357 649.685 292.976 649.885 293.596C650.085 294.215 650.334 294.915 650.544 295.594C650.569 295.659 650.589 295.726 650.604 295.794L651.024 297.153L651.234 297.862C651.373 298.302 651.493 298.752 651.623 299.211L652.103 301.01C652.313 301.779 652.513 302.549 652.692 303.328L653.152 305.436C653.252 305.816 653.322 306.196 653.402 306.575C653.542 307.255 653.672 307.944 653.791 308.624C653.911 309.303 654.081 310.242 654.211 311.072C654.206 311.118 654.206 311.165 654.211 311.212C654.281 311.641 654.341 312.071 654.401 312.511C654.501 313.17 654.591 313.819 654.661 314.509C654.731 315.198 654.821 315.828 654.891 316.507C654.981 317.387 655.07 318.276 655.13 319.155C655.19 320.034 655.26 320.894 655.31 321.773V321.803C655.31 322.013 655.31 322.243 655.31 322.462C655.31 322.682 655.31 323.012 655.31 323.302C655.31 323.592 655.31 323.861 655.31 324.141V324.551C655.5 325.36 655.5 326.199 655.5 327.049Z" fill="#FFC010" stroke="black" stroke-miterlimit="10"/>
<path d="M344.753 316.527C339.397 314.829 334.971 315.258 329.325 317.436C319.513 321.223 313.278 322.682 310.251 321.233C309.863 321.06 309.535 320.776 309.306 320.418C309.078 320.06 308.959 319.643 308.964 319.219C308.969 318.794 309.099 318.38 309.336 318.028C309.574 317.676 309.909 317.401 310.301 317.237L330.434 306.305C335.311 303.907 335.43 303.118 351.887 302.618" fill="#FFC010"/>
<path d="M344.753 316.527C339.397 314.829 334.971 315.258 329.325 317.436C319.513 321.223 313.278 322.682 310.251 321.233C309.863 321.06 309.535 320.776 309.306 320.418C309.078 320.06 308.959 319.643 308.964 319.219C308.969 318.794 309.099 318.38 309.336 318.028C309.574 317.676 309.909 317.401 310.301 317.237L330.434 306.305C335.311 303.907 335.43 303.118 351.887 302.618" stroke="black" stroke-miterlimit="10"/>
<path d="M643.12 277.989C643.949 279.517 644.729 281.076 645.478 282.655C644.739 281.066 643.959 279.517 643.12 277.989ZM655.34 321.803C655.34 322.013 655.34 322.243 655.34 322.462C655.37 322.203 655.36 321.973 655.34 321.803ZM655.45 324.551V324.141C655.45 323.861 655.45 323.582 655.45 323.302C655.45 323.022 655.45 322.742 655.45 322.462C655.45 322.183 655.45 322.013 655.45 321.803V321.663C655.4 320.784 655.35 319.914 655.27 319.045C655.19 318.176 655.12 317.277 655.03 316.397C654.961 315.748 654.891 315.088 654.801 314.399C654.711 313.71 654.631 313.09 654.541 312.401C654.481 311.961 654.421 311.531 654.351 311.102C654.346 311.055 654.346 311.008 654.351 310.962C654.221 310.132 654.081 309.323 653.931 308.514C653.781 307.704 653.682 307.145 653.542 306.465C653.462 306.086 653.392 305.706 653.292 305.326L652.832 303.218C652.652 302.439 652.453 301.669 652.243 300.9L651.763 299.101C651.633 298.642 651.513 298.192 651.373 297.752L651.164 297.043L650.744 295.684C650.729 295.616 650.709 295.549 650.684 295.484C650.474 294.815 650.254 294.145 650.025 293.486C649.795 292.826 649.595 292.247 649.375 291.627L648.905 290.348L647.267 286.292C646.977 285.622 646.687 284.943 646.377 284.293L646.108 283.684C645.948 283.324 645.778 282.964 645.608 282.625C644.869 281.036 644.089 279.487 643.25 277.959L643.02 277.529L637.764 268.936L637.295 268.167L590.333 310.302L633.488 358.793L654.501 342.266C654.581 341.657 654.671 341.057 654.741 340.448C654.871 339.559 654.96 338.679 655.04 337.78L655.1 337.131C655.1 337.021 655.1 336.931 655.1 336.831C655.1 336.401 655.18 335.981 655.21 335.552V335.492C655.28 334.683 655.33 333.873 655.37 333.064C655.375 332.987 655.375 332.911 655.37 332.834C655.37 332.005 655.44 331.155 655.46 330.316C655.47 330.2 655.47 330.083 655.46 329.966C655.46 329.137 655.46 328.308 655.46 327.478V327.049C655.5 326.199 655.5 325.36 655.5 324.511L655.45 324.551Z" fill="#FFEEA9" stroke="black" stroke-linecap="round" stroke-linejoin="round"/>
<path d="M655.5 327.049V327.478C655.5 328.308 655.5 329.137 655.5 329.966C655.511 330.083 655.511 330.2 655.5 330.316C655.5 331.155 655.5 332.005 655.41 332.834C655.415 332.91 655.415 332.987 655.41 333.064C655.41 333.873 655.321 334.682 655.251 335.492V335.552C655.251 335.981 655.181 336.401 655.141 336.831C655.141 336.931 655.141 337.02 655.141 337.13L655.081 337.78C655.001 338.679 654.911 339.558 654.781 340.448C654.711 341.057 654.621 341.657 654.541 342.266L636.236 356.635C636.935 354.266 637.535 351.858 638.055 349.41C638.284 348.351 638.494 347.282 638.694 346.213C639.842 339.897 640.404 333.488 640.373 327.069C640.373 324.071 640.223 321.073 639.963 318.136C639.963 317.926 639.963 317.706 639.903 317.506C638.595 303.541 634.479 289.984 627.803 277.649C627.693 277.439 627.583 277.229 627.453 277.019L637.255 268.226C637.425 268.476 637.595 268.716 637.755 268.976C638.304 269.775 638.834 270.594 639.363 271.414C640.363 273.022 641.362 274.671 642.291 276.34C642.531 276.749 642.751 277.159 642.98 277.589L643.21 278.018C644.04 279.547 644.819 281.106 645.568 282.685C645.738 283.024 645.908 283.384 646.068 283.744L646.338 284.353C646.648 285.013 646.937 285.692 647.227 286.352L648.866 290.408L649.335 291.687C649.555 292.307 649.785 292.926 649.985 293.546C650.185 294.165 650.434 294.865 650.644 295.544C650.669 295.609 650.689 295.676 650.704 295.744L651.124 297.103L651.334 297.812C651.474 298.252 651.594 298.702 651.723 299.161L652.203 300.96C652.413 301.729 652.613 302.498 652.793 303.278L653.252 305.386C653.352 305.766 653.422 306.146 653.502 306.525C653.642 307.205 653.772 307.894 653.892 308.574C654.012 309.253 654.181 310.192 654.311 311.022C654.307 311.068 654.307 311.115 654.311 311.161C654.381 311.591 654.441 312.021 654.501 312.46C654.601 313.12 654.691 313.769 654.761 314.459C654.831 315.148 654.921 315.778 654.991 316.457C655.081 317.336 655.171 318.226 655.231 319.105C655.291 319.984 655.36 320.844 655.41 321.723V321.803C655.41 322.013 655.41 322.242 655.41 322.462C655.41 322.682 655.41 323.012 655.41 323.302C655.41 323.591 655.41 323.861 655.41 324.141V324.551C655.5 325.36 655.5 326.199 655.5 327.049Z" fill="black" stroke="black" stroke-linecap="round" stroke-linejoin="round"/>
<path d="M307.163 86.7837H243.755C237.9 86.7837 233.153 91.5301 233.153 97.3851V160.794C233.153 166.649 237.9 171.395 243.755 171.395H307.163C313.018 171.395 317.765 166.649 317.765 160.794V97.3851C317.765 91.5301 313.018 86.7837 307.163 86.7837Z" fill="black" stroke="black" stroke-miterlimit="10"/>
<path d="M307.163 79.4995H243.755C237.9 79.4995 233.153 84.2459 233.153 90.1009V153.509C233.153 159.364 237.9 164.111 243.755 164.111H307.163C313.018 164.111 317.765 159.364 317.765 153.509V90.1009C317.765 84.2459 313.018 79.4995 307.163 79.4995Z" fill="#FFE212" stroke="black" stroke-miterlimit="10"/>
<path d="M258.673 102.901V142.868C258.674 143.353 258.805 143.828 259.052 144.245C259.298 144.661 259.652 145.005 260.076 145.239C260.499 145.474 260.978 145.59 261.462 145.578C261.947 145.565 262.419 145.423 262.829 145.166L294.624 125.183C295.012 124.938 295.331 124.598 295.553 124.197C295.774 123.795 295.891 123.343 295.891 122.884C295.891 122.426 295.774 121.974 295.553 121.572C295.331 121.17 295.012 120.831 294.624 120.586L262.829 100.603C262.419 100.346 261.947 100.204 261.462 100.191C260.978 100.179 260.499 100.295 260.076 100.53C259.652 100.764 259.298 101.107 259.052 101.524C258.805 101.941 258.674 102.416 258.673 102.901Z" fill="#00ED64" stroke="black" stroke-miterlimit="10"/>
<path d="M259.622 100.842L282.853 132.577" stroke="black" stroke-miterlimit="10"/>
<path d="M282.853 113.012L260.271 145.326" stroke="black" stroke-miterlimit="10"/>
<path d="M275.459 164.121C275.458 162.8 275.717 161.492 276.221 160.271C276.726 159.05 277.466 157.941 278.4 157.007C279.333 156.072 280.442 155.331 281.662 154.825C282.882 154.319 284.19 154.059 285.511 154.059H317.775L292.056 164.381L275.459 164.121Z" fill="black"/>
<path d="M184.812 274.152H231.305" stroke="black" stroke-miterlimit="10" stroke-dasharray="2 2"/>
<path d="M107.825 361.631H199.211" stroke="black" stroke-miterlimit="10" stroke-dasharray="2 2"/>
<path d="M303.916 178.889H517.992" stroke="black" stroke-miterlimit="10" stroke-dasharray="2 2"/>
<path d="M199.301 350.42L209.552 361.83L199.301 372.831" stroke="black" stroke-linecap="round" stroke-linejoin="round"/>
<path d="M322.241 300.82L266.816 297.213C262.119 296.913 257.333 292.846 256.134 288.12L242.026 232.505C240.827 227.789 243.664 224.202 248.361 224.512L303.786 228.069C308.482 228.369 313.258 232.435 314.457 237.152L328.585 292.826C329.764 297.493 326.947 301.07 322.241 300.82Z" fill="black" stroke="black" stroke-miterlimit="10"/>
<path d="M398.33 155.648H302.687C293.858 155.648 286.7 162.805 286.7 171.635V267.277C286.7 276.106 293.858 283.264 302.687 283.264H398.33C407.159 283.264 414.317 276.106 414.317 267.277V171.635C414.317 162.805 407.159 155.648 398.33 155.648Z" fill="black" stroke="black" stroke-miterlimit="10"/>
<path d="M115.809 114.681H230.156" stroke="black" stroke-miterlimit="10" stroke-dasharray="2 2"/>
<path d="M179.317 128.939H230.156" stroke="black" stroke-miterlimit="10" stroke-dasharray="2 2"/>
<path d="M565.424 186.003V191.309C562.366 191.249 560.298 192.088 558.709 193.827C557.12 195.565 556.231 199.552 556.061 205.817C556.035 209.339 555.761 212.855 555.242 216.339C554.912 218.449 553.975 220.418 552.544 222.004C551.106 223.543 549.269 224.653 547.238 225.211C544.268 225.91 541.212 226.172 538.166 225.991L535.938 225.931L536.217 215.879C540.284 215.989 542.722 215.639 543.551 214.82C544.381 214.001 544.84 212.372 544.97 209.934C545.317 203.206 545.65 198.839 545.969 196.834C546.285 194.818 546.962 192.875 547.968 191.099C549.36 188.914 551.295 187.128 553.583 185.913L565.424 186.003Z" fill="black"/>
<path d="M553.144 185.913C550.882 184.611 549.015 182.723 547.738 180.448C546.619 178.329 545.969 175.302 545.81 171.345L545.27 159.105C545.175 158.557 544.967 158.035 544.659 157.572C544.351 157.11 543.95 156.716 543.481 156.417C542.532 155.808 540.354 155.488 536.927 155.418L537.007 145.326H539.195C543.685 145.326 547.145 145.862 549.576 146.935C551.914 147.891 553.795 149.708 554.832 152.011C555.911 154.336 556.431 158.096 556.391 163.292C556.391 169.007 556.511 172.674 556.891 174.283C557.284 175.908 558.05 177.421 559.129 178.699C560.234 180.031 562.346 180.771 565.464 180.917V185.993L553.144 185.913Z" fill="black"/>
<path d="M550.395 178.649V183.915C547.338 183.855 545.269 184.694 543.681 186.433C542.092 188.171 541.203 192.158 541.033 198.373C541.007 201.895 540.733 205.411 540.214 208.895C539.882 211.008 538.945 212.979 537.516 214.57C536.074 216.103 534.239 217.209 532.21 217.767C529.241 218.476 526.184 218.739 523.137 218.547L520.909 218.487L521.189 208.435C525.256 208.545 527.694 208.195 528.523 207.376C529.352 206.557 529.812 204.928 529.932 202.49C530.292 195.762 530.625 191.396 530.931 189.39C531.249 187.375 531.926 185.432 532.929 183.655C534.31 181.501 536.219 179.737 538.475 178.529L550.395 178.649Z" fill="#00ED64" stroke="black" stroke-linecap="round" stroke-linejoin="round"/>
<path d="M538.115 178.509C535.854 177.207 533.987 175.319 532.71 173.044C531.601 170.925 530.941 167.928 530.781 163.931L530.242 151.691C530.147 151.143 529.939 150.621 529.631 150.158C529.323 149.696 528.922 149.302 528.453 149.003C527.454 148.394 525.326 148.074 521.898 148.004L521.978 137.912H524.167C528.656 137.912 532.117 138.452 534.548 139.531C536.885 140.483 538.766 142.297 539.804 144.597C540.883 146.935 541.399 150.695 541.353 155.878C541.313 161.606 541.483 165.27 541.862 166.869C542.254 168.495 543.02 170.008 544.1 171.285C545.206 172.617 547.318 173.357 550.435 173.503V178.589L538.115 178.509Z" fill="white" stroke="black" stroke-linecap="round" stroke-linejoin="round"/>
<path d="M89.4795 218.207V328.038H173.162V247.303L144.065 218.207H89.4795Z" fill="#00ED64" stroke="black" stroke-miterlimit="10"/>
<path d="M147.303 247.303L145.305 253.708L173.192 247.303H147.303Z" fill="black" stroke="black" stroke-linejoin="round"/>
<path d="M144.075 218.207V247.303H173.162L144.075 218.207Z" fill="white" stroke="black" stroke-linejoin="round"/>
<path d="M68.0371 288.41H102.929" stroke="black" stroke-miterlimit="10" stroke-dasharray="2 2"/>
<path d="M40 274.152H89.4798" stroke="black" stroke-miterlimit="10" stroke-dasharray="2 2"/>
<path d="M105.018 277.199L115.269 288.61L105.018 299.611" stroke="black" stroke-linecap="round" stroke-linejoin="round"/>
<path d="M398.33 147.604H302.687C293.858 147.604 286.7 154.762 286.7 163.591V259.234C286.7 268.063 293.858 275.221 302.687 275.221H398.33C407.159 275.221 414.317 268.063 414.317 259.234V163.591C414.317 154.762 407.159 147.604 398.33 147.604Z" fill="white" stroke="black" stroke-miterlimit="10"/>
<path d="M349.609 209.014L329.625 249.222C329.26 249.961 328.754 250.62 328.134 251.163C327.514 251.705 326.793 252.12 326.012 252.384C325.232 252.647 324.407 252.754 323.585 252.699C322.763 252.643 321.96 252.426 321.222 252.06C320.484 251.693 319.825 251.184 319.283 250.563C318.742 249.942 318.328 249.22 318.065 248.439C317.803 247.657 317.697 246.832 317.753 246.01C317.809 245.188 318.027 244.384 318.394 243.646L342.874 194.316" fill="#00ED64"/>
<path d="M349.609 209.014L329.625 249.222C329.26 249.961 328.754 250.62 328.134 251.163C327.514 251.705 326.793 252.12 326.012 252.384C325.232 252.647 324.407 252.754 323.585 252.699C322.763 252.643 321.96 252.426 321.222 252.06V252.06C320.484 251.693 319.825 251.184 319.283 250.563C318.742 249.942 318.328 249.22 318.065 248.439C317.803 247.657 317.697 246.832 317.753 246.01C317.809 245.188 318.027 244.384 318.394 243.646L342.874 194.316" stroke="black" stroke-miterlimit="10"/>
<path d="M389.611 227.746C393.077 227.747 395.887 224.941 395.888 221.478C395.89 218.015 393.081 215.207 389.616 215.206L311.429 215.179C307.964 215.177 305.153 217.983 305.152 221.446C305.151 224.909 307.959 227.717 311.425 227.718L389.611 227.746Z" fill="#00ED64" stroke="black" stroke-miterlimit="10"/>
<path d="M355.923 215.189C357.972 220.075 357.572 224.802 355.733 227.739H362.198L355.923 215.189Z" fill="black"/>
<path d="M326.158 227.799C331.444 228.139 335.501 230.607 337.309 233.565L340.187 227.769L326.158 227.799Z" fill="black"/>
<path d="M372.922 249.114C374.473 252.213 378.241 253.469 381.338 251.919C384.434 250.369 385.687 246.6 384.136 243.501L349.139 173.584C347.588 170.485 343.82 169.229 340.724 170.779C337.627 172.329 336.374 176.098 337.926 179.197L372.922 249.114Z" fill="#00ED64" stroke="black" stroke-miterlimit="10"/>
<path d="M342.904 194.317L353.176 173.613C353.917 172.123 355.218 170.987 356.796 170.455C358.373 169.923 360.097 170.038 361.589 170.776C363.077 171.516 364.211 172.817 364.741 174.392C365.271 175.968 365.155 177.689 364.417 179.179L349.609 209.015" fill="#00ED64"/>
<path d="M342.904 194.317L353.176 173.613C353.917 172.123 355.218 170.987 356.796 170.455C358.373 169.923 360.097 170.038 361.589 170.776V170.776C363.077 171.516 364.211 172.817 364.741 174.392C365.271 175.968 365.155 177.689 364.417 179.179L349.609 209.015" stroke="black" stroke-miterlimit="10"/>
<path d="M351.337 205.747C353.985 201.161 357.982 198.603 361.439 198.293L358.191 191.719L351.337 205.747Z" fill="black"/>
</g>
<defs>
<clipPath id="clip0_4697_35467">
<rect width="616" height="309.739" fill="white" transform="translate(40 79)"/>
</clipPath>
</defs>
</svg>
