<svg width="696" height="468" viewBox="0 0 696 468" fill="none" xmlns="http://www.w3.org/2000/svg">
<g clip-path="url(#clip0_4697_35713)">
<path d="M453 104.67C453.008 121.818 459.825 138.262 471.951 150.386C484.078 162.511 500.522 169.325 517.67 169.33C534.819 169.338 551.262 176.154 563.387 188.281C575.511 200.407 582.325 216.852 582.33 234V363.33C582.437 371.89 580.843 380.385 577.641 388.324C574.439 396.263 569.693 403.487 563.677 409.578C557.662 415.668 550.498 420.504 542.599 423.804C534.701 427.105 526.226 428.804 517.665 428.804C509.105 428.804 500.63 427.105 492.732 423.804C484.833 420.504 477.669 415.668 471.653 409.578C465.638 403.487 460.892 396.263 457.69 388.324C454.488 380.385 452.894 371.89 453 363.33C452.992 346.182 446.176 329.738 434.05 317.614C421.923 305.489 405.479 298.675 388.33 298.67H259C241.851 298.662 225.407 291.846 213.281 279.72C201.154 267.594 194.338 251.149 194.33 234C194.325 216.852 187.511 200.407 175.387 188.281C163.262 176.154 146.819 169.338 129.67 169.33C121.111 169.437 112.615 167.843 104.676 164.641C96.7376 161.439 89.5134 156.692 83.4229 150.677C77.3324 144.662 72.4967 137.497 69.1962 129.599C65.8958 121.7 64.1963 113.225 64.1963 104.665C64.1963 96.1049 65.8958 87.6298 69.1962 79.7314C72.4967 71.8329 77.3324 64.6684 83.4229 58.6531C89.5134 52.6378 96.7376 47.8916 104.676 44.6896C112.615 41.4877 121.111 39.8937 129.67 40.0001H388.33C405.48 40.0054 421.926 46.8205 434.053 58.9474C446.18 71.0742 452.995 87.5202 453 104.67Z" fill="#00684A"/>
<path d="M214.95 164.36L431.89 188.08C433.797 188.279 435.591 189.081 437.01 190.371C438.43 191.661 439.4 193.37 439.78 195.25L477.57 328.76L559.8 337.63L558.21 352L333.89 327.76L245.79 318.25L241.62 303.31L210.13 169.65C209.99 168.967 210.014 168.26 210.199 167.588C210.384 166.915 210.726 166.296 211.195 165.78C211.665 165.265 212.25 164.867 212.902 164.621C213.555 164.374 214.256 164.285 214.95 164.36Z" fill="black" stroke="black" stroke-linejoin="round"/>
<path d="M364.99 268.63L337.36 263.05C334.453 262.463 331.453 262.518 328.57 263.21C323.87 264.33 317.07 266.13 316.3 267.27C315.88 267.9 316.58 273.05 330.53 270.95C332.1 270.714 333.702 270.816 335.23 271.25C344.92 273.98 355 277.81 355 277.81L364.99 268.63Z" fill="white" stroke="black" stroke-miterlimit="10"/>
<path d="M555.52 322.62L556.25 322.67L555.2 337.04L533.07 335.44L555.52 322.62Z" fill="black" stroke="black" stroke-miterlimit="10"/>
<path d="M355.77 274.72L336.59 279.26C334.44 279.796 332.468 280.886 330.87 282.42C327.11 286.02 319.44 291.42 320.46 293.71C321.82 296.84 332.08 291.64 337.69 288.97C339.225 288.067 340.872 287.371 342.59 286.9C350.74 285.43 359.69 284.1 359.69 284.1" fill="white"/>
<path d="M355.77 274.72L336.59 279.26C334.44 279.796 332.468 280.886 330.87 282.42C327.11 286.02 319.44 291.42 320.46 293.71C321.82 296.84 332.08 291.64 337.69 288.97C339.225 288.067 340.872 287.371 342.59 286.9C350.74 285.43 359.69 284.1 359.69 284.1" stroke="black" stroke-linecap="round" stroke-linejoin="round"/>
<path d="M355.24 284.79L343.81 286.69C342.34 286.82 340.64 287.78 338.61 289.75C337.04 291.26 331.32 300.95 336.13 300.91C337.3 300.91 340.23 298.44 342.39 296.46C343.23 295.692 344.229 295.119 345.317 294.784C346.405 294.449 347.553 294.358 348.68 294.52C352.11 295.01 357.34 295.52 362.91 296.6" fill="white"/>
<path d="M355.24 284.79L343.81 286.69C342.34 286.82 340.64 287.78 338.61 289.75C337.04 291.26 331.32 300.95 336.13 300.91C337.3 300.91 340.23 298.44 342.39 296.46C343.23 295.692 344.229 295.119 345.317 294.784C346.405 294.449 347.553 294.358 348.68 294.52C352.11 295.01 357.34 295.52 362.91 296.6" stroke="black" stroke-linecap="round" stroke-linejoin="round"/>
<path d="M205.59 161.56L429.65 177.83C431.561 177.965 433.378 178.706 434.839 179.945C436.299 181.184 437.326 182.857 437.77 184.72L473.77 316.72L237.06 299.5L200.96 167C200.8 166.323 200.801 165.618 200.964 164.942C201.127 164.265 201.446 163.637 201.897 163.107C202.348 162.577 202.917 162.161 203.559 161.892C204.201 161.624 204.896 161.51 205.59 161.56Z" fill="white" stroke="black" stroke-miterlimit="10"/>
<path d="M429.81 197.94L231.22 183.52L261.18 293.17L457.23 304.52L429.81 197.94Z" fill="#FFE212"/>
<path d="M241.76 314.29L343.29 321.66L344.34 307.29L237.06 299.5L241.76 314.29Z" fill="white" stroke="black" stroke-linejoin="round"/>
<path d="M330.116 320.719L555.185 337.049L556.227 322.677L331.159 306.347L330.116 320.719Z" fill="white" stroke="black" stroke-miterlimit="10"/>
<path d="M474.97 316.77L528.97 335.14L474.29 331.14C474.29 331.14 384.57 311.79 380.55 309.88L474.97 316.77Z" fill="black" stroke="black" stroke-miterlimit="10"/>
<path d="M250.55 300.48L216.74 174.52L439.4 190.68" stroke="black" stroke-linecap="round" stroke-linejoin="round"/>
<path d="M366.11 279.83C367.554 277.868 369.484 276.317 371.71 275.33L372.71 275.06L380.9 279.71C380.25 279.99 379.61 280.26 378.97 280.55C376.5 282.032 374.293 283.914 372.44 286.12C358.24 305.7 353.06 306.22 351.12 306.06C343.34 305.45 360.32 286.55 366.11 279.83Z" fill="black" stroke="black" stroke-miterlimit="10"/>
<path d="M350.19 283.51C352.591 281.071 355.417 279.092 358.53 277.67L360.89 276.81L365.3 284.81C364.5 285.05 363.69 285.31 362.89 285.57C360.288 286.799 357.904 288.444 355.83 290.44C345.54 301.81 341.37 309.33 332.58 308.11C325.44 307.08 343.74 289.61 350.19 283.51Z" fill="black" stroke="black" stroke-miterlimit="10"/>
<path d="M392.33 292.94C392.677 293.161 392.963 293.465 393.163 293.824C393.364 294.182 393.472 294.585 393.479 294.996C393.486 295.407 393.391 295.813 393.203 296.179C393.015 296.544 392.739 296.857 392.4 297.09C388.92 299.49 384.63 299.4 377.33 307.92C370.73 315.62 366.73 306.56 370.53 301.33C374.33 296.1 378.66 294.66 381.74 290.82C383.99 288 389.26 291 392.33 292.94Z" fill="black" stroke="black" stroke-miterlimit="10"/>
<path d="M346.39 278.05C348.016 276.44 349.791 274.987 351.69 273.71L360.75 279.52L359.34 279.99C357.57 280.59 353.58 283.74 352.21 284.99C340.05 296.36 334.49 304.07 328.72 303.21C320.2 302 339.89 284.33 346.39 278.05Z" fill="#FFC010" stroke="black" stroke-miterlimit="10"/>
<path d="M485.04 275.37C496.15 276.79 503.04 281.32 510.96 285.18L606.6 339.18L623.89 289.78L504.62 257.31L500.16 256.55L495.02 255.55C493.21 255.22 495.42 256.48 494.54 258.09L485.04 275.37Z" fill="#FFC010" stroke="black" stroke-miterlimit="10"/>
<path d="M630.78 296.46V296.84C630.78 297.6 630.78 298.35 630.78 299.1C630.78 299.21 630.78 299.32 630.78 299.42C630.78 300.18 630.73 300.95 630.69 301.7C630.695 301.77 630.695 301.84 630.69 301.91C630.69 302.65 630.61 303.38 630.55 304.11V304.17C630.55 304.56 630.49 304.94 630.45 305.33V305.6C630.45 305.79 630.45 306 630.4 306.19C630.32 307.01 630.24 307.81 630.13 308.61C630.06 309.16 629.98 309.7 629.91 310.25C628.143 322.803 623.86 334.871 617.32 345.73L593.89 332.17L581.63 325.07L581.37 324.92L537.29 299.35L536.46 298.87L564.39 273.87L576.22 277.15H576.32L616.6 288.34L623.67 290.34L630.67 292.28C630.67 292.54 630.67 292.78 630.67 293.04C630.67 293.3 630.67 293.55 630.67 293.8V294.18C630.76 294.92 630.78 295.69 630.78 296.46Z" fill="black" stroke="black" stroke-linecap="round" stroke-linejoin="round"/>
<path d="M473.89 245.68C475.486 244.556 477.347 243.867 479.29 243.68H480.1L485.1 249.29L483.42 249.43C481.172 249.934 479.023 250.806 477.06 252.01C461.3 263.28 457.23 262.35 455.8 261.75C450.11 259.36 467.8 249.32 473.89 245.68Z" fill="black" stroke="black" stroke-miterlimit="10"/>
<path d="M465.01 240.72C468.01 239.22 471.48 239.26 474.77 239.6L477.16 239.95L477.24 248.74C476.45 248.57 475.65 248.42 474.85 248.27C472.08 248.115 469.303 248.416 466.63 249.16C452.68 254.07 444.9 256.16 438.8 253.45C429.49 249.23 452.32 247.13 465.01 240.72Z" fill="black" stroke="black" stroke-miterlimit="10"/>
<path d="M464.89 235.65C467.06 234.89 468.01 236.65 470.27 236.84L475.27 245.64L473.87 245.14C472.1 244.53 467.02 244.56 465.15 244.72C448.57 246.19 439.57 247.72 435.43 244.62C428.53 239.45 449.78 240.9 464.89 235.65Z" fill="#FFC010" stroke="black" stroke-miterlimit="10"/>
<path d="M451.33 246C451.33 246 461.94 242.28 458.06 236C459.78 234.53 457.46 235.64 457.46 235.64L468.41 242.32C468.41 242.32 468.82 247.11 466.84 247.04C464.86 246.97 451.33 246 451.33 246Z" fill="black" stroke="black" stroke-miterlimit="10"/>
<path d="M490.81 275.4C490.81 275.4 481.61 279.57 464.66 269.25C458.99 265.8 458.66 265.72 456.3 264.78C450.66 262.55 444.41 263.58 443.86 260.12C443.69 259.01 445.14 257.45 446.96 256.84C453.23 254.76 456.24 255.55 470.03 260.77C475.83 261.62 466.75 245.77 458.09 238.52C449.43 231.27 441.78 230.52 434.09 227.05C428.88 224.67 421.33 216.18 444.09 222.12C446.09 222.65 449.27 223.48 452.89 224.73C459.169 226.841 465.149 229.755 470.68 233.4C472.35 234.53 475.68 237.2 481.45 241.46C487.443 245.964 493.727 250.066 500.26 253.74C505.399 256.593 510.848 258.848 516.5 260.46" fill="#FFC010"/>
<path d="M490.81 275.4C490.81 275.4 481.61 279.57 464.66 269.25C458.99 265.8 458.66 265.72 456.3 264.78C450.66 262.55 444.41 263.58 443.86 260.12C443.69 259.01 445.14 257.45 446.96 256.84C453.23 254.76 456.24 255.55 470.03 260.77C475.83 261.62 466.75 245.77 458.09 238.52C449.43 231.27 441.78 230.52 434.09 227.05C428.88 224.67 421.33 216.18 444.09 222.12C446.09 222.65 449.27 223.48 452.89 224.73C459.169 226.841 465.149 229.755 470.68 233.4C472.35 234.53 475.68 237.2 481.45 241.46C487.443 245.964 493.727 250.066 500.26 253.74C505.399 256.593 510.848 258.848 516.5 260.46" stroke="black" stroke-linejoin="round"/>
<path d="M630.78 296.46V296.84C630.78 297.6 630.78 298.35 630.78 299.1C630.78 299.21 630.78 299.32 630.78 299.42C630.78 300.18 630.73 300.95 630.69 301.7C630.695 301.77 630.695 301.84 630.69 301.91C630.69 302.65 630.61 303.38 630.55 304.11V304.17C630.55 304.56 630.49 304.94 630.45 305.33L614.89 316.74L614.3 317.17L607.77 321.97L594.03 332.07L593.88 332.17L579.58 342.69L575.14 346C573.366 347.302 571.339 348.219 569.189 348.689C567.04 349.159 564.815 349.173 562.66 348.73L559.46 348.07L414.26 308.67C412.467 308.199 410.61 308.02 408.76 308.14C397.08 308.78 386.66 304.98 381.39 302.59C379.593 301.769 377.861 300.813 376.21 299.73C367.733 294.226 358.54 289.912 348.89 286.91L349.57 274.56L353.93 272.56C354.888 272.246 355.883 272.058 356.89 272C362.962 271.496 369.076 271.965 375 273.39C389.89 277 418.47 283.79 419.18 284L535.7 299.16L537.28 299.36L549.11 300.9L571.57 281.31L576.31 277.17L576.6 276.91L605.6 251.65L614.6 243.8C615.1 244.53 615.6 245.28 616.05 246.03C616.983 247.49 617.87 248.976 618.71 250.49C618.92 250.86 619.13 251.24 619.33 251.62L619.54 252.01C620.3 253.396 621.013 254.806 621.68 256.24C621.84 256.56 621.99 256.893 622.13 257.24L622.38 257.8C622.66 258.4 622.92 259.01 623.19 259.62L624.67 263.3C624.81 263.69 624.96 264.07 625.09 264.46C625.296 265.02 625.496 265.58 625.69 266.14C625.89 266.74 626.09 267.34 626.28 267.94C626.304 268.002 626.324 268.065 626.34 268.13C626.47 268.54 626.6 268.95 626.71 269.36L626.91 270.01C627.04 270.41 627.15 270.82 627.26 271.22L627.7 272.86C627.89 273.55 628.07 274.26 628.23 274.96L628.65 276.88C628.74 277.22 628.81 277.56 628.87 277.88C629 278.5 629.12 279.13 629.23 279.75C629.34 280.37 629.49 281.22 629.61 281.96C629.604 282.003 629.604 282.047 629.61 282.09C629.67 282.48 629.73 282.87 629.78 283.27C629.87 283.87 629.95 284.45 630.02 285.05C630.09 285.65 630.16 286.24 630.22 286.83C630.31 287.63 630.38 288.43 630.44 289.23C630.5 290.03 630.56 290.81 630.6 291.61V291.73C630.6 291.92 630.6 292.13 630.6 292.33C630.6 292.53 630.6 292.83 630.6 293.09C630.6 293.35 630.6 293.6 630.6 293.85V294.23C630.76 294.92 630.78 295.69 630.78 296.46Z" fill="#FFC010" stroke="black" stroke-miterlimit="10"/>
<path d="M348.89 286.91C344.04 285.37 340.02 285.76 334.89 287.74C325.98 291.18 320.33 292.49 317.58 291.19C317.242 291.026 316.957 290.771 316.758 290.452C316.558 290.134 316.452 289.766 316.452 289.39C316.452 289.014 316.558 288.646 316.758 288.328C316.957 288.01 317.242 287.754 317.58 287.59L335.89 277.68C340.31 275.5 340.39 274.78 355.34 274.33" fill="#FFC010"/>
<path d="M348.89 286.91C344.04 285.37 340.02 285.76 334.89 287.74C325.98 291.18 320.33 292.49 317.58 291.19C317.242 291.026 316.957 290.771 316.758 290.452C316.558 290.134 316.452 289.766 316.452 289.39C316.452 289.014 316.558 288.646 316.758 288.328C316.957 288.01 317.242 287.754 317.58 287.59L335.89 277.68C340.31 275.5 340.39 274.78 355.34 274.33" stroke="black" stroke-miterlimit="10"/>
<path d="M619.55 252C620.3 253.39 621.01 254.81 621.69 256.23C621.023 254.743 620.31 253.333 619.55 252ZM630.63 291.7C630.64 291.9 630.64 292.1 630.63 292.3C630.66 292.06 630.65 291.85 630.63 291.66V291.7ZM630.74 294.2V293.82C630.74 293.57 630.74 293.31 630.74 293.06C630.74 292.81 630.74 292.56 630.74 292.3C630.74 292.04 630.74 291.89 630.74 291.7V291.58C630.74 290.78 630.65 289.99 630.58 289.2C630.51 288.41 630.45 287.6 630.36 286.8C630.3 286.21 630.23 285.61 630.16 285.02C630.09 284.43 630 283.83 629.92 283.24C629.92 282.84 629.81 282.45 629.75 282.06C629.745 282.017 629.745 281.973 629.75 281.93C629.63 281.19 629.51 280.45 629.37 279.72C629.23 278.99 629.14 278.47 629.01 277.85C628.95 277.51 628.88 277.17 628.79 276.85L628.37 274.93C628.21 274.23 628.03 273.52 627.84 272.83L627.4 271.19C627.29 270.79 627.18 270.38 627.05 269.98L626.85 269.33C626.74 268.92 626.61 268.51 626.48 268.1C626.465 268.035 626.445 267.972 626.42 267.91C626.23 267.31 626.03 266.71 625.83 266.11C625.63 265.51 625.44 264.99 625.23 264.43C625.1 264.04 624.95 263.66 624.81 263.27L623.33 259.59C623.06 258.98 622.8 258.37 622.52 257.77L622.27 257.21C622.13 256.89 621.98 256.557 621.82 256.21C621.153 254.777 620.44 253.367 619.68 251.98L619.47 251.59L614.71 243.81L614.28 243.11L571.58 281.3L610.71 325.3L629.83 310.3C629.9 309.75 629.98 309.21 630.05 308.66C630.16 307.86 630.24 307.06 630.32 306.24C630.32 306.05 630.32 305.84 630.37 305.65V305.38C630.37 304.99 630.44 304.61 630.47 304.22V304.16C630.53 303.43 630.58 302.7 630.61 301.96C630.615 301.89 630.615 301.82 630.61 301.75C630.61 301 630.68 300.23 630.7 299.47C630.7 299.37 630.7 299.26 630.7 299.15C630.7 298.4 630.7 297.65 630.7 296.89V296.51C630.78 295.69 630.76 294.92 630.74 294.16V294.2Z" fill="#FFEEA9" stroke="black" stroke-linecap="round" stroke-linejoin="round"/>
<path d="M630.78 296.46V296.84C630.78 297.6 630.78 298.35 630.78 299.1C630.78 299.21 630.78 299.32 630.78 299.42C630.78 300.18 630.73 300.95 630.69 301.7C630.695 301.77 630.695 301.84 630.69 301.91C630.69 302.65 630.61 303.38 630.55 304.11V304.17C630.55 304.56 630.49 304.94 630.45 305.33V305.6C630.45 305.79 630.45 306 630.4 306.19C630.32 307.01 630.24 307.81 630.13 308.61C630.06 309.16 629.98 309.7 629.91 310.25L613.31 323.25C613.94 321.1 614.48 318.92 614.96 316.7C615.16 315.7 615.36 314.77 615.54 313.8C616.575 308.071 617.083 302.261 617.06 296.44C617.06 293.71 616.92 291 616.68 288.33C616.68 288.15 616.68 287.95 616.63 287.76C615.433 275.096 611.691 262.804 605.63 251.62C605.53 251.43 605.43 251.24 605.32 251.05L614.2 243.05C614.36 243.27 614.51 243.49 614.66 243.72C615.15 244.45 615.66 245.19 616.11 245.94C617.04 247.39 617.92 248.94 618.77 250.4C618.98 250.77 619.19 251.15 619.39 251.53L619.6 251.92C620.35 253.31 621.06 254.73 621.74 256.15C621.9 256.47 622.05 256.803 622.19 257.15L622.44 257.71C622.72 258.31 622.98 258.92 623.25 259.53L624.73 263.21C624.87 263.6 625.02 263.98 625.15 264.37C625.357 264.93 625.557 265.49 625.75 266.05C625.95 266.65 626.15 267.25 626.34 267.85C626.365 267.912 626.385 267.975 626.4 268.04C626.53 268.45 626.66 268.86 626.77 269.27L626.97 269.92C627.1 270.32 627.21 270.73 627.32 271.13L627.76 272.77C627.95 273.46 628.13 274.17 628.29 274.87L628.71 276.79C628.8 277.13 628.87 277.47 628.93 277.79C629.06 278.41 629.18 279.04 629.29 279.66C629.4 280.28 629.55 281.13 629.67 281.87C629.665 281.913 629.665 281.957 629.67 282C629.73 282.39 629.79 282.78 629.84 283.18C629.93 283.78 630.01 284.36 630.08 284.96C630.15 285.56 630.22 286.15 630.28 286.74C630.37 287.54 630.44 288.34 630.5 289.14C630.56 289.94 630.62 290.72 630.66 291.52V291.64C630.66 291.83 630.66 292.04 630.66 292.24C630.66 292.44 630.66 292.74 630.66 293C630.66 293.26 630.66 293.51 630.66 293.76V294.14C630.76 294.92 630.78 295.69 630.78 296.46Z" fill="black" stroke="black" stroke-linecap="round" stroke-linejoin="round"/>
<path d="M313.87 78.5601H258.35C252.49 78.5601 247.74 83.3103 247.74 89.1701V144.69C247.74 150.55 252.49 155.3 258.35 155.3H313.87C319.73 155.3 324.48 150.55 324.48 144.69V89.1701C324.48 83.3103 319.73 78.5601 313.87 78.5601Z" fill="black" stroke="black" stroke-miterlimit="10"/>
<path d="M313.87 71.96H258.35C252.49 71.96 247.74 76.7102 247.74 82.57V138.09C247.74 143.95 252.49 148.7 258.35 148.7H313.87C319.73 148.7 324.48 143.95 324.48 138.09V82.57C324.48 76.7102 319.73 71.96 313.87 71.96Z" fill="#FFE212" stroke="black" stroke-miterlimit="10"/>
<path d="M270.89 93.18V129.42C270.89 129.86 271.008 130.291 271.232 130.669C271.455 131.048 271.776 131.359 272.161 131.572C272.546 131.784 272.981 131.889 273.42 131.877C273.86 131.864 274.288 131.734 274.66 131.5L303.49 113.38C303.841 113.158 304.13 112.851 304.331 112.487C304.531 112.124 304.636 111.715 304.636 111.3C304.636 110.885 304.531 110.476 304.331 110.112C304.13 109.749 303.841 109.442 303.49 109.22L274.67 91.1C274.297 90.8633 273.868 90.731 273.428 90.7171C272.987 90.7031 272.55 90.8079 272.164 91.0206C271.777 91.2332 271.455 91.5459 271.231 91.9258C271.007 92.3057 270.889 92.7389 270.89 93.18Z" fill="#00ED64" stroke="black" stroke-miterlimit="10"/>
<path d="M271.76 91.3101L292.82 120.1" stroke="black" stroke-miterlimit="10"/>
<path d="M292.82 102.35L272.34 131.66" stroke="black" stroke-miterlimit="10"/>
<path d="M286.11 148.7C286.11 146.278 287.072 143.956 288.784 142.244C290.497 140.532 292.819 139.57 295.24 139.57H324.48L301.16 148.93L286.11 148.7Z" fill="black"/>
<path d="M203.91 248.48H246.07" stroke="black" stroke-miterlimit="10" stroke-dasharray="2 2"/>
<path d="M134.09 327.82H216.96" stroke="black" stroke-miterlimit="10" stroke-dasharray="2 2"/>
<path d="M311.92 162.1H506.07" stroke="black" stroke-miterlimit="10" stroke-dasharray="2 2"/>
<path d="M217.04 317.66L226.35 328L217.04 337.98" stroke="black" stroke-linecap="round" stroke-linejoin="round"/>
<path d="M328.55 272.63L278.3 269.4C274.03 269.13 269.7 265.4 268.61 261.16L255.81 210.71C254.72 206.43 257.3 203.19 261.56 203.46L311.81 206.69C314.056 206.959 316.172 207.884 317.894 209.349C319.616 210.815 320.867 212.756 321.49 214.93L334.3 265.37C335.38 269.65 332.81 272.9 328.55 272.63Z" fill="black" stroke="black" stroke-miterlimit="10"/>
<path d="M396.05 141.01H312.31C303.473 141.01 296.31 148.173 296.31 157.01V240.75C296.31 249.586 303.473 256.75 312.31 256.75H396.05C404.886 256.75 412.05 249.586 412.05 240.75V157.01C412.05 148.173 404.886 141.01 396.05 141.01Z" fill="black" stroke="black" stroke-miterlimit="10"/>
<path d="M141.33 103.86H245.03" stroke="black" stroke-miterlimit="10" stroke-dasharray="2 2"/>
<path d="M198.92 116.79H245.03" stroke="black" stroke-miterlimit="10" stroke-dasharray="2 2"/>
<path d="M549.09 168.55V173.35C546.32 173.35 544.44 174.06 543 175.64C541.56 177.22 540.75 180.83 540.6 186.47C540.58 189.659 540.343 192.843 539.89 196C539.584 197.913 538.733 199.697 537.44 201.14C536.131 202.531 534.463 203.534 532.62 204.04C529.931 204.684 527.16 204.923 524.4 204.75L522.4 204.69L522.65 195.58C526.34 195.68 528.55 195.36 529.3 194.58C530.05 193.8 530.47 192.36 530.58 190.15C530.914 184.05 531.22 180.09 531.5 178.27C531.795 176.441 532.415 174.68 533.33 173.07C534.574 171.119 536.295 169.519 538.33 168.42L549.09 168.55Z" fill="black"/>
<path d="M537.95 168.43C535.896 167.235 534.203 165.508 533.05 163.43C531.878 160.835 531.281 158.017 531.3 155.17L530.81 144.07C530.723 143.574 530.533 143.101 530.255 142.681C529.976 142.261 529.613 141.903 529.19 141.63C528.33 141.083 526.35 140.797 523.25 140.77L523.32 131.61H525.32C528.521 131.496 531.714 131.991 534.73 133.07C536.852 133.933 538.561 135.58 539.5 137.67C540.48 139.79 540.95 143.2 540.91 147.9C540.87 153.087 541.023 156.42 541.37 157.9C541.715 159.371 542.4 160.741 543.37 161.9C544.37 163.11 546.29 163.78 549.11 163.9V168.52L537.95 168.43Z" fill="black"/>
<path d="M535.46 161.87V166.68C534.339 166.572 533.207 166.721 532.152 167.116C531.096 167.511 530.145 168.142 529.37 168.96C527.917 170.54 527.117 174.15 526.97 179.79C526.941 182.983 526.694 186.171 526.23 189.33C525.926 191.244 525.075 193.028 523.78 194.47C522.473 195.864 520.804 196.868 518.96 197.37C516.271 198.014 513.5 198.253 510.74 198.08L508.74 198.03L508.99 188.91C512.68 189.01 514.89 188.69 515.64 187.91C516.39 187.13 516.81 185.69 516.92 183.48C517.254 177.38 517.56 173.42 517.84 171.6C518.137 169.772 518.757 168.011 519.67 166.4C520.914 164.449 522.635 162.849 524.67 161.75L535.46 161.87Z" fill="#00ED64" stroke="black" stroke-linecap="round" stroke-linejoin="round"/>
<path d="M524.32 161.75C522.264 160.558 520.57 158.83 519.42 156.75C518.249 154.158 517.652 151.344 517.67 148.5L517.18 137.39C517.094 136.895 516.905 136.423 516.626 136.005C516.347 135.586 515.984 135.23 515.56 134.96C514.7 134.4 512.72 134.11 509.62 134.09L509.69 124.93H511.69C514.891 124.816 518.084 125.311 521.1 126.39C523.222 127.253 524.931 128.901 525.87 130.99C526.85 133.11 527.32 136.523 527.28 141.23C527.24 146.41 527.393 149.743 527.74 151.23C528.086 152.701 528.771 154.071 529.74 155.23C530.74 156.44 532.66 157.11 535.48 157.23V161.84L524.32 161.75Z" fill="white" stroke="black" stroke-linecap="round" stroke-linejoin="round"/>
<path d="M117.45 197.75V297.35H193.34V224.14L166.96 197.75H117.45Z" fill="#00ED64" stroke="black" stroke-miterlimit="10"/>
<path d="M169.89 224.14L168.05 230L193.34 224.19L169.89 224.14Z" fill="black" stroke="black" stroke-linejoin="round"/>
<path d="M166.96 197.75V224.14H193.34L166.96 197.75Z" fill="white" stroke="black" stroke-linejoin="round"/>
<path d="M98 261.42H129.65" stroke="black" stroke-miterlimit="10" stroke-dasharray="2 2"/>
<path d="M72.5801 248.48H117.45" stroke="black" stroke-miterlimit="10" stroke-dasharray="2 2"/>
<path d="M131.54 251.25L140.84 261.6L131.54 271.58" stroke="black" stroke-linecap="round" stroke-linejoin="round"/>
<path d="M396.05 133.72H312.31C303.473 133.72 296.31 140.884 296.31 149.72V233.46C296.31 242.297 303.473 249.46 312.31 249.46H396.05C404.886 249.46 412.05 242.297 412.05 233.46V149.72C412.05 140.884 404.886 133.72 396.05 133.72Z" fill="white" stroke="black" stroke-miterlimit="10"/>
<path d="M353.37 189.41L335.27 225.88C334.937 226.549 334.476 227.146 333.912 227.637C333.348 228.128 332.694 228.503 331.985 228.741C331.277 228.978 330.528 229.074 329.783 229.023C329.037 228.971 328.309 228.773 327.64 228.44C326.971 228.108 326.374 227.648 325.884 227.085C325.393 226.522 325.018 225.869 324.78 225.161C324.542 224.453 324.446 223.705 324.498 222.961C324.549 222.216 324.747 221.488 325.08 220.82L347.28 176.08" fill="#00ED64"/>
<path d="M353.37 189.41L335.27 225.88C334.937 226.549 334.476 227.146 333.912 227.637C333.348 228.128 332.694 228.503 331.985 228.741C331.277 228.978 330.528 229.074 329.783 229.023C329.037 228.971 328.309 228.773 327.64 228.44V228.44C326.971 228.108 326.374 227.648 325.884 227.085C325.393 226.522 325.018 225.869 324.78 225.161C324.542 224.453 324.446 223.705 324.498 222.961C324.549 222.216 324.747 221.488 325.08 220.82L347.28 176.08" stroke="black" stroke-miterlimit="10"/>
<path d="M389.644 206.392C392.786 206.394 395.335 203.849 395.336 200.709C395.337 197.57 392.79 195.024 389.648 195.022L318.738 194.998C315.595 194.997 313.047 197.541 313.046 200.681C313.045 203.82 315.591 206.367 318.734 206.368L389.644 206.392Z" fill="#00ED64" stroke="black" stroke-miterlimit="10"/>
<path d="M359.09 195C360.94 199.43 360.59 203.72 358.92 206.38C356.92 206.38 364.78 206.38 364.78 206.38L359.09 195Z" fill="black"/>
<path d="M332.1 206.45C336.89 206.76 340.57 208.99 342.2 211.67C341.3 213.5 344.82 206.42 344.82 206.42L332.1 206.45Z" fill="black"/>
<path d="M374.506 225.785C375.913 228.595 379.329 229.734 382.137 228.329C384.945 226.923 386.08 223.506 384.674 220.696L352.934 157.286C351.528 154.476 348.111 153.337 345.304 154.742C342.496 156.148 341.36 159.565 342.767 162.375L374.506 225.785Z" fill="#00ED64" stroke="black" stroke-miterlimit="10"/>
<path d="M347.28 176.08L356.6 157.3C356.932 156.631 357.393 156.034 357.955 155.544C358.518 155.053 359.172 154.678 359.88 154.44C360.587 154.203 361.335 154.107 362.08 154.158C362.825 154.209 363.552 154.407 364.22 154.74C364.891 155.07 365.49 155.529 365.982 156.091C366.475 156.653 366.851 157.307 367.09 158.016C367.329 158.724 367.425 159.472 367.374 160.218C367.322 160.963 367.124 161.691 366.79 162.36L353.37 189.36" fill="#00ED64"/>
<path d="M347.28 176.08L356.6 157.3C356.932 156.631 357.393 156.034 357.955 155.544C358.518 155.053 359.172 154.678 359.88 154.44C360.587 154.203 361.335 154.107 362.08 154.158C362.825 154.209 363.552 154.407 364.22 154.74V154.74C364.891 155.07 365.49 155.529 365.982 156.091C366.475 156.653 366.851 157.307 367.09 158.016C367.329 158.724 367.425 159.472 367.374 160.218C367.322 160.963 367.124 161.691 366.79 162.36L353.37 189.36" stroke="black" stroke-miterlimit="10"/>
<path d="M354.89 186.44C357.29 182.29 360.89 179.97 364.05 179.69L361.11 173.69L354.89 186.44Z" fill="black"/>
</g>
<defs>
<clipPath id="clip0_4697_35713">
<rect width="566.28" height="388" fill="white" transform="translate(65 40)"/>
</clipPath>
</defs>
</svg>
