<svg width="696" height="468" viewBox="0 0 696 468" fill="none" xmlns="http://www.w3.org/2000/svg">
<g clip-path="url(#clip0_4953_16404)">
<path d="M283.548 118.98C277.301 97.652 257.568 82.0693 234.177 82.0693C215.196 82.0693 198.62 92.3297 189.707 107.595C188.224 107.422 186.723 107.326 185.192 107.326C163.775 107.326 146.41 124.657 146.41 146.033C146.41 167.409 163.775 184.74 185.192 184.74H283.346C301.538 184.74 316.285 170.022 316.285 151.865C316.285 133.707 301.644 119.105 283.548 118.989V118.98Z" fill="black" stroke="black" stroke-linecap="round" stroke-linejoin="round"/>
<path d="M283.548 108.642C277.301 87.3148 257.568 71.7322 234.177 71.7322C215.196 71.7322 198.62 81.9925 189.707 97.2581C188.224 97.0852 186.723 96.9891 185.192 96.9891C163.775 96.9891 146.41 114.32 146.41 135.696C146.41 157.072 163.775 174.403 185.192 174.403H283.346C301.538 174.403 316.285 159.685 316.285 141.527C316.285 123.37 301.644 108.767 283.548 108.652V108.642Z" fill="white" stroke="black" stroke-linecap="round" stroke-linejoin="round"/>
<path d="M358.003 245.917L283.798 281.646V336.877L358.003 372.596L432.207 336.877V281.646L358.003 245.917Z" fill="black" stroke="black" stroke-linecap="round" stroke-linejoin="round"/>
<path d="M358.003 235.571L283.798 271.299V326.53L358.003 362.249L432.207 326.53V271.299L358.003 235.571Z" fill="#00ED64"/>
<path d="M432.207 271.299L358.003 307.028L283.798 271.299L358.003 235.571L432.207 271.299Z" fill="white"/>
<path d="M358.003 235.571L283.798 271.299V326.53L358.003 362.249L432.207 326.53V271.299L358.003 235.571Z" stroke="black" stroke-linecap="round" stroke-linejoin="round"/>
<path d="M283.798 271.299L358.003 307.028V362.249" stroke="black" stroke-linecap="round" stroke-linejoin="round"/>
<path d="M358.002 307.028L432.207 271.299" stroke="black" stroke-linecap="round" stroke-linejoin="round"/>
<path d="M283.798 298.91L358.003 334.639C358.003 334.639 429.454 300.236 432.207 298.91" stroke="black" stroke-linecap="round" stroke-linejoin="round"/>
<path d="M415.795 334.437L432.207 326.53V271.299L415.795 279.206V334.437Z" fill="black" stroke="black" stroke-linecap="round" stroke-linejoin="round"/>
<path d="M358.003 180.34L283.798 216.068V271.299L358.003 307.028L432.207 271.299V216.068L358.003 180.34Z" fill="#00ED64"/>
<path d="M432.207 216.068L358.003 251.797L283.798 216.068L358.003 180.34L432.207 216.068Z" fill="white"/>
<path d="M358.003 180.34L283.798 216.068V271.299L358.003 307.028L432.207 271.299V216.068L358.003 180.34Z" stroke="black" stroke-linecap="round" stroke-linejoin="round"/>
<path d="M283.798 216.068L358.003 251.797V307.028" stroke="black" stroke-linecap="round" stroke-linejoin="round"/>
<path d="M358.002 251.797L432.207 216.068" stroke="black" stroke-linecap="round" stroke-linejoin="round"/>
<path d="M283.798 243.689L358.003 279.417C358.003 279.417 429.454 245.014 432.207 243.689" stroke="black" stroke-linecap="round" stroke-linejoin="round"/>
<path d="M415.795 279.206L432.207 271.299V216.068L415.795 223.975V279.206Z" fill="black" stroke="black" stroke-linecap="round" stroke-linejoin="round"/>
<path d="M358.003 125.118L283.798 160.837V216.068L358.003 251.797L432.207 216.068V160.837L358.003 125.118Z" fill="#00ED64"/>
<path d="M432.207 160.837L358.003 196.566L283.798 160.837L358.003 125.118L432.207 160.837Z" fill="white"/>
<path d="M358.003 125.118L283.798 160.837V216.068L358.003 251.797L432.207 216.068V160.837L358.003 125.118Z" stroke="black" stroke-linecap="round" stroke-linejoin="round"/>
<path d="M283.798 160.837L358.003 196.566V251.797" stroke="black" stroke-linecap="round" stroke-linejoin="round"/>
<path d="M358.002 196.566L432.207 160.837" stroke="black" stroke-linecap="round" stroke-linejoin="round"/>
<path d="M283.798 188.458L358.003 224.186C358.003 224.186 429.454 189.784 432.207 188.458" stroke="black" stroke-linecap="round" stroke-linejoin="round"/>
<path d="M415.795 223.975L432.207 216.068V160.837L415.795 168.744V223.975Z" fill="black" stroke="black" stroke-linecap="round" stroke-linejoin="round"/>
<path d="M358.003 69.8875L283.798 105.616V160.837L358.003 196.566L432.207 160.837V105.616L358.003 69.8875Z" fill="#00ED64"/>
<path d="M432.207 105.616L358.003 141.335L283.798 105.616L358.003 69.8875L432.207 105.616Z" fill="white"/>
<path d="M358.003 69.8875L283.798 105.616V160.837L358.003 196.566L432.207 160.837V105.616L358.003 69.8875Z" stroke="black" stroke-linecap="round" stroke-linejoin="round"/>
<path d="M283.798 105.616L358.003 141.335V196.566" stroke="black" stroke-linecap="round" stroke-linejoin="round"/>
<path d="M358.002 141.335L432.207 105.616" stroke="black" stroke-linecap="round" stroke-linejoin="round"/>
<path d="M283.798 133.227L358.003 168.955C358.003 168.955 429.454 134.553 432.207 133.227" stroke="black" stroke-linecap="round" stroke-linejoin="round"/>
<path d="M415.795 168.744L432.207 160.838V105.616L415.795 113.523V168.744Z" fill="black" stroke="black" stroke-linecap="round" stroke-linejoin="round"/>
<path d="M469.314 300.841L395.109 336.56V391.791L469.314 427.52L543.519 391.791V336.56L469.314 300.841Z" fill="black" stroke="black" stroke-linecap="round" stroke-linejoin="round"/>
<path d="M469.314 290.494L395.109 326.223V381.444L469.314 417.173L543.519 381.444V326.223L469.314 290.494Z" fill="#00ED64"/>
<path d="M543.519 326.223L469.314 361.942L395.109 326.223L469.314 290.494L543.519 326.223Z" fill="white"/>
<path d="M469.314 331.391L395.109 326.223V381.444L469.314 417.173L543.519 381.444V326.223L469.314 331.391Z" stroke="black" stroke-linecap="round" stroke-linejoin="round"/>
<path d="M469.314 361.942V417.173" stroke="black" stroke-linecap="round" stroke-linejoin="round"/>
<path d="M395.109 353.833L469.314 389.562C469.314 389.562 540.766 355.159 543.519 353.833" stroke="black" stroke-linecap="round" stroke-linejoin="round"/>
<path d="M527.106 389.351L543.518 381.444V326.223L527.106 334.12V389.351Z" fill="black" stroke="black" stroke-linecap="round" stroke-linejoin="round"/>
<path d="M543.519 326.223L469.314 361.942L395.109 326.223L469.314 290.494L543.519 326.223Z" fill="#B1FF05" stroke="black" stroke-linecap="round" stroke-linejoin="round"/>
<path d="M305.802 83.0107L297.101 74.153L301.288 60.78L310.105 69.2535L305.802 83.0107Z" fill="black" stroke="black" stroke-linecap="round" stroke-linejoin="round"/>
<path d="M305.831 83.0204L318.046 80.6762L322.224 67.3032L310.134 69.2631L305.831 83.0204Z" fill="white" stroke="black" stroke-linecap="round" stroke-linejoin="round"/>
<path d="M313.329 58.9739L301.287 60.78L310.133 69.263L322.223 67.3032L313.329 58.9739Z" fill="white" stroke="black" stroke-linecap="round" stroke-linejoin="round"/>
<path d="M469.314 235.263L395.109 270.992V326.223L469.314 361.942L543.519 326.223V270.992L469.314 235.263Z" stroke="black" stroke-linecap="round" stroke-linejoin="round" stroke-dasharray="2 2"/>
<path d="M395.109 270.992L469.314 306.721V361.942" stroke="black" stroke-linecap="round" stroke-linejoin="round" stroke-dasharray="2 2"/>
<path d="M469.314 306.721L543.519 270.992" stroke="black" stroke-linecap="round" stroke-linejoin="round" stroke-dasharray="2 2"/>
<path d="M421.33 171.568L436.269 164.373L437.915 172.058L422.976 179.245L421.33 171.568Z" fill="#00C954" stroke="black" stroke-linecap="round" stroke-linejoin="round"/>
<path d="M421.33 171.569L422.889 173.24V178.995L421.33 177.314V171.569Z" fill="#00ED64" stroke="black" stroke-linecap="round" stroke-linejoin="round"/>
<path d="M517.298 171.568L502.369 164.373L500.713 172.058L515.652 179.245L517.298 171.568Z" fill="#00A564" stroke="black" stroke-linecap="round" stroke-linejoin="round"/>
<path d="M517.299 171.569L515.739 173.24V178.995L517.299 177.314V171.569Z" fill="#00ED64" stroke="black" stroke-linecap="round" stroke-linejoin="round"/>
<path d="M469.314 154.026L395.109 189.755V244.986L469.314 280.714L543.519 244.986V189.755L469.314 154.026Z" fill="#00ED64"/>
<path d="M543.519 189.755L469.314 225.483L395.109 189.755L469.314 154.026L543.519 189.755Z" fill="white"/>
<path d="M469.314 154.026L395.109 189.755V244.986L469.314 280.714L543.519 244.986V189.755L469.314 154.026Z" stroke="black" stroke-linecap="round" stroke-linejoin="round"/>
<path d="M395.109 189.755L469.314 225.483V280.714" stroke="black" stroke-linecap="round" stroke-linejoin="round"/>
<path d="M469.314 225.483L543.519 189.755" stroke="black" stroke-linecap="round" stroke-linejoin="round"/>
<path d="M395.109 217.365L469.314 253.094C469.314 253.094 540.766 218.691 543.519 217.365" stroke="black" stroke-linecap="round" stroke-linejoin="round"/>
<path d="M527.106 252.892L543.518 244.986V189.755L527.106 197.661V252.892Z" fill="black" stroke="black" stroke-linecap="round" stroke-linejoin="round"/>
<path d="M421.33 171.569L436.269 164.373L468.227 161.558L453.287 168.744L421.33 171.569Z" fill="#B1FF05" stroke="black" stroke-linecap="round" stroke-linejoin="round"/>
<path d="M421.33 171.569L422.889 173.24L454.847 170.425L453.287 168.744L421.33 171.569Z" fill="#00ED64" stroke="black" stroke-linecap="round" stroke-linejoin="round"/>
<path d="M517.298 171.569L502.369 164.373L470.411 161.558L485.341 168.744L517.298 171.569Z" fill="#B1FF05" stroke="black" stroke-linecap="round" stroke-linejoin="round"/>
<path d="M517.298 171.569L515.739 173.24L483.791 170.425L485.341 168.744L517.298 171.569Z" fill="#00ED64" stroke="black" stroke-linecap="round" stroke-linejoin="round"/>
<path d="M246.69 300.841L172.485 336.56V391.791L246.69 427.52L320.895 391.791V336.56L246.69 300.841Z" fill="black" stroke="black" stroke-linecap="round" stroke-linejoin="round"/>
<path d="M246.69 290.494L172.485 326.223V381.444L246.69 417.173L320.895 381.444V326.223L246.69 290.494Z" fill="#00ED64"/>
<path d="M320.895 326.223L246.69 361.942L172.485 326.223L246.69 290.494L320.895 326.223Z" fill="white" stroke="black" stroke-linecap="round" stroke-linejoin="round"/>
<path d="M246.69 290.494L172.485 326.223V381.444L246.69 417.173L320.895 381.444V326.223L246.69 290.494Z" stroke="black" stroke-linecap="round" stroke-linejoin="round"/>
<path d="M172.485 326.223L246.69 361.942V417.173" stroke="black" stroke-linecap="round" stroke-linejoin="round"/>
<path d="M246.69 361.942L320.895 326.223" stroke="black" stroke-linecap="round" stroke-linejoin="round"/>
<path d="M172.485 353.833L246.69 389.562C246.69 389.562 318.142 355.159 320.895 353.833" stroke="black" stroke-linecap="round" stroke-linejoin="round"/>
<path d="M304.483 389.351L320.895 381.444V326.223L304.483 334.12V389.351Z" fill="black" stroke="black" stroke-linecap="round" stroke-linejoin="round"/>
<path d="M246.69 235.263L172.485 270.992V326.223L246.69 361.942L320.895 326.223V270.992L246.69 235.263Z" fill="#00ED64" stroke="black" stroke-linecap="round" stroke-linejoin="round"/>
<path d="M320.895 270.992L246.69 306.721L172.485 270.992L246.69 235.263L320.895 270.992Z" fill="white" stroke="black" stroke-linecap="round" stroke-linejoin="round"/>
<path d="M246.69 235.263L172.485 270.992V326.223L246.69 361.942L320.895 326.223V270.992L246.69 235.263Z" stroke="black" stroke-linecap="round" stroke-linejoin="round"/>
<path d="M172.485 270.992L246.69 306.721V361.942" stroke="black" stroke-linecap="round" stroke-linejoin="round"/>
<path d="M246.69 306.721L320.895 270.992" stroke="black" stroke-linecap="round" stroke-linejoin="round"/>
<path d="M172.485 298.603L246.69 334.331C246.69 334.331 318.142 299.928 320.895 298.603" stroke="black" stroke-linecap="round" stroke-linejoin="round"/>
<path d="M304.483 334.12L320.895 326.223V270.992L304.483 278.899V334.12Z" fill="black" stroke="black" stroke-linecap="round" stroke-linejoin="round"/>
<path d="M246.69 180.032L172.485 215.761V270.992L246.69 306.721L320.895 270.992V215.761L246.69 180.032Z" fill="#00ED64"/>
<path d="M320.895 215.761L246.69 251.49L172.485 215.761L246.69 180.032L320.895 215.761Z" fill="white"/>
<path d="M246.69 180.032L172.485 215.761V270.992L246.69 306.721L320.895 270.992V215.761L246.69 180.032Z" stroke="black" stroke-linecap="round" stroke-linejoin="round"/>
<path d="M172.485 215.761L246.69 251.49V306.721" stroke="black" stroke-linecap="round" stroke-linejoin="round"/>
<path d="M246.69 251.49L320.895 215.761" stroke="black" stroke-linecap="round" stroke-linejoin="round"/>
<path d="M172.485 243.372L246.69 279.1C246.69 279.1 318.142 244.697 320.895 243.372" stroke="black" stroke-linecap="round" stroke-linejoin="round"/>
<path d="M304.483 278.899L320.895 270.992V215.761L304.483 223.668V278.899Z" fill="black" stroke="black" stroke-linecap="round" stroke-linejoin="round"/>
<path d="M162.119 267.946V248.819" stroke="black" stroke-linecap="square" stroke-linejoin="round"/>
<path d="M162.119 297.421V272.654" stroke="black" stroke-linecap="square" stroke-linejoin="round"/>
<path d="M473.839 170.377L458.909 163.191L414.092 202.897L429.031 210.093L473.839 170.377Z" fill="#B1FF05" stroke="black" stroke-linecap="round" stroke-linejoin="round"/>
<path d="M473.838 170.377L475.725 171.184L430.917 210.9L429.03 210.093L473.838 170.377Z" fill="#00ED64" stroke="black" stroke-linecap="round" stroke-linejoin="round"/>
<path d="M431.235 226.809H433.015L430.917 210.9L429.03 210.093L431.235 226.809Z" fill="#00ED64" stroke="black" stroke-linecap="round" stroke-linejoin="round"/>
<path d="M431.235 226.809L416.296 219.613L414.092 202.897L429.031 210.093L431.235 226.809Z" fill="#B1FF05" stroke="black" stroke-linecap="round" stroke-linejoin="round"/>
<path d="M464.79 170.377L479.729 163.191L524.537 202.897L509.598 210.093L464.79 170.377Z" fill="#B1FF05" stroke="black" stroke-linecap="round" stroke-linejoin="round"/>
<path d="M464.79 170.377L462.903 171.184L507.721 210.9L509.598 210.093L464.79 170.377Z" fill="#00ED64" stroke="black" stroke-linecap="round" stroke-linejoin="round"/>
<path d="M507.403 226.809H505.622L507.72 210.9L509.597 210.093L507.403 226.809Z" fill="#00ED64" stroke="black" stroke-linecap="round" stroke-linejoin="round"/>
<path d="M507.403 226.809L522.333 219.613L524.537 202.897L509.598 210.093L507.403 226.809Z" fill="#B1FF05" stroke="black" stroke-linecap="round" stroke-linejoin="round"/>
<path d="M433.015 226.809L435.133 209.046L473.838 180.878L469.314 176.545L430.917 210.9L433.015 226.809Z" fill="black"/>
<path d="M497.969 171.674L528.695 196.893L522.332 219.613L524.536 202.897L488.344 170.829L497.969 171.674Z" fill="black"/>
<path d="M428.366 173.749L431.023 172.52L450.284 170.829L446.992 173.749H428.366Z" fill="black"/>
<path d="M494.293 171.348L507.759 172.539L515.056 176.142L500.713 177.208L494.293 171.348Z" fill="black"/>
<path d="M347.106 323.984C346.991 323.984 346.885 323.984 346.769 323.984C340.474 312.677 328.384 305.02 314.504 305.02C294.126 305.02 277.608 321.506 277.608 341.844C277.608 362.182 294.126 378.668 314.504 378.668H347.106C362.238 378.668 374.501 366.428 374.501 351.326C374.501 336.224 362.238 323.984 347.106 323.984Z" fill="black" stroke="black" stroke-linecap="round" stroke-linejoin="round"/>
<path d="M347.106 313.638C346.991 313.638 346.885 313.638 346.769 313.638C340.474 302.33 328.384 294.673 314.504 294.673C294.126 294.673 277.608 311.159 277.608 331.497C277.608 351.835 294.126 368.321 314.504 368.321H347.106C362.238 368.321 374.501 356.082 374.501 340.979C374.501 325.877 362.238 313.638 347.106 313.638Z" fill="white" stroke="black" stroke-linecap="round" stroke-linejoin="round"/>
<path d="M443.97 338.424L494.659 314.012" stroke="black" stroke-linecap="round" stroke-linejoin="round"/>
<path d="M494.659 338.424L443.97 314.012" stroke="black" stroke-linecap="round" stroke-linejoin="round"/>
<path d="M395.109 326.223L469.314 290.494V235.263" stroke="black" stroke-linecap="round" stroke-linejoin="round" stroke-dasharray="2 2"/>
<path d="M469.314 290.494L543.519 326.223" stroke="black" stroke-linecap="round" stroke-linejoin="round" stroke-dasharray="2 2"/>
<path d="M452.979 135.1V169.926C452.979 173.586 460.295 176.545 469.314 176.545C478.333 176.545 485.649 173.576 485.649 169.926V135.1H452.97H452.979Z" fill="#B1FF05" stroke="black" stroke-linecap="round" stroke-linejoin="round"/>
<path d="M469.314 141.719C478.336 141.719 485.649 138.756 485.649 135.1C485.649 131.444 478.336 128.481 469.314 128.481C460.293 128.481 452.979 131.444 452.979 135.1C452.979 138.756 460.293 141.719 469.314 141.719Z" fill="#00ED64" stroke="black" stroke-linecap="round" stroke-linejoin="round"/>
<path d="M463.375 42.8916V134.812C463.375 136.138 466.032 137.223 469.314 137.223C472.596 137.223 475.253 136.147 475.253 134.812V42.8916H463.375Z" fill="#B1FF05" stroke="black" stroke-linecap="round" stroke-linejoin="round"/>
<path d="M469.314 45.3032C472.594 45.3032 475.253 44.2236 475.253 42.8918C475.253 41.5601 472.594 40.4805 469.314 40.4805C466.034 40.4805 463.375 41.5601 463.375 42.8918C463.375 44.2236 466.034 45.3032 469.314 45.3032Z" fill="#00ED64" stroke="black" stroke-linecap="round" stroke-linejoin="round"/>
<path d="M137.217 194.433L146.342 202.426L155.477 210.419L143.975 214.31L132.481 218.201L134.849 206.317L137.217 194.433Z" fill="white" stroke="black" stroke-linecap="round" stroke-linejoin="round"/>
<path d="M141.597 207.316L132.481 218.201L155.477 210.419L141.597 207.316Z" fill="black"/>
<path d="M141.905 208.104L137.535 195.231" stroke="black" stroke-linecap="round" stroke-linejoin="round"/>
<path d="M321.646 90.3409L330.357 99.2082L330.366 99.1505L330.376 99.2178L342.591 96.8737L346.778 83.5007L340.984 78.0823L322.733 86.8631L321.646 90.3409Z" fill="black" stroke="black" stroke-linecap="round" stroke-linejoin="round"/>
</g>
<defs>
<clipPath id="clip0_4953_16404">
<rect width="412" height="388" fill="white" transform="translate(132 40)"/>
</clipPath>
</defs>
</svg>
