<svg width="696" height="468" viewBox="0 0 696 468" fill="none" xmlns="http://www.w3.org/2000/svg">
<g clip-path="url(#clip0_4697_35776)">
<path d="M251.673 306.094L244.751 262.606L138.564 279.562L144.479 316.687L145.477 323.06C147.362 334.9 172.667 340.715 201.981 336.027C231.295 331.339 253.568 317.944 251.673 306.094Z" fill="black" stroke="black" stroke-miterlimit="10"/>
<path d="M138.325 277.887L144.31 315.31C146.195 327.15 171.5 332.965 200.814 328.277C230.129 323.589 252.381 310.224 250.486 298.354L244.502 260.931L138.325 277.887Z" fill="#00ED64" stroke="black" stroke-miterlimit="10"/>
<path d="M248.262 284.659C250.147 296.499 227.904 309.884 198.59 314.582C169.275 319.28 143.971 313.435 142.085 301.616" stroke="black" stroke-miterlimit="10"/>
<path d="M157.057 290.674L163.959 334.052C163.959 334.052 146.674 330.651 145.307 321.854L138.325 277.827C138.325 277.827 138.136 282.735 146.305 286.934C149.663 288.753 153.294 290.016 157.057 290.674Z" fill="black" stroke="black" stroke-miterlimit="10"/>
<path d="M194.798 290.881C224.12 286.21 246.361 272.824 244.475 260.98C242.589 249.137 217.289 243.323 187.967 247.993C158.645 252.664 136.404 266.05 138.291 277.893C140.177 289.736 165.476 295.551 194.798 290.881Z" fill="white" stroke="black" stroke-miterlimit="10"/>
<path d="M185.896 278.287C194.436 277.896 201.266 275.536 201.151 273.016C201.036 270.495 194.019 268.769 185.478 269.16C176.938 269.551 170.108 271.911 170.223 274.431C170.338 276.951 177.355 278.678 185.896 278.287Z" fill="black" stroke="black" stroke-miterlimit="10"/>
<path d="M180.626 263.574L182.431 274.895C182.79 277.149 187.418 278.296 192.675 277.448C197.931 276.6 201.981 274.097 201.652 271.842L199.846 260.502L180.626 263.574Z" fill="#B1FF05" stroke="black" stroke-miterlimit="10"/>
<path d="M188.536 270.177L189.743 277.737C189.743 277.737 182.761 277.987 182.282 274.915L181.644 270.925L188.536 270.177Z" fill="black" stroke="black" stroke-width="0.52" stroke-miterlimit="10"/>
<path d="M127.962 212.954L134.944 256.452C136.829 268.292 162.124 274.107 191.448 269.419C220.773 264.731 243.005 251.365 241.12 239.496L234.188 195.998L127.962 212.954Z" fill="#00ED64" stroke="black" stroke-miterlimit="10"/>
<path d="M237.739 218.6C239.624 230.439 217.382 243.835 188.067 248.522C158.753 253.21 133.438 247.385 131.553 235.556" stroke="black" stroke-miterlimit="10"/>
<path d="M146.733 225.921L153.645 269.299C153.645 269.299 136.33 265.918 134.954 257.1L127.972 213.064C127.972 213.064 127.782 217.981 135.951 222.17C139.319 223.994 142.96 225.261 146.733 225.921Z" fill="black" stroke="black" stroke-miterlimit="10"/>
<path d="M185.505 226.014C214.9 221.264 237.174 207.788 235.255 195.916C233.336 184.043 207.952 178.27 178.557 183.02C149.162 187.771 126.888 201.247 128.807 213.119C130.726 224.992 156.111 230.765 185.505 226.014Z" fill="white" stroke="black" stroke-width="1.00285" stroke-miterlimit="10"/>
<path d="M175.175 213.274C183.716 212.883 190.545 210.523 190.43 208.003C190.315 205.482 183.298 203.756 174.757 204.147C166.217 204.538 159.387 206.898 159.502 209.418C159.618 211.938 166.635 213.665 175.175 213.274Z" fill="black" stroke="black" stroke-miterlimit="10"/>
<path d="M428.378 211.797C428.378 202.224 424.575 193.042 417.805 186.273C411.036 179.503 401.854 175.7 392.281 175.7C392.277 159.774 387.009 144.296 377.295 131.675C367.582 119.053 353.969 109.997 338.575 105.915C323.181 101.833 306.869 102.955 292.178 109.106C277.488 115.256 265.243 126.091 257.348 139.922C255.361 139.706 253.363 139.597 251.364 139.593C244.253 139.593 237.211 140.994 230.641 143.715C224.072 146.437 218.102 150.425 213.074 155.454C208.045 160.482 204.057 166.451 201.335 173.021C198.614 179.591 197.213 186.633 197.213 193.744C197.213 200.855 198.614 207.896 201.335 214.466C204.057 221.036 208.045 227.006 213.074 232.034C218.102 237.062 224.072 241.051 230.641 243.772C237.211 246.494 244.253 247.894 251.364 247.894H428.378C430.783 247.951 433.176 247.526 435.416 246.644C437.655 245.763 439.695 244.442 441.417 242.761C443.138 241.079 444.506 239.07 445.44 236.852C446.374 234.634 446.855 232.252 446.855 229.846C446.855 227.439 446.374 225.057 445.44 222.839C444.506 220.621 443.138 218.612 441.417 216.931C439.695 215.249 437.655 213.929 435.416 213.047C433.176 212.166 430.783 211.741 428.378 211.797Z" fill="black" stroke="black" stroke-miterlimit="10"/>
<path d="M268.11 139.524L258.266 82.7898C257.217 76.7989 254.991 71.0753 251.716 65.9502C248.441 60.825 244.183 56.3999 239.187 52.9309C234.191 49.4619 228.557 47.0178 222.611 45.7399C216.665 44.462 210.524 44.3757 204.544 45.486L202.709 45.8351C190.977 48.0138 180.552 54.6698 173.639 64.3956C166.726 74.1214 163.866 86.1546 165.664 97.9508L165.814 98.9482L161.705 99.5766L161.545 98.5791C159.583 85.7115 162.702 72.5853 170.243 61.9756C177.783 51.3658 189.154 44.1041 201.951 41.7257L203.786 41.3766C210.31 40.1635 217.011 40.2573 223.498 41.6525C229.986 43.0478 236.132 45.7168 241.581 49.5048C247.03 53.2928 251.673 58.1246 255.24 63.72C258.808 69.3155 261.23 75.5634 262.365 82.1016L272.21 138.825L268.11 139.524Z" fill="#B1FF05" stroke="black" stroke-miterlimit="10"/>
<path d="M428.378 191.849C428.378 182.275 424.575 173.094 417.805 166.324C411.036 159.555 401.854 155.752 392.281 155.752C392.277 139.825 387.009 124.347 377.295 111.726C367.582 99.1047 353.969 90.0484 338.575 85.9666C323.181 81.8847 306.869 83.0064 292.178 89.1569C277.488 95.3074 265.243 106.142 257.348 119.974C255.361 119.758 253.363 119.648 251.364 119.645C237.002 119.645 223.229 125.35 213.074 135.505C202.919 145.66 197.213 159.433 197.213 173.795C197.213 188.157 202.919 201.93 213.074 212.085C223.229 222.24 237.002 227.945 251.364 227.945H428.378C430.783 228.002 433.176 227.577 435.416 226.695C437.655 225.814 439.695 224.493 441.417 222.812C443.138 221.13 444.506 219.122 445.44 216.904C446.374 214.686 446.855 212.304 446.855 209.897C446.855 207.49 446.374 205.108 445.44 202.89C444.506 200.672 443.138 198.664 441.417 196.982C439.695 195.301 437.655 193.98 435.416 193.099C433.176 192.217 430.783 191.792 428.378 191.849Z" fill="white" stroke="black" stroke-linecap="round" stroke-linejoin="round"/>
<path d="M288.059 203.878C288.059 205.229 287.659 206.55 286.908 207.673C286.157 208.797 285.09 209.673 283.842 210.19C282.593 210.707 281.219 210.842 279.894 210.579C278.569 210.315 277.351 209.664 276.396 208.709C275.44 207.753 274.789 206.536 274.526 205.21C274.262 203.885 274.397 202.511 274.915 201.263C275.432 200.014 276.307 198.947 277.431 198.197C278.555 197.446 279.876 197.045 281.227 197.045C283.039 197.045 284.777 197.765 286.058 199.046C287.339 200.328 288.059 202.066 288.059 203.878ZM281.227 200.566C280.572 200.566 279.932 200.76 279.387 201.124C278.843 201.488 278.418 202.005 278.168 202.61C277.917 203.215 277.851 203.881 277.979 204.524C278.107 205.166 278.422 205.756 278.885 206.219C279.348 206.682 279.939 206.998 280.581 207.125C281.223 207.253 281.889 207.188 282.494 206.937C283.099 206.686 283.616 206.262 283.98 205.717C284.344 205.173 284.538 204.533 284.538 203.878C284.538 203.443 284.453 203.012 284.286 202.61C284.12 202.209 283.876 201.844 283.568 201.536C283.261 201.229 282.896 200.985 282.494 200.818C282.092 200.652 281.662 200.566 281.227 200.566Z" fill="#B1FF05" stroke="black" stroke-miterlimit="10"/>
<path d="M322.391 342.849L315.02 341.064C308.795 339.555 303.186 336.165 298.957 331.355C294.727 326.546 292.082 320.55 291.381 314.183L279.262 204.466C279.216 203.954 279.37 203.444 279.692 203.042C280.013 202.641 280.477 202.379 280.987 202.312C281.498 202.269 282.006 202.424 282.405 202.745C282.804 203.067 283.064 203.529 283.132 204.037L295.251 313.754C295.875 319.32 298.195 324.56 301.895 328.764C305.594 332.969 310.496 335.936 315.937 337.264L323.308 339.049L322.391 342.849Z" fill="#B1FF05" stroke="black" stroke-miterlimit="10"/>
<path d="M518.1 189.703L336.359 182.433L330.964 317.295L512.706 324.565L518.1 189.703Z" fill="black" stroke="black" stroke-width="1.0008" stroke-linecap="round" stroke-linejoin="round"/>
<path d="M525.575 183.103L344 175.334L338.235 310.073L519.81 317.842L525.575 183.103Z" fill="#E3FCF7" stroke="black" stroke-linecap="round" stroke-linejoin="round"/>
<path d="M447.96 215.257C450.312 215.358 452.528 216.389 454.12 218.123C455.712 219.857 456.55 222.153 456.449 224.505L453.379 296.255L435.651 295.496L438.721 223.747C438.822 221.396 439.851 219.182 441.583 217.59C443.316 215.998 445.609 215.159 447.96 215.257Z" fill="#00ED64"/>
<path d="M476.518 202.95C478.87 203.05 481.086 204.081 482.678 205.816C484.271 207.55 485.108 209.846 485.008 212.198L481.276 299.423L463.548 298.665L467.28 211.43C467.383 209.081 468.414 206.869 470.146 205.279C471.878 203.69 474.169 202.852 476.518 202.95Z" fill="#00ED64"/>
<path d="M419.091 228.763C421.443 228.864 423.659 229.895 425.251 231.629C426.843 233.364 427.681 235.659 427.581 238.012L425.482 287.05L407.754 286.292L409.852 237.253C409.902 236.088 410.181 234.945 410.673 233.888C411.165 232.831 411.86 231.881 412.718 231.093C413.577 230.305 414.583 229.693 415.678 229.293C416.773 228.894 417.936 228.714 419.101 228.764L419.091 228.763Z" fill="#00ED64"/>
<path d="M389.589 240.061C391.942 240.161 394.157 241.192 395.75 242.927C397.342 244.661 398.18 246.957 398.079 249.309L396.517 285.812L378.749 285.051L380.31 248.579C380.356 247.409 380.633 246.26 381.125 245.197C381.617 244.135 382.314 243.18 383.177 242.389C384.039 241.597 385.05 240.984 386.151 240.584C387.251 240.185 388.42 240.007 389.589 240.061Z" fill="#00ED64"/>
<path d="M507.424 300.578L356.134 294.095L360.253 198.013" stroke="black" stroke-linecap="round" stroke-linejoin="round"/>
<path d="M551.943 294.029L372.096 267.856L352.675 401.313L532.522 427.485L551.943 294.029Z" fill="black" stroke="black" stroke-linecap="round" stroke-linejoin="round"/>
<path d="M170.243 198.322L172.048 209.653C172.407 211.907 177.035 213.054 182.302 212.206C187.568 211.358 191.608 208.845 191.278 206.591L189.473 195.26L170.243 198.322Z" fill="#B1FF05" stroke="black" stroke-miterlimit="10"/>
<path d="M117.618 148.021L124.54 191.519C126.435 203.359 151.73 209.174 181.055 204.486C210.379 199.798 232.612 186.432 230.727 174.563L223.795 131.065L117.618 148.021Z" fill="#00ED64" stroke="black" stroke-miterlimit="10"/>
<path d="M174.11 161.02C203.432 156.35 225.673 142.963 223.786 131.12C221.9 119.277 196.601 113.462 167.279 118.133C137.957 122.803 115.716 136.19 117.602 148.033C119.488 159.876 144.788 165.69 174.11 161.02Z" fill="#B1FF05" stroke="black" stroke-miterlimit="10"/>
<path d="M227.206 152.55C229.101 164.389 206.859 177.775 177.534 182.473C148.21 187.171 122.915 181.336 121.03 169.506" stroke="black" stroke-miterlimit="10"/>
<path d="M177.454 204.955L178.661 212.515C178.661 212.515 171.679 212.765 171.2 209.693L170.562 205.703L177.454 204.955Z" fill="black" stroke="black" stroke-width="0.52" stroke-miterlimit="10"/>
<path d="M563.4 284.289L383.553 258.116L364.131 391.573L543.978 417.746L563.4 284.289Z" fill="white" stroke="black" stroke-linecap="round" stroke-linejoin="round"/>
<path d="M489.829 346.45L509.089 355.427C511.138 350.124 512.245 344.504 512.361 338.82L491.216 337.334C491.269 340.429 490.8 343.511 489.829 346.45Z" fill="#00684A"/>
<path d="M489.829 346.45C488.315 351.101 485.585 355.262 481.922 358.503C478.259 361.744 473.796 363.947 468.996 364.885C464.196 365.822 459.232 365.459 454.619 363.834C450.006 362.208 445.912 359.379 442.759 355.64C439.607 351.9 437.511 347.386 436.689 342.565C435.867 337.744 436.349 332.79 438.084 328.217C439.82 323.645 442.746 319.619 446.56 316.557C450.374 313.495 454.937 311.508 459.776 310.802L454.241 290.295C445.965 291.952 438.265 295.737 431.897 301.277C425.53 306.816 420.716 313.919 417.929 321.885C415.143 329.852 414.48 338.407 416.006 346.707C417.532 355.008 421.194 362.767 426.632 369.222C432.07 375.676 439.096 380.602 447.017 383.515C454.938 386.427 463.481 387.225 471.805 385.831C480.129 384.437 487.946 380.898 494.485 375.563C501.025 370.228 506.062 363.281 509.099 355.407L489.829 346.45Z" fill="#A6FFEC"/>
<path d="M484.433 319.958L500.392 306.094C494.772 299.619 487.538 294.747 479.425 291.972C471.312 289.197 462.61 288.618 454.201 290.295L459.777 310.802C464.325 310.137 468.967 310.627 473.276 312.227C477.585 313.827 481.422 316.486 484.433 319.958Z" fill="#00ED64"/>
<path d="M491.176 337.334L512.321 338.82C512.542 326.809 508.291 315.145 500.392 306.094L484.433 319.959C488.646 324.782 491.032 330.931 491.176 337.334Z" fill="#B1FF05"/>
<path d="M161.808 147.553C174.434 145.542 184.109 140.388 183.416 136.041C182.724 131.695 171.927 129.802 159.301 131.813C146.674 133.824 137 138.978 137.692 143.324C138.384 147.671 149.181 149.564 161.808 147.553Z" fill="black" stroke="black" stroke-miterlimit="10"/>
<path d="M166.064 143.972C158.902 143.972 153.486 141.339 152.888 137.578C152.13 132.801 159.012 127.714 168.238 126.248C169.871 125.988 171.522 125.855 173.175 125.849C180.337 125.849 185.753 128.482 186.351 132.242C187.109 137.02 180.227 142.097 171.001 143.573C169.368 143.833 167.717 143.966 166.064 143.972Z" fill="white"/>
<path d="M173.175 126.348C180.087 126.348 185.304 128.801 185.862 132.332C186.561 136.761 179.728 141.688 170.901 143.084C169.295 143.349 167.671 143.482 166.044 143.483C159.141 143.483 153.925 141.02 153.356 137.499C153.037 135.434 154.354 133.19 156.987 131.175C160.351 128.817 164.228 127.296 168.298 126.737C169.904 126.48 171.528 126.35 173.155 126.348M173.155 125.35C171.485 125.354 169.817 125.491 168.168 125.759C158.663 127.275 151.601 132.601 152.409 137.658C153.067 141.798 158.792 144.471 166.073 144.471C167.744 144.467 169.412 144.33 171.061 144.062C180.576 142.546 187.628 137.22 186.82 132.163C186.162 128.023 180.436 125.35 173.155 125.35Z" fill="black"/>
<path d="M152.199 137.638C153.027 142.805 161.406 145.767 170.921 144.241C180.437 142.715 187.488 137.309 186.671 132.142L185.843 126.996C185.025 121.829 176.636 118.877 167.121 120.393C157.605 121.909 150.554 127.375 151.381 132.492L152.199 137.638Z" fill="#B1FF05" stroke="black" stroke-miterlimit="10"/>
<path d="M160.498 104.035L160.288 102.738C160.205 102.219 160.225 101.688 160.347 101.176C160.469 100.664 160.692 100.181 161.001 99.7558C161.311 99.3303 161.702 98.9702 162.151 98.6964C162.601 98.4225 163.1 98.2402 163.62 98.1601C164.139 98.0748 164.671 98.0932 165.183 98.2143C165.696 98.3353 166.179 98.5566 166.606 98.8654C167.032 99.1741 167.393 99.5643 167.668 100.013C167.943 100.462 168.127 100.961 168.208 101.482L168.408 102.778C175.719 102.908 181.713 106.668 182.591 112.154C182.632 112.412 182.659 112.671 182.671 112.932L184.915 127.145C185.653 131.803 178.93 136.741 169.954 138.117C160.977 139.494 153.087 136.94 152.349 132.282L150.055 118.069C149.995 117.819 149.935 117.57 149.895 117.311C149.067 111.875 153.596 106.439 160.498 104.035Z" fill="#B1FF05" stroke="black" stroke-miterlimit="10"/>
<path d="M165.405 96.7039L165.665 98.3696C165.169 98.9065 164.488 99.2347 163.759 99.2872C163.061 99.4621 162.324 99.388 161.675 99.0777L161.396 97.3522C162.037 97.6411 162.757 97.7078 163.44 97.5417C164.165 97.4664 164.849 97.1744 165.405 96.7039Z" fill="black" stroke="black" stroke-linecap="round" stroke-linejoin="round"/>
<path d="M158.563 137.698L155.411 117.919C155.411 117.919 153.416 107.556 161.326 104.205C162.174 103.836 160.837 103.955 161.944 103.776C161.944 103.776 162.363 103.486 160.498 104.035C157.857 104.887 155.461 106.365 153.516 108.344C148.599 112.982 149.766 116.533 150.683 122.308C151.601 128.083 152.449 132.871 152.449 132.871C152.449 132.871 153.087 136.052 158.563 137.698Z" fill="black" stroke="black" stroke-miterlimit="10"/>
<path d="M160.917 144.151L159.919 138.067C157.933 137.584 156.051 136.746 154.364 135.594C152.658 133.788 152.638 133.898 151.88 129.15C151.457 129.827 151.251 130.617 151.292 131.414C151.318 132.179 151.412 132.94 151.571 133.688C152.02 136.521 152.369 138.426 152.369 138.426C153.067 140.085 154.294 141.467 155.86 142.356C157.431 143.238 159.141 143.845 160.917 144.151Z" fill="black" stroke="black" stroke-miterlimit="10"/>
<path d="M160.498 104.035L160.249 101.98C161.755 103.556 166.233 103.187 168.078 100.983L168.408 102.818C168.408 102.818 167.679 104.723 164.797 105.132C161.665 105.581 160.498 104.075 160.498 104.075" fill="black"/>
<path d="M160.498 104.035L160.249 101.98C161.755 103.556 166.233 103.187 168.078 100.983L168.408 102.818C168.408 102.818 167.679 104.723 164.797 105.132C161.665 105.581 160.498 104.075 160.498 104.075" stroke="black" stroke-linecap="round" stroke-linejoin="round"/>
<path d="M372.083 267.873L383.533 258.128L364.113 391.584L352.653 401.319L372.083 267.873Z" fill="black" stroke="black" stroke-linecap="round" stroke-linejoin="round"/>
<path d="M357.271 362.748C357.054 362.751 356.837 362.734 356.622 362.698C351.835 362.01 349.042 353.921 350.379 344.675C351.655 335.957 356.253 329.125 360.852 329.125C361.069 329.122 361.286 329.138 361.5 329.175C363.764 329.504 365.659 331.519 366.856 334.84C368.128 338.831 368.432 343.067 367.744 347.198C366.477 355.916 361.879 362.748 357.271 362.748Z" fill="white"/>
<path d="M360.851 329.624C361.044 329.609 361.237 329.609 361.43 329.624C363.495 329.923 365.26 331.828 366.417 334.97C367.664 338.884 367.958 343.038 367.275 347.089C366.068 355.427 361.59 362.21 357.301 362.21C357.108 362.224 356.915 362.224 356.722 362.21C354.657 361.91 352.892 360.005 351.735 356.863C350.489 352.939 350.195 348.775 350.877 344.715C352.094 336.376 356.563 329.594 360.851 329.594M360.851 328.596C356.014 328.596 351.206 335.488 349.88 344.555C348.493 354.081 351.476 362.409 356.543 363.147C356.781 363.179 357.021 363.195 357.261 363.197C362.098 363.197 366.906 356.305 368.232 347.238C369.619 337.713 366.637 329.384 361.57 328.646C361.332 328.615 361.092 328.598 360.851 328.596Z" fill="black"/>
<path d="M356.473 363.377C361.65 364.135 366.976 357.013 368.362 347.478C369.749 337.942 366.677 329.594 361.5 328.846L356.343 328.088C351.167 327.34 345.84 334.461 344.454 343.997C343.067 353.532 346.14 361.871 351.316 362.629L356.473 363.377Z" fill="#B1FF05" stroke="black" stroke-miterlimit="10"/>
<path d="M326.839 345.443L325.543 345.253C325.022 345.179 324.521 345.002 324.069 344.734C323.617 344.465 323.222 344.109 322.908 343.688C322.594 343.266 322.366 342.786 322.238 342.276C322.11 341.766 322.084 341.235 322.161 340.715C322.235 340.193 322.41 339.692 322.679 339.238C322.947 338.785 323.302 338.389 323.724 338.074C324.146 337.759 324.626 337.53 325.137 337.401C325.648 337.273 326.179 337.246 326.7 337.324L327.996 337.513C330.3 330.581 335.677 325.973 341.172 326.771C341.432 326.771 341.691 326.871 341.94 326.931L356.174 329.025C360.842 329.703 363.565 337.553 362.258 346.55C360.951 355.547 356.104 362.299 351.436 361.611L337.193 359.566C336.932 359.558 336.672 359.535 336.415 359.497C330.949 358.679 327.109 352.754 326.839 345.443Z" fill="#B1FF05" stroke="black" stroke-miterlimit="10"/>
<path d="M321.623 338.521L323.278 338.89C323.592 339.547 323.646 340.299 323.428 340.994C323.32 341.712 322.968 342.371 322.43 342.859L320.715 342.47C321.222 341.984 321.549 341.341 321.642 340.645C321.856 339.952 321.849 339.21 321.623 338.521Z" fill="black" stroke="black" stroke-linecap="round" stroke-linejoin="round"/>
<path d="M358.428 357.322L338.609 354.44C338.609 354.44 328.136 353.223 327.278 344.715C327.188 343.787 326.899 345.094 327.059 343.987C327.059 343.987 326.899 343.498 326.869 345.443C326.877 348.225 327.561 350.964 328.864 353.422C331.856 359.487 335.557 359.407 341.342 360.275C347.127 361.142 351.954 361.741 351.954 361.741C351.954 361.741 355.226 362.06 358.428 357.322Z" fill="black" stroke="black" stroke-miterlimit="10"/>
<path d="M365.29 357.003L359.196 356.115C358.153 357.864 356.801 359.408 355.206 360.673C352.972 361.771 353.072 361.821 348.314 361.122C348.833 361.735 349.531 362.171 350.309 362.369C351.048 362.565 351.802 362.702 352.563 362.778C355.406 363.187 357.331 363.426 357.331 363.426C359.121 363.251 360.804 362.49 362.118 361.262C363.411 360.033 364.483 358.593 365.29 357.003Z" fill="black" stroke="black" stroke-miterlimit="10"/>
<path d="M326.839 345.443C326.839 345.443 328.724 344.834 329.233 341.712C329.412 340.965 329.392 340.184 329.175 339.448C328.958 338.711 328.552 338.044 327.996 337.513L326.38 337.294C327.757 340.286 326.989 344.166 325.034 345.143L326.839 345.443Z" fill="black" stroke="black" stroke-linecap="round" stroke-linejoin="round"/>
<path d="M352.653 401.319L364.113 391.584L543.96 417.756L532.499 427.501L352.653 401.319Z" fill="black" stroke="black" stroke-linecap="round" stroke-linejoin="round"/>
<path d="M343.995 175.341L335.537 183.181L329.771 317.924L338.22 310.084L343.995 175.341Z" fill="black" stroke="black" stroke-linecap="round" stroke-linejoin="round"/>
<path d="M314.002 200.766L312.805 228.584L341.8 227.257L335.586 201.693L314.002 200.766Z" fill="black" stroke="black" stroke-linecap="round" stroke-linejoin="round"/>
<path d="M136.42 161.188L143.312 204.536C143.312 204.536 126.017 201.145 124.61 192.337L117.628 148.311C117.628 148.311 117.439 153.218 125.608 157.417C128.985 159.25 132.636 160.523 136.42 161.188Z" fill="black" stroke="black" stroke-miterlimit="10"/>
<path d="M460.614 140.631L468.654 128.123L476.713 115.725L483.555 128.941L490.288 142.177L475.386 141.359L460.614 140.631Z" fill="white" stroke="black" stroke-linecap="round" stroke-linejoin="round"/>
<path d="M475.436 132.98L490.288 142.177L476.713 115.725L475.436 132.98Z" fill="black" stroke="black" stroke-linecap="round" stroke-linejoin="round"/>
<path d="M476.234 132.571L460.614 140.631" stroke="black" stroke-linecap="round" stroke-linejoin="round"/>
<path d="M491.226 124.163C506.71 118.911 523.597 119.616 538.589 126.143C553.582 132.669 565.605 144.547 572.312 159.46C579.019 174.373 579.928 191.249 574.863 206.796C569.798 222.344 559.121 235.446 544.917 243.546" stroke="black" stroke-miterlimit="10" stroke-dasharray="2 2"/>
<path d="M143.223 388.103H229.58" stroke="black" stroke-linecap="round" stroke-linejoin="round"/>
<path d="M249.608 381.53L249.698 395.205L263.373 402.356L263.642 388.951L249.608 381.53Z" fill="black" stroke="black" stroke-linecap="round" stroke-linejoin="round"/>
<path d="M249.608 381.53L260.869 373.84L274.544 380.991L263.642 388.861L249.608 381.53Z" fill="white" stroke="black" stroke-linecap="round" stroke-linejoin="round"/>
<path d="M274.095 394.397L263.373 402.356L263.642 388.861L274.544 380.991L274.095 394.397Z" fill="white" stroke="black" stroke-linecap="round" stroke-linejoin="round"/>
</g>
<defs>
<clipPath id="clip0_4697_35776">
<rect width="461.56" height="388" fill="white" transform="translate(117 40)"/>
</clipPath>
</defs>
</svg>
