<svg width="696" height="468" viewBox="0 0 696 468" fill="none" xmlns="http://www.w3.org/2000/svg">
<g clip-path="url(#clip0_4697_36052)">
<path d="M241.64 234.71H289.79C296.159 234.71 302.466 233.456 308.35 231.018C314.235 228.581 319.581 225.008 324.085 220.505C328.589 216.001 332.161 210.654 334.598 204.77C337.036 198.886 338.29 192.579 338.29 186.21C338.289 179.841 339.542 173.533 341.979 167.648C344.416 161.763 347.989 156.416 352.493 151.912C356.996 147.408 362.344 143.836 368.229 141.399C374.113 138.962 380.421 137.709 386.79 137.71H387.14C393.509 137.71 399.816 136.456 405.7 134.018C411.585 131.581 416.931 128.008 421.435 123.505C425.938 119.001 429.511 113.654 431.948 107.77C434.386 101.886 435.64 95.5791 435.64 89.21V88.5C435.64 75.637 440.75 63.3008 449.845 54.2053C458.941 45.1098 471.277 40 484.14 40C490.51 39.9987 496.817 41.2523 502.702 43.6892C508.587 46.1261 513.934 49.6985 518.438 54.2024C522.942 58.7063 526.514 64.0534 528.951 69.9383C531.388 75.8232 532.642 82.1305 532.64 88.5V331.19C532.64 356.866 522.441 381.49 504.285 399.645C486.13 417.8 461.506 428 435.83 428H241.64C228.919 428 216.323 425.489 204.574 420.609C192.826 415.73 182.156 408.58 173.178 399.568C164.199 390.556 157.088 379.86 152.253 368.093C147.417 356.327 144.953 343.721 145 331C145.09 305.429 155.312 280.937 173.426 262.888C191.54 244.84 216.069 234.707 241.64 234.71Z" fill="#00684A"/>
<path d="M267.07 313.26L261.07 275.61L169.16 290.26L174.3 322.39L175.18 327.9C176.81 338.15 198.71 343.19 224.09 339.14C249.47 335.09 268.7 323.51 267.07 313.26Z" fill="black" stroke="black" stroke-miterlimit="10"/>
<path d="M168.93 288.84L174.1 321.23C175.73 331.48 197.63 336.51 223.01 332.47C248.39 328.43 267.64 316.84 266.01 306.59L260.85 274.2L168.93 288.84Z" fill="#00ED64" stroke="black" stroke-miterlimit="10"/>
<path d="M264.11 294.7C265.75 304.95 246.5 316.54 221.11 320.58C195.72 324.62 173.82 319.58 172.19 309.35" stroke="black" stroke-miterlimit="10"/>
<path d="M185.16 299.91L191.16 337.46C191.16 337.46 176.16 334.52 174.98 326.9L168.91 288.78C168.91 288.78 168.74 293.04 175.85 296.67C178.761 298.239 181.904 299.333 185.16 299.91Z" fill="black" stroke="black" stroke-miterlimit="10"/>
<path d="M217.834 300.09C243.217 296.047 262.471 284.462 260.839 274.213C259.206 263.965 237.306 258.935 211.923 262.978C186.539 267.021 167.285 278.606 168.918 288.854C170.55 299.103 192.45 304.133 217.834 300.09Z" fill="white" stroke="black" stroke-miterlimit="10"/>
<path d="M210.149 289.179C217.542 288.841 223.455 286.8 223.355 284.621C223.255 282.441 217.181 280.949 209.788 281.287C202.395 281.626 196.483 283.667 196.583 285.846C196.683 288.025 202.757 289.517 210.149 289.179Z" fill="black" stroke="black" stroke-miterlimit="10"/>
<path d="M205.56 276.45L207.13 286.26C207.44 288.21 211.41 289.2 216 288.47C220.59 287.74 224.05 285.56 223.74 283.61L222.18 273.8L205.56 276.45Z" fill="#B1FF05" stroke="black" stroke-miterlimit="10"/>
<path d="M212.42 282.16L213.42 288.71C213.42 288.71 207.42 288.93 206.96 286.27L206.41 282.83L212.42 282.16Z" fill="black" stroke="black" stroke-width="0.52" stroke-miterlimit="10"/>
<path d="M159.98 232.63L165.98 270.28C167.61 280.53 189.51 285.56 214.89 281.52C240.27 277.48 259.52 265.89 257.89 255.64L251.89 217.99L159.98 232.63Z" fill="#00ED64" stroke="black" stroke-miterlimit="10"/>
<path d="M255 237.52C256.64 247.77 237.39 259.36 212 263.4C186.61 267.44 164.72 262.4 163.09 252.16" stroke="black" stroke-miterlimit="10"/>
<path d="M176.23 243.85L182.23 281.4C182.23 281.4 167.23 278.46 166.05 270.84L159.98 232.73C159.98 232.73 159.81 236.98 166.92 240.61C169.827 242.187 172.972 243.281 176.23 243.85Z" fill="black" stroke="black" stroke-miterlimit="10"/>
<path d="M208.874 243.879C234.257 239.836 253.511 228.251 251.879 218.002C250.247 207.754 228.346 202.724 202.963 206.767C177.579 210.81 158.325 222.395 159.958 232.643C161.59 242.892 183.49 247.922 208.874 243.879Z" fill="white" stroke="black" stroke-miterlimit="10"/>
<path d="M202.066 232.282C209.467 231.912 215.378 229.843 215.268 227.662C215.159 225.48 209.072 224.012 201.671 224.382C194.27 224.752 188.359 226.82 188.468 229.002C188.578 231.183 194.665 232.652 202.066 232.282Z" fill="black" stroke="black" stroke-width="1.00125" stroke-miterlimit="10"/>
<path d="M420.03 231.63C420.03 223.342 416.737 215.393 410.877 209.533C405.016 203.672 397.068 200.38 388.78 200.38C388.791 186.587 384.24 173.178 375.835 162.242C367.43 151.306 355.644 143.457 342.313 139.919C328.982 136.381 314.855 137.352 302.133 142.681C289.411 148.01 278.81 157.397 271.98 169.38C265.649 168.685 259.244 169.287 253.154 171.15C247.064 173.013 241.418 176.098 236.56 180.215C231.701 184.333 227.733 189.398 224.898 195.1C222.062 200.802 220.418 207.023 220.066 213.381C219.714 219.74 220.662 226.104 222.852 232.084C225.041 238.064 228.426 243.536 232.801 248.164C237.175 252.792 242.447 256.481 248.294 259.004C254.141 261.527 260.441 262.833 266.81 262.84H420.03C424.105 262.737 427.979 261.045 430.826 258.126C433.672 255.207 435.265 251.292 435.265 247.215C435.265 243.138 433.672 239.223 430.826 236.304C427.979 233.385 424.105 231.693 420.03 231.59V231.63Z" fill="black" stroke="black" stroke-miterlimit="10"/>
<path d="M281.3 169.06L272.77 120C271.873 114.809 269.955 109.848 267.127 105.404C264.299 100.96 260.618 97.1208 256.295 94.11C251.973 91.0991 247.096 88.976 241.947 87.8637C236.798 86.7513 231.48 86.6719 226.3 87.63L224.71 87.93C214.549 89.8209 205.522 95.589 199.537 104.015C193.553 112.441 191.079 122.864 192.64 133.08L192.78 133.97L189.22 134.51L189.08 133.62C187.379 122.476 190.081 111.107 196.613 101.919C203.145 92.7315 212.995 86.4451 224.08 84.39L225.68 84.09C231.321 83.0538 237.111 83.1454 242.716 84.3595C248.322 85.5737 253.631 87.8862 258.337 91.1637C263.044 94.4412 267.055 98.6186 270.138 103.455C273.221 108.291 275.315 113.69 276.3 119.34L284.83 168.45L281.3 169.06Z" fill="#B1FF05" stroke="black" stroke-miterlimit="10"/>
<path d="M420.03 214.36C420.03 206.072 416.737 198.123 410.877 192.263C405.016 186.402 397.068 183.11 388.78 183.11C388.791 169.317 384.24 155.908 375.835 144.972C367.43 134.036 355.644 126.187 342.313 122.649C328.982 119.111 314.855 120.082 302.133 125.411C289.411 130.739 278.81 140.127 271.98 152.11C265.649 151.415 259.244 152.017 253.154 153.88C247.064 155.743 241.418 158.828 236.56 162.945C231.701 167.063 227.733 172.128 224.898 177.83C222.062 183.532 220.418 189.753 220.066 196.111C219.714 202.47 220.662 208.834 222.852 214.814C225.041 220.794 228.426 226.266 232.801 230.894C237.175 235.522 242.447 239.211 248.294 241.734C254.141 244.257 260.441 245.563 266.81 245.57H420.03C424.105 245.467 427.979 243.775 430.826 240.856C433.672 237.937 435.265 234.022 435.265 229.945C435.265 225.868 433.672 221.953 430.826 219.034C427.979 216.115 424.105 214.423 420.03 214.32V214.36Z" fill="white" stroke="black" stroke-linecap="round" stroke-linejoin="round"/>
<path d="M298.56 224.77C298.56 225.939 298.214 227.081 297.564 228.053C296.915 229.025 295.992 229.783 294.912 230.23C293.832 230.677 292.644 230.794 291.497 230.566C290.351 230.338 289.298 229.775 288.471 228.949C287.645 228.122 287.082 227.069 286.854 225.923C286.626 224.776 286.743 223.588 287.19 222.508C287.637 221.428 288.395 220.505 289.367 219.856C290.339 219.206 291.481 218.86 292.65 218.86C294.218 218.86 295.721 219.483 296.829 220.591C297.938 221.699 298.56 223.202 298.56 224.77ZM292.65 221.9C292.082 221.898 291.526 222.065 291.053 222.379C290.58 222.693 290.21 223.14 289.992 223.665C289.773 224.189 289.715 224.766 289.824 225.324C289.934 225.881 290.206 226.393 290.607 226.796C291.008 227.198 291.52 227.472 292.077 227.584C292.634 227.696 293.211 227.639 293.736 227.422C294.261 227.205 294.71 226.838 295.026 226.365C295.342 225.893 295.51 225.338 295.51 224.77C295.508 224.011 295.206 223.284 294.67 222.747C294.135 222.21 293.409 221.905 292.65 221.9Z" fill="#B1FF05" stroke="black" stroke-miterlimit="10"/>
<path d="M328.3 345.07L321.91 343.52C316.525 342.211 311.673 339.277 308.012 335.116C304.352 330.955 302.061 325.768 301.45 320.26L290.96 225.26C290.912 224.816 291.042 224.371 291.321 224.022C291.6 223.674 292.006 223.45 292.45 223.4C292.894 223.352 293.339 223.482 293.687 223.761C294.036 224.04 294.26 224.446 294.31 224.89L304.8 319.89C305.34 324.71 307.347 329.247 310.55 332.889C313.754 336.53 317.998 339.1 322.71 340.25L329.09 341.79L328.3 345.07Z" fill="#B1FF05" stroke="black" stroke-miterlimit="10"/>
<path d="M496.853 213.573L339.677 206.848L334.686 323.481L491.863 330.206L496.853 213.573Z" fill="black" stroke="black" stroke-linecap="round" stroke-linejoin="round"/>
<path d="M504.177 206.782L347 200.057L342.01 316.69L499.186 323.415L504.177 206.782Z" fill="#E3FCF7" stroke="black" stroke-linecap="round" stroke-linejoin="round"/>
<path d="M436.992 234.622C438 234.665 438.989 234.906 439.904 235.331C440.818 235.757 441.64 236.358 442.322 237.101C443.004 237.844 443.533 238.714 443.879 239.662C444.224 240.609 444.38 241.615 444.337 242.623L441.681 304.706L426.335 304.05L428.991 241.966C429.078 239.931 429.97 238.014 431.471 236.637C432.971 235.26 434.957 234.535 436.992 234.622Z" fill="#00ED64"/>
<path d="M461.726 223.966C463.761 224.053 465.678 224.945 467.056 226.446C468.433 227.946 469.158 229.932 469.071 231.967L465.84 307.478L450.494 306.822L453.725 231.311C453.812 229.276 454.704 227.359 456.204 225.981C457.705 224.604 459.691 223.879 461.726 223.966Z" fill="#00ED64"/>
<path d="M411.995 246.32C413.002 246.363 413.992 246.604 414.906 247.03C415.821 247.455 416.642 248.057 417.324 248.8C418.006 249.542 418.535 250.413 418.881 251.36C419.227 252.307 419.383 253.314 419.339 254.321L417.523 296.772L402.177 296.116L403.993 253.675C404.035 252.666 404.275 251.676 404.7 250.76C405.125 249.845 405.726 249.022 406.469 248.339C407.212 247.656 408.083 247.126 409.031 246.779C409.979 246.433 410.986 246.277 411.995 246.32Z" fill="#00ED64"/>
<path d="M386.47 256.09C388.505 256.177 390.422 257.069 391.799 258.569C393.177 260.07 393.902 262.056 393.815 264.091L392.462 295.692L377.116 295.035L378.469 263.434C378.512 262.427 378.753 261.437 379.178 260.523C379.604 259.608 380.205 258.787 380.948 258.105C381.691 257.423 382.561 256.894 383.509 256.548C384.456 256.202 385.462 256.046 386.47 256.09Z" fill="#00ED64"/>
<path d="M488.46 308.48L357.5 302.87L361.06 219.69" stroke="black" stroke-linecap="round" stroke-linejoin="round"/>
<path d="M526.998 302.816L371.317 280.161L354.506 395.684L510.186 418.34L526.998 302.816Z" fill="black" stroke="black" stroke-linecap="round" stroke-linejoin="round"/>
<path d="M196.56 220L198.13 229.81C198.44 231.76 202.41 232.75 207 232.02C211.59 231.29 215.05 229.12 214.74 227.16L213.18 217.35L196.56 220Z" fill="#B1FF05" stroke="black" stroke-miterlimit="10"/>
<path d="M151.02 176.43L157.02 214.07C158.65 224.32 180.55 229.36 205.93 225.31C231.31 221.26 250.57 209.68 248.93 199.43L242.93 161.78L151.02 176.43Z" fill="#00ED64" stroke="black" stroke-miterlimit="10"/>
<path d="M199.933 187.667C225.317 183.624 244.571 172.038 242.938 161.79C241.306 151.542 219.406 146.511 194.022 150.554C168.639 154.597 149.385 166.183 151.017 176.431C152.649 186.679 174.55 191.71 199.933 187.667Z" fill="#B1FF05" stroke="black" stroke-miterlimit="10"/>
<path d="M245.89 180.34C247.53 190.59 228.27 202.18 202.89 206.22C177.51 210.26 155.61 205.22 153.98 194.98" stroke="black" stroke-miterlimit="10"/>
<path d="M202.82 225.7L203.82 232.25C203.82 232.25 197.82 232.47 197.35 229.81L196.81 226.37L202.82 225.7Z" fill="black" stroke="black" stroke-width="0.52" stroke-miterlimit="10"/>
<path d="M538.267 292.367L382.52 270.342L366.176 385.915L521.923 407.94L538.267 292.367Z" fill="white" stroke="black" stroke-width="0.99985" stroke-linecap="round" stroke-linejoin="round"/>
<path d="M473.22 348.19L489.89 355.94C491.652 351.356 492.6 346.5 492.69 341.59L474.39 340.29C474.446 342.97 474.051 345.641 473.22 348.19Z" fill="#00684A"/>
<path d="M473.22 348.19C471.908 352.215 469.545 355.817 466.374 358.622C463.202 361.427 459.339 363.333 455.184 364.144C451.028 364.954 446.732 364.639 442.739 363.231C438.747 361.823 435.203 359.373 432.475 356.135C429.747 352.898 427.935 348.99 427.225 344.816C426.514 340.642 426.933 336.355 428.437 332.397C429.94 328.439 432.475 324.956 435.777 322.307C439.08 319.658 443.03 317.939 447.22 317.33L442.43 299.58C435.264 301.011 428.594 304.285 423.079 309.078C417.563 313.872 413.392 320.021 410.977 326.917C408.562 333.814 407.985 341.221 409.305 348.409C410.624 355.596 413.794 362.316 418.502 367.905C423.209 373.494 429.292 377.76 436.151 380.282C443.009 382.804 450.407 383.496 457.614 382.288C464.821 381.08 471.588 378.015 477.25 373.395C482.912 368.774 487.272 362.759 489.9 355.94L473.22 348.19Z" fill="#A6FFEC"/>
<path d="M468.58 325.26L482.4 313.26C477.537 307.647 471.273 303.424 464.247 301.021C457.22 298.617 449.681 298.12 442.4 299.58L447.19 317.33C451.134 316.748 455.162 317.17 458.9 318.556C462.639 319.942 465.968 322.248 468.58 325.26Z" fill="#00ED64"/>
<path d="M474.39 340.29L492.69 341.59C492.899 331.196 489.231 321.097 482.4 313.26L468.58 325.26C472.216 329.435 474.273 334.754 474.39 340.29Z" fill="#B1FF05"/>
<path d="M189.278 176.024C200.208 174.283 208.583 169.821 207.983 166.058C207.384 162.295 198.037 160.655 187.107 162.396C176.177 164.137 167.803 168.599 168.402 172.362C169.002 176.126 178.348 177.765 189.278 176.024Z" fill="black" stroke="black" stroke-miterlimit="10"/>
<path d="M192.96 172.85C186.8 172.85 182.14 170.6 181.63 167.37C180.97 163.27 186.91 158.91 194.86 157.64C196.269 157.414 197.693 157.3 199.12 157.3C205.28 157.3 209.94 159.55 210.46 162.78C211.11 166.87 205.17 171.24 197.22 172.5C195.812 172.729 194.387 172.846 192.96 172.85Z" fill="white"/>
<path d="M199.12 157.8C205.03 157.8 209.49 159.88 209.96 162.8C210.24 164.54 209.14 166.44 206.87 168.15C203.979 170.175 200.647 171.481 197.15 171.96C195.764 172.181 194.363 172.295 192.96 172.3C187.05 172.3 182.59 170.22 182.12 167.24C181.84 165.51 182.94 163.61 185.21 161.9C188.104 159.874 191.439 158.567 194.94 158.09C196.322 157.864 197.72 157.75 199.12 157.75M199.12 156.75C197.666 156.751 196.215 156.868 194.78 157.1C186.54 158.41 180.43 163.02 181.13 167.4C181.7 170.98 186.66 173.3 192.96 173.3C194.412 173.31 195.863 173.21 197.3 173C205.54 171.69 211.65 167.07 210.95 162.7C210.38 159.11 205.42 156.8 199.12 156.8V156.75Z" fill="black"/>
<path d="M180.96 167.44C181.67 171.91 188.96 174.44 197.17 173.15C205.38 171.86 211.51 167.15 210.8 162.68L210.08 158.22C209.37 153.75 202.08 151.22 193.88 152.5C185.68 153.78 179.54 158.5 180.25 162.98L180.96 167.44Z" fill="#B1FF05" stroke="black" stroke-miterlimit="10"/>
<path d="M188.14 138.35L187.97 137.23C187.893 136.778 187.907 136.315 188.01 135.868C188.114 135.421 188.305 135 188.573 134.627C188.841 134.255 189.18 133.94 189.571 133.7C189.962 133.46 190.397 133.301 190.85 133.23C191.302 133.156 191.764 133.172 192.21 133.276C192.655 133.381 193.076 133.572 193.448 133.84C193.819 134.107 194.134 134.446 194.375 134.835C194.616 135.225 194.777 135.658 194.85 136.11L195.02 137.23C201.35 137.34 206.54 140.6 207.3 145.35C207.3 145.57 207.36 145.79 207.37 146.02L209.31 158.32C209.95 162.32 204.17 166.63 196.39 167.87C188.61 169.11 181.8 166.87 181.15 162.81L179.15 150.51C179.1 150.29 179.05 150.07 179.01 149.85C178.3 145.13 182.17 140.42 188.14 138.35Z" fill="#B1FF05" stroke="black" stroke-miterlimit="10"/>
<path d="M192.39 132L192.62 133.44C192.191 133.906 191.601 134.192 190.97 134.24C190.364 134.385 189.726 134.322 189.16 134.06L188.92 132.55C189.474 132.804 190.098 132.864 190.69 132.72C191.316 132.656 191.909 132.405 192.39 132Z" fill="black" stroke="black" stroke-linecap="round" stroke-linejoin="round"/>
<path d="M186.47 167.49L183.74 150.37C183.74 150.37 182.04 141.37 188.86 138.49C189.6 138.18 188.44 138.28 189.4 138.12C189.4 138.12 189.76 137.87 188.14 138.35C185.85 139.083 183.774 140.363 182.09 142.08C177.84 146.08 178.84 149.16 179.64 154.16C180.44 159.16 181.17 163.31 181.17 163.31C181.17 163.31 181.73 166.06 186.47 167.49Z" fill="black" stroke="black" stroke-miterlimit="10"/>
<path d="M188.51 173.08L187.67 167.81C185.95 167.395 184.32 166.669 182.86 165.67C181.38 164.1 181.36 164.2 180.71 160.08C180.343 160.68 180.165 161.377 180.2 162.08C180.219 162.753 180.299 163.422 180.44 164.08C180.83 166.54 181.13 168.19 181.13 168.19C181.732 169.621 182.785 170.815 184.13 171.59C185.495 172.332 186.976 172.836 188.51 173.08Z" fill="black" stroke="black" stroke-miterlimit="10"/>
<path d="M188.14 138.35L187.92 136.56C189.23 137.93 193.1 137.61 194.71 135.67L194.99 137.26C194.688 137.838 194.241 138.326 193.692 138.677C193.142 139.028 192.511 139.229 191.86 139.26C189.15 139.65 188.14 138.35 188.14 138.35Z" fill="black"/>
<path d="M188.14 138.35L187.92 136.56C189.23 137.93 193.1 137.61 194.71 135.67L194.99 137.26C194.688 137.838 194.241 138.326 193.692 138.677C193.142 139.028 192.511 139.229 191.86 139.26C189.15 139.65 188.14 138.35 188.14 138.35" stroke="black" stroke-linecap="round" stroke-linejoin="round"/>
<path d="M371.31 280.16L381.22 271.73L364.4 387.25L354.49 395.69L371.31 280.16Z" fill="black" stroke="black" stroke-linecap="round" stroke-linejoin="round"/>
<path d="M358.48 362.23C358.294 362.245 358.107 362.245 357.92 362.23C353.82 361.63 351.42 354.66 352.58 346.7C353.67 339.18 357.63 333.3 361.58 333.3C361.767 333.285 361.954 333.285 362.14 333.3C364.07 333.58 365.69 335.3 366.72 338.17C367.818 341.613 368.078 345.267 367.48 348.83C366.39 356.34 362.48 362.23 358.48 362.23Z" fill="white"/>
<path d="M361.57 333.76C361.733 333.75 361.897 333.75 362.06 333.76C363.79 334.02 365.28 335.63 366.24 338.3C367.306 341.67 367.559 345.244 366.98 348.73C365.98 355.88 362.12 361.73 358.48 361.73C358.32 361.745 358.16 361.745 358 361.73C356.26 361.48 354.77 359.87 353.82 357.19C352.744 353.826 352.491 350.253 353.08 346.77C354.08 339.62 357.93 333.77 361.57 333.77M361.57 332.77C357.39 332.77 353.23 338.77 352.09 346.6C350.88 354.85 353.47 362.06 357.85 362.69C358.059 362.722 358.269 362.738 358.48 362.74C362.66 362.74 366.82 356.74 367.97 348.91C369.17 340.66 366.59 333.45 362.2 332.81C361.99 332.795 361.78 332.795 361.57 332.81V332.77Z" fill="black"/>
<path d="M357.79 362.84C362.27 363.49 366.87 357.33 368.08 349.08C369.29 340.83 366.62 333.6 362.14 332.95L357.67 332.3C353.19 331.64 348.59 337.81 347.38 346.06C346.17 354.31 348.84 361.54 353.32 362.19L357.79 362.84Z" fill="#B1FF05" stroke="black" stroke-miterlimit="10"/>
<path d="M332.16 347.32L331.04 347.15C330.589 347.086 330.155 346.934 329.763 346.702C329.37 346.469 329.028 346.161 328.756 345.796C328.483 345.431 328.286 345.015 328.175 344.573C328.064 344.13 328.042 343.671 328.11 343.22C328.244 342.311 328.733 341.492 329.469 340.942C330.206 340.393 331.131 340.159 332.04 340.29L333.16 340.45C335.16 334.45 339.81 330.45 344.57 331.16C344.79 331.16 345.01 331.24 345.23 331.29L357.55 333.11C361.55 333.69 363.95 340.49 362.82 348.28C361.69 356.07 357.49 361.9 353.45 361.28L341.12 359.5C340.89 359.5 340.67 359.5 340.45 359.44C335.69 358.79 332.36 353.64 332.16 347.32Z" fill="#B1FF05" stroke="black" stroke-miterlimit="10"/>
<path d="M327.62 341.32L329.05 341.64C329.324 342.211 329.37 342.865 329.18 343.47C329.095 344.088 328.798 344.657 328.34 345.08L326.86 344.74C327.298 344.323 327.58 343.769 327.66 343.17C327.838 342.564 327.824 341.918 327.62 341.32Z" fill="black" stroke="black" stroke-linecap="round" stroke-linejoin="round"/>
<path d="M359.48 357.6L342.3 355.11C342.3 355.11 333.23 354.05 332.49 346.68C332.41 345.88 332.16 347.01 332.3 346.06C332.3 346.06 332.17 345.63 332.14 347.32C332.158 349.726 332.762 352.091 333.9 354.21C336.46 359.46 339.7 359.42 344.7 360.15C349.7 360.88 353.89 361.41 353.89 361.41C353.89 361.41 356.7 361.7 359.48 357.6Z" fill="black" stroke="black" stroke-miterlimit="10"/>
<path d="M365.42 357.32L360.14 356.55C359.235 358.068 358.059 359.407 356.67 360.5C354.73 361.45 354.82 361.5 350.67 360.89C351.119 361.415 351.72 361.789 352.39 361.96C353.028 362.137 353.681 362.258 354.34 362.32C356.79 362.68 358.46 362.88 358.46 362.88C360.013 362.736 361.474 362.078 362.61 361.01C363.753 359.951 364.703 358.703 365.42 357.32Z" fill="black" stroke="black" stroke-miterlimit="10"/>
<path d="M332.16 347.32C332.16 347.32 333.79 346.79 334.23 344.09C334.386 343.442 334.37 342.766 334.182 342.127C333.994 341.488 333.642 340.91 333.16 340.45L331.77 340.26C332.95 342.81 332.29 346.26 330.6 347.06L332.16 347.32Z" fill="black" stroke="black" stroke-linecap="round" stroke-linejoin="round"/>
<path d="M354.49 395.69L364.4 387.25L520.08 409.92L510.17 418.35L354.49 395.69Z" fill="black" stroke="black" stroke-linecap="round" stroke-linejoin="round"/>
<path d="M346.99 200.07L339.67 206.86L334.68 323.5L342 316.71L346.99 200.07Z" fill="black" stroke="black" stroke-linecap="round" stroke-linejoin="round"/>
<path d="M321.02 222.08L320.02 246.16L345.1 245L339.72 222.87L321.02 222.08Z" fill="black" stroke="black" stroke-linecap="round" stroke-linejoin="round"/>
<path d="M167.3 187.8L173.3 225.35C173.3 225.35 158.3 222.41 157.12 214.79L151.05 176.67C151.05 176.67 150.88 180.93 157.99 184.56C160.9 186.131 164.043 187.225 167.3 187.8Z" fill="black" stroke="black" stroke-miterlimit="10"/>
<path d="M447.94 170.03L454.9 159.2L461.87 148.47L467.8 159.91L473.63 171.36L460.73 170.65L447.94 170.03Z" fill="white" stroke="black" stroke-linecap="round" stroke-linejoin="round"/>
<path d="M460.77 163.41L473.63 171.36L461.87 148.47L460.77 163.41Z" fill="black" stroke="black" stroke-linecap="round" stroke-linejoin="round"/>
<path d="M461.46 163.05L447.94 170.03" stroke="black" stroke-linecap="round" stroke-linejoin="round"/>
<path d="M474.43 155.77C487.832 151.235 502.442 151.854 515.412 157.505C528.382 163.156 538.782 173.435 544.586 186.338C550.389 199.241 551.179 213.843 546.802 227.297C542.425 240.75 533.195 252.092 520.91 259.11" stroke="black" stroke-miterlimit="10" stroke-dasharray="2 2"/>
<path d="M173.2 384.24H247.95" stroke="black" stroke-linecap="round" stroke-linejoin="round"/>
<path d="M265.29 378.55L265.36 390.39L277.2 396.58L277.43 384.98L265.29 378.55Z" fill="black" stroke="black" stroke-linecap="round" stroke-linejoin="round"/>
<path d="M265.29 378.55L275.03 371.9L286.87 378.09L277.43 384.9L265.29 378.55Z" fill="white" stroke="black" stroke-linecap="round" stroke-linejoin="round"/>
<path d="M286.48 389.69L277.2 396.58L277.43 384.9L286.87 378.09L286.48 389.69Z" fill="white" stroke="black" stroke-linecap="round" stroke-linejoin="round"/>
</g>
<defs>
<clipPath id="clip0_4697_36052">
<rect width="405.11" height="388" fill="white" transform="translate(145 40)"/>
</clipPath>
</defs>
</svg>
