<svg width="696" height="468" viewBox="0 0 696 468" fill="none" xmlns="http://www.w3.org/2000/svg">
<g clip-path="url(#clip0_4697_37094)">
<path d="M201.39 428C207.804 428.107 214.175 426.93 220.128 424.539C226.082 422.148 231.497 418.591 236.056 414.077C240.614 409.563 244.224 404.183 246.674 398.254C249.124 392.325 250.363 385.965 250.32 379.55V379.16C250.335 366.3 255.457 353.972 264.56 344.886C273.662 335.801 285.999 330.702 298.86 330.71H299.25C312.111 330.721 324.45 325.622 333.552 316.537C342.655 307.451 347.776 295.121 347.79 282.26C347.808 269.4 352.931 257.074 362.033 247.989C371.134 238.905 383.47 233.805 396.33 233.81H444.9C464.056 233.769 482.769 228.05 498.677 217.377C514.584 206.705 526.972 191.557 534.274 173.847C541.576 156.137 543.465 136.66 539.702 117.877C535.939 99.0945 526.694 81.8482 513.134 68.3175C499.574 54.7868 482.308 45.5788 463.517 41.8569C444.726 38.135 425.253 40.0661 407.559 47.4064C389.865 54.7467 374.744 67.1667 364.106 83.0972C353.467 99.0277 347.79 117.754 347.79 136.91V186.14C347.798 198.94 342.737 211.223 333.714 220.302C324.691 229.382 312.44 234.519 299.64 234.59H202.17C195.823 234.589 189.538 235.842 183.677 238.277C177.816 240.712 172.494 244.281 168.017 248.78C163.539 253.279 159.995 258.618 157.588 264.49C155.181 270.363 153.958 276.653 153.99 283V379.51C153.24 406.29 174.99 427.61 201.39 428Z" fill="#E3FCF7"/>
<path d="M269.75 75.8701H404.23C405.281 75.8701 406.321 76.077 407.291 76.4791C408.262 76.8811 409.144 77.4704 409.887 78.2133C410.63 78.9561 411.219 79.838 411.621 80.8087C412.023 81.7793 412.23 82.8195 412.23 83.8701V193.47H261.75V83.8701C261.75 81.7484 262.593 79.7136 264.093 78.2133C265.593 76.713 267.628 75.8701 269.75 75.8701Z" fill="#F9EBFF" stroke="black" stroke-linecap="round" stroke-linejoin="round"/>
<path d="M269.75 75.8701H404.23C405.281 75.8701 406.321 76.077 407.291 76.4791C408.262 76.8811 409.144 77.4704 409.887 78.2133C410.63 78.9561 411.219 79.838 411.621 80.8087C412.023 81.7793 412.23 82.8195 412.23 83.8701V91.7501H261.75V83.8701C261.75 81.7484 262.593 79.7136 264.093 78.2133C265.593 76.713 267.628 75.8701 269.75 75.8701Z" fill="#F9EBFF" stroke="black" stroke-linecap="round" stroke-linejoin="round"/>
<path d="M324.98 126.97H275.48V139.68H324.98V126.97Z" fill="#B45AF2"/>
<path d="M398.51 106.18H275.48V118.89H398.51V106.18Z" fill="#B45AF2"/>
<path d="M324.98 147.75H275.48V180.77H324.98V147.75Z" fill="#B45AF2"/>
<path d="M398.5 126.97H333.05V180.78H398.5V126.97Z" fill="#B45AF2"/>
<path d="M296.99 334.33L491.58 320.33L492.4 320.27H492.48C492.48 319.18 492.55 318.1 492.55 317.01V316.72L520.9 211.2L328.46 223.34C326.895 223.593 325.444 224.317 324.3 225.416C323.157 226.515 322.375 227.936 322.06 229.49L296.99 334.33Z" fill="black" stroke="black" stroke-linecap="round" stroke-linejoin="round"/>
<path d="M329.26 220.48L298.26 334.25L501.7 332.33L533.7 208.27C533.954 207.276 533.969 206.237 533.743 205.236C533.517 204.236 533.056 203.304 532.399 202.517C531.741 201.729 530.906 201.11 529.962 200.709C529.019 200.307 527.993 200.137 526.97 200.21L337.19 214C335.362 214.132 333.619 214.825 332.199 215.985C330.78 217.145 329.753 218.715 329.26 220.48Z" fill="white" stroke="black" stroke-linecap="round" stroke-linejoin="round"/>
<path d="M327.94 225.21L298.21 334.25L489.35 332.33L520.9 211.2L327.94 225.21Z" fill="white" stroke="black" stroke-linecap="round" stroke-linejoin="round"/>
<path d="M495.76 335.76L224.97 364.97L224.59 361.38L333.4 331.85L333.41 331.84L500.38 319.72L495.76 335.76Z" fill="black" stroke="black" stroke-linecap="round" stroke-linejoin="round"/>
<path d="M508.35 219L482.38 314.03L311.64 327.17L336.25 231.5L508.35 219Z" fill="#00ED64" stroke="black" stroke-linecap="round" stroke-linejoin="round"/>
<path d="M162.4 125.01L170.72 116.44L183.68 120.14L175.73 128.82L162.4 125.01Z" fill="white" stroke="black" stroke-linecap="round" stroke-linejoin="round"/>
<path d="M162.39 125.03L164.93 136.7L177.89 140.41L175.73 128.84L162.39 125.03Z" fill="white" stroke="black" stroke-linecap="round" stroke-linejoin="round"/>
<path d="M185.71 131.66L183.68 120.14L175.73 128.84L177.89 140.41L185.71 131.66Z" fill="black" stroke="black" stroke-linecap="round" stroke-linejoin="round"/>
<path d="M339.4 242.63L378.67 239.78" stroke="black" stroke-linecap="round" stroke-linejoin="round"/>
<path d="M381.52 239.57L386.81 239.18" stroke="black" stroke-linecap="round" stroke-linejoin="round"/>
<path d="M385 250.94L390.29 250.56" stroke="black" stroke-linecap="round" stroke-linejoin="round"/>
<path d="M402.13 261.33L407.42 260.94" stroke="black" stroke-linecap="round" stroke-linejoin="round"/>
<path d="M399.97 268.23L405.26 267.85" stroke="black" stroke-linecap="round" stroke-linejoin="round"/>
<path d="M393.83 250.3L429.25 247.73" stroke="black" stroke-linecap="round" stroke-linejoin="round"/>
<path d="M410.39 260.73L439.92 258.58" stroke="black" stroke-linecap="round" stroke-linejoin="round"/>
<path d="M408.35 267.62L437.88 265.48" stroke="black" stroke-linecap="round" stroke-linejoin="round"/>
<path d="M397.82 275.13L403.11 274.75" stroke="black" stroke-linecap="round" stroke-linejoin="round"/>
<path d="M406.19 274.53L435.72 272.38" stroke="black" stroke-linecap="round" stroke-linejoin="round"/>
<path d="M394.89 282.09L400.18 281.71" stroke="black" stroke-linecap="round" stroke-linejoin="round"/>
<path d="M404.47 325.2C403.29 325.29 400.71 325.1 395.01 319.08L394.56 318.59C394.4 318.43 394.24 318.26 394.09 318.08C393.94 317.9 393.52 317.45 393.22 317.08C392.92 316.71 392.59 316.36 392.22 315.97C392.04 315.77 391.87 315.56 391.69 315.35L391.18 314.72C393.44 313.56 396.02 312.36 398.84 311.21C399.26 311.73 399.67 312.21 400.07 312.77C400.83 313.77 401.57 314.77 402.25 315.69C402.93 316.61 403.58 317.61 404.13 318.51C406.4 322.19 407.18 325 404.47 325.2Z" fill="black" stroke="black" stroke-linecap="round" stroke-linejoin="round"/>
<path d="M421.91 325.42H421.73L414.46 325.95C411.77 324.56 409.32 321.95 406.28 318.42L404.83 316.73C404.49 316.35 404.15 315.95 403.83 315.54C402.77 314.31 401.63 313 400.39 311.63L400.24 311.48C400.08 311.31 399.88 311.13 399.66 310.94C401.66 310.13 403.86 309.36 406.1 308.68L406.39 308.59C408.804 307.831 411.36 307.64 413.86 308.03C413.841 308.431 413.864 308.834 413.93 309.23C413.93 309.45 414.02 309.67 414.08 309.9C414.466 311.289 415.149 312.579 416.08 313.68C417.25 315.14 418.16 316.35 418.85 317.36C418.883 317.451 418.909 317.545 418.93 317.64H419.03C421.03 320.64 421.11 321.72 420.78 322.24L420.61 322.16C420.652 322.213 420.689 322.27 420.72 322.33C421.353 323.252 421.761 324.311 421.91 325.42Z" fill="black" stroke="black" stroke-linecap="round" stroke-linejoin="round"/>
<path d="M388.24 327.86L383.16 328.23C382.641 327.801 382.163 327.326 381.73 326.81C380.688 325.581 379.569 324.418 378.38 323.33C378.05 323.03 377.73 322.75 377.38 322.5L378.17 322.15C379.728 321.437 381.23 320.604 382.66 319.66C383.26 319.27 384.05 318.77 385 318.2C385.46 318.62 385.91 319.08 386.36 319.58C386.81 320.08 387.18 320.58 387.59 321.1C388.301 322.062 388.737 323.199 388.851 324.39C388.966 325.581 388.754 326.78 388.24 327.86Z" fill="black" stroke="black" stroke-linecap="round" stroke-linejoin="round"/>
<path d="M403.26 281.48L432.79 279.34" stroke="black" stroke-linecap="round" stroke-linejoin="round"/>
<path d="M423.86 322.76C422.788 322.893 421.699 322.734 420.71 322.3C421.04 321.78 420.96 320.66 418.96 317.7C418.907 317.606 418.847 317.515 418.78 317.43C418.09 316.43 417.18 315.21 416.01 313.75C415.078 312.649 414.396 311.36 414.01 309.97C413.95 309.74 413.9 309.52 413.86 309.3C413.794 308.904 413.77 308.501 413.79 308.1C414.714 308.238 415.627 308.446 416.52 308.72C417.69 309.9 418.85 311.11 419.94 312.3C421.458 313.913 422.852 315.637 424.11 317.46C425.99 320.24 426.45 322.37 423.86 322.76Z" fill="#F2C5EE" stroke="black" stroke-linecap="round" stroke-linejoin="round"/>
<path d="M243.83 327.03L243.11 327.45L232.85 328.79L213.14 311.58L209.37 308.21L209.12 307.99L219.48 305.16L243.83 327.03Z" fill="black" stroke="black" stroke-linecap="round" stroke-linejoin="round"/>
<path d="M328.46 287.68C326.929 288.359 325.275 288.717 323.6 288.73C320.098 288.658 316.628 288.05 313.31 286.93C312.46 286.68 311.57 286.4 310.63 286.1C308.71 285.49 306.63 284.77 304.35 283.97C304.184 283.905 304.014 283.855 303.84 283.82C304.23 283.24 304.64 282.65 305.07 282.06C305.5 281.47 306.01 280.81 306.51 280.2C307.176 279.4 307.843 278.63 308.51 277.89C309.321 276.995 310.179 276.144 311.08 275.34C311.25 276.393 311.763 277.359 312.54 278.09C313.327 278.88 314.222 279.553 315.2 280.09V280.24L315.97 280.47C316.518 280.753 317.082 281.003 317.66 281.22H317.46C317.98 281.27 318.46 281.32 318.99 281.35C321.22 281.99 323.33 282.57 325.11 283.13C329.85 284.63 332.28 286 328.46 287.68Z" fill="black" stroke="black" stroke-linecap="round" stroke-linejoin="round"/>
<path d="M331.35 280C330 281 328.08 281.44 325.45 281.54C323.274 281.586 321.097 281.51 318.93 281.31C317.93 281.03 316.93 280.74 315.93 280.42L315.2 280.04C314.223 279.503 313.327 278.83 312.54 278.04C311.763 277.31 311.25 276.343 311.08 275.29C311.31 275.08 311.53 274.88 311.76 274.69C311.99 274.5 312.31 274.23 312.58 274.02L313.44 274.2C314.51 274.41 315.58 274.6 316.64 274.78C320.41 275.41 324 275.83 326.81 276.28C331.63 277.09 334.16 277.93 331.35 280Z" fill="#F2C5EE" stroke="black" stroke-linecap="round" stroke-linejoin="round"/>
<path d="M332.52 264.8C331.52 265.27 330.52 265.68 329.44 266.06C325.63 267.47 321.79 268.51 317.75 270.67C316.326 271.426 314.959 272.285 313.66 273.24C313.3 273.5 312.93 273.78 312.56 274.07C312.19 274.36 312.02 274.51 311.74 274.74C311.46 274.97 311.29 275.13 311.06 275.34C310.159 276.144 309.301 276.995 308.49 277.89C307.824 278.63 307.157 279.4 306.49 280.2C305.99 280.81 305.49 281.44 305.05 282.06C304.61 282.68 304.21 283.24 303.82 283.82L303.53 284.24C302.306 286.053 301.264 287.982 300.42 290C299.42 292.59 299.51 294.3 301.42 294C302.72 293.51 303.91 293.06 305.01 292.66C306.71 292.04 308.17 291.52 309.47 291.1C310.47 290.77 312.47 290.24 312.47 290.24C315.429 289.373 318.59 289.499 321.47 290.6C322.023 290.783 322.537 291.064 322.99 291.43C323.335 291.642 323.621 291.935 323.825 292.284C324.03 292.633 324.145 293.026 324.16 293.43C323.99 294.52 323.16 295.1 321.95 295.48C319.82 296.15 316.5 296.24 313.39 297.48C312.214 297.884 311.076 298.393 309.99 299C309.3 299.38 308.42 299.9 307.17 300.65L306.02 301.35C295.43 307.8 288.33 307.72 285.19 307.18C277.35 308.77 271.96 312.18 265.89 315.18L244.46 327.28L243.09 327.46L243.81 327.04L219.49 305.16L261.21 293.8L261.14 293.75C266.042 292.359 270.767 290.406 275.22 287.93C280.879 284.741 286.324 281.187 291.52 277.29C296.52 273.6 299.4 271.29 300.84 270.29C305.593 267.168 310.724 264.664 316.11 262.84H316.26C317.69 262.35 319.04 261.93 320.26 261.58C321.71 261.16 322.95 260.83 323.91 260.58C326.335 259.918 328.796 259.398 331.28 259.02C341.6 257.53 336.34 263.06 332.52 264.8Z" fill="#F2C5EE" stroke="black" stroke-linecap="round" stroke-linejoin="round"/>
<path d="M433.43 309.19L417.61 300.6C414.77 299.2 414 298.5 408.52 298.07L405.77 297.89L401.99 296.12C401.165 295.871 400.311 295.73 399.45 295.7C398.12 295.58 396.77 295.53 395.45 295.53C391.519 295.524 387.602 295.988 383.78 296.91C370.91 299.98 346.1 305.91 345.48 306.07L244.48 319.2L232.84 320.71L213.13 303.51L213.38 303.74L181.99 339L193.99 347.74L194.11 347.83L206.5 356.94L210.35 359.77C211.886 360.898 213.642 361.691 215.505 362.098C217.367 362.504 219.294 362.515 221.16 362.13L223.93 361.56L224.63 361.38L333.44 331.84L349.75 327.41C351.305 327.003 352.916 326.848 354.52 326.95C362.402 327.219 370.241 325.697 377.45 322.5L378.24 322.15C379.799 321.437 381.3 320.604 382.73 319.66C383.33 319.27 384.12 318.77 385.07 318.2C386.69 317.2 388.79 316.01 391.26 314.75C393.52 313.59 396.1 312.39 398.92 311.24L399.66 310.95C401.66 310.14 403.86 309.37 406.1 308.69L406.39 308.6C408.804 307.841 411.36 307.65 413.86 308.04C414.784 308.178 415.697 308.385 416.59 308.66C417.21 308.84 417.85 309.07 418.51 309.32C423.85 311.38 427.84 312.57 430.58 312.72C431.572 312.823 432.575 312.682 433.5 312.31C433.798 312.168 434.049 311.943 434.222 311.663C434.395 311.382 434.483 311.057 434.475 310.727C434.468 310.397 434.365 310.077 434.18 309.804C433.995 309.531 433.734 309.318 433.43 309.19Z" fill="#F2C5EE" stroke="black" stroke-linecap="round" stroke-linejoin="round"/>
<path d="M213.39 303.74L181.99 339L179.44 341.87L178.54 341.17L177.25 340.17C176.71 338.3 176.25 336.41 175.83 334.49C175.65 333.66 175.48 332.83 175.34 331.99C174.435 327.015 173.99 321.967 174.01 316.91C174.01 314.55 174.117 312.216 174.33 309.91C174.33 309.74 174.33 309.58 174.33 309.41C175.375 298.399 178.641 287.713 183.93 278C184.01 277.84 184.1 277.67 184.2 277.51L213.39 303.74Z" fill="#7C25FF" stroke="black" stroke-linecap="round" stroke-linejoin="round"/>
<path d="M194.07 347.83L173.82 359.58H173.75C168.06 350.132 164.339 339.632 162.81 328.71L162.9 328.78C162.7 327.36 162.54 325.95 162.4 324.51C162.19 322.06 162.07 319.57 162.07 317.06V316.82C162.07 315.61 162.07 314.4 162.17 313.19H162.09C162.785 298.141 167.611 283.575 176.04 271.09H176.09L176.48 270.51L184.19 277.43C184.09 277.59 184 277.76 183.92 277.92C178.669 287.615 175.43 298.272 174.4 309.25C174.4 309.42 174.4 309.58 174.4 309.75C174.194 312.063 174.087 314.396 174.08 316.75C174.039 321.862 174.475 326.968 175.38 332C175.52 332.84 175.69 333.67 175.87 334.5C176.27 336.42 176.75 338.31 177.29 340.18L178.58 341.18L179.48 341.88L181.99 339L193.99 347.74L194.07 347.83Z" fill="black" stroke="black" stroke-linecap="round" stroke-linejoin="round"/>
<path d="M321.19 375.78H332.94" stroke="black" stroke-miterlimit="10" stroke-dasharray="2 2"/>
<path d="M339.54 375.78H406.74" stroke="black" stroke-miterlimit="10" stroke-dasharray="2 2"/>
<path d="M289.66 354.03L285.72 358.42" stroke="black" stroke-linecap="round" stroke-linejoin="round"/>
<path d="M193.81 194.91L193.9 189.53L235.92 186.01L237.39 191.26L193.81 194.91Z" fill="white" stroke="black" stroke-linecap="round" stroke-linejoin="round"/>
<path d="M239.8 202L194.19 209.7L203.76 265.16L239.55 262.16L239.8 202Z" fill="white" stroke="black" stroke-linecap="round" stroke-linejoin="round"/>
<path d="M239.81 197.37L239.8 202.01L194.19 209.7L192.74 201.31L239.81 197.37Z" fill="black" stroke="black" stroke-linecap="round" stroke-linejoin="round"/>
<path d="M242.22 197.45L239.81 197.65L239.75 197.66L192.78 201.59H192.76L190.38 201.79L190.89 195.16L193.81 194.91L237.39 191.26L240.62 191L242.22 197.45Z" fill="white" stroke="black" stroke-linecap="round" stroke-linejoin="round"/>
<path d="M232.86 233.74C232.862 234.369 232.819 234.998 232.73 235.62C232.244 239.099 230.428 242.253 227.662 244.417C224.897 246.582 221.398 247.589 217.905 247.225C214.412 246.861 211.197 245.155 208.937 242.466C206.677 239.778 205.55 236.317 205.792 232.813C206.034 229.309 207.628 226.037 210.236 223.685C212.844 221.333 216.264 220.085 219.774 220.206C223.284 220.326 226.61 221.804 229.051 224.329C231.492 226.854 232.858 230.228 232.86 233.74Z" fill="#00ED64" stroke="black" stroke-miterlimit="10"/>
<path d="M462.14 120.33L477.9 126.9V122.56L468.16 118.66L477.9 114.73V110.4L462.14 116.99V120.33Z" fill="black" stroke="black" stroke-linecap="round" stroke-linejoin="round"/>
<path d="M501.3 112.3V116.63L511.03 120.56L501.3 124.46V128.8L517.06 122.23V118.89L501.3 112.3Z" fill="black" stroke="black" stroke-linecap="round" stroke-linejoin="round"/>
<path d="M493.48 104.9L482.03 122.55L481.38 123.55H486.39L488.4 120.44L491.66 115.4L498.44 104.9H493.48Z" fill="black" stroke="black" stroke-linecap="round" stroke-linejoin="round"/>
<path d="M460.58 116.78L476.35 123.35V119.01L466.61 115.11L476.35 111.18V106.85L460.58 113.44V116.78Z" fill="white" stroke="black" stroke-linecap="round" stroke-linejoin="round"/>
<path d="M499.74 108.75V113.08L509.48 117.01L499.74 120.91V125.25L515.51 118.68V115.34L499.74 108.75Z" fill="white" stroke="black" stroke-linecap="round" stroke-linejoin="round"/>
<path d="M491.93 101.35L480.48 119L479.83 120H484.84L486.85 116.89L490.11 111.84L496.89 101.35H491.93Z" fill="white" stroke="black" stroke-linecap="round" stroke-linejoin="round"/>
<path d="M270.93 86.5298C272.432 86.5298 273.65 85.3121 273.65 83.8098C273.65 82.3076 272.432 81.0898 270.93 81.0898C269.428 81.0898 268.21 82.3076 268.21 83.8098C268.21 85.3121 269.428 86.5298 270.93 86.5298Z" fill="#7C25FF" stroke="#7C25FF" stroke-miterlimit="10"/>
<path d="M279.62 86.5298C281.123 86.5298 282.34 85.3121 282.34 83.8098C282.34 82.3076 281.123 81.0898 279.62 81.0898C278.118 81.0898 276.9 82.3076 276.9 83.8098C276.9 85.3121 278.118 86.5298 279.62 86.5298Z" fill="#7C25FF" stroke="#7C25FF" stroke-miterlimit="10"/>
<path d="M288.31 86.5298C289.812 86.5298 291.03 85.3121 291.03 83.8098C291.03 82.3076 289.812 81.0898 288.31 81.0898C286.808 81.0898 285.59 82.3076 285.59 83.8098C285.59 85.3121 286.808 86.5298 288.31 86.5298Z" fill="#7C25FF" stroke="#7C25FF" stroke-miterlimit="10"/>
<path d="M449.77 168.4L482.65 150.5" stroke="black" stroke-miterlimit="10" stroke-dasharray="2 2"/>
<path d="M424.99 171.21L457.88 153.31" stroke="black" stroke-miterlimit="10" stroke-dasharray="2 2"/>
<path d="M504.99 319.39L501.65 332.33L297.69 346.96L378.91 328.54L504.99 319.39Z" fill="white" stroke="black" stroke-linecap="round" stroke-linejoin="round"/>
<path d="M336.23 214.09C334.682 214.376 333.236 215.066 332.04 216.09L422.23 224L423.65 207.76L336.39 214.09H336.23Z" fill="black" stroke="black" stroke-linecap="round" stroke-linejoin="round"/>
<path d="M433.91 385.87C439.483 385.87 444 381.352 444 375.78C444 370.207 439.483 365.69 433.91 365.69C428.338 365.69 423.82 370.207 423.82 375.78C423.82 381.352 428.338 385.87 433.91 385.87Z" fill="white" stroke="black" stroke-linecap="round" stroke-linejoin="round"/>
<path d="M427.88 383.87C427.88 383.87 440.55 379.48 442.26 370.11C444.47 373 445.37 379.68 440.66 383.29C435.95 386.9 431.31 385.72 427.88 383.87Z" fill="black" stroke="black" stroke-linecap="round" stroke-linejoin="round"/>
</g>
<defs>
<clipPath id="clip0_4697_37094">
<rect width="387.98" height="388" fill="white" transform="translate(154 40)"/>
</clipPath>
</defs>
</svg>
