<svg width="696" height="468" viewBox="0 0 696 468" fill="none" xmlns="http://www.w3.org/2000/svg">
<g clip-path="url(#clip0_4697_37286)">
<path d="M247.897 40.4985H419.794C421.911 40.4985 423.94 41.3392 425.437 42.8357C426.933 44.3321 427.774 46.3617 427.774 48.478V187.31H239.918V48.478C239.918 46.3617 240.759 44.3321 242.255 42.8357C243.752 41.3392 245.781 40.4985 247.897 40.4985Z" fill="#F9EBFF" stroke="black" stroke-linecap="round" stroke-linejoin="round"/>
<path d="M247.897 40.4985H419.794C421.911 40.4985 423.94 41.3392 425.437 42.8357C426.933 44.3321 427.774 46.3617 427.774 48.478V60.3175H239.918V48.478C239.918 46.3617 240.759 44.3321 242.255 42.8357C243.752 41.3392 245.781 40.4985 247.897 40.4985Z" fill="#F9EBFF" stroke="black" stroke-linecap="round" stroke-linejoin="round"/>
<path d="M318.844 104.284H257.054V120.153H318.844V104.284Z" fill="#B45AF2"/>
<path d="M410.638 78.3311H257.054V94.2002H410.638V78.3311Z" fill="#B45AF2"/>
<path d="M318.844 130.228H257.054V171.451H318.844V130.228Z" fill="#B45AF2"/>
<path d="M410.638 104.284H328.929V171.451H410.638V104.284Z" fill="#B45AF2"/>
<path d="M283.935 363.157L526.858 345.712L527.856 345.642H527.956C528.015 344.296 528.035 342.939 528.035 341.573V341.224L563.404 209.453L323.193 224.584C321.24 224.904 319.43 225.811 318.004 227.185C316.579 228.558 315.605 230.334 315.214 232.274L283.935 363.157Z" fill="black" stroke="black" stroke-linecap="round" stroke-linejoin="round"/>
<path d="M324.201 221.034L285.431 363.048L539.406 360.674L579.403 205.803C579.727 204.561 579.75 203.26 579.47 202.008C579.191 200.756 578.617 199.588 577.795 198.603C576.974 197.617 575.93 196.841 574.749 196.339C573.568 195.838 572.284 195.625 571.005 195.719L334.095 212.885C331.805 213.05 329.623 213.924 327.85 215.383C326.078 216.843 324.802 218.818 324.201 221.034Z" fill="white" stroke="black" stroke-linecap="round" stroke-linejoin="round"/>
<path d="M322.555 226.928L285.431 363.047L524.056 360.654L563.444 209.443L322.555 226.928Z" fill="white" stroke="black" stroke-linecap="round" stroke-linejoin="round"/>
<path d="M532.055 364.942L194.016 401.398L193.527 396.92L329.367 360.055L329.377 360.045L537.82 344.914L532.055 364.942Z" fill="black" stroke="black" stroke-linecap="round" stroke-linejoin="round"/>
<path d="M547.774 219.178L515.358 337.802L302.197 354.21L332.928 234.778L547.774 219.178Z" fill="#00ED64" stroke="black" stroke-linecap="round" stroke-linejoin="round"/>
<path d="M115.888 101.831L126.281 91.1382L142.459 95.7563L132.535 106.588L115.888 101.831Z" fill="white" stroke="black" stroke-linecap="round" stroke-linejoin="round"/>
<path d="M115.878 101.871L119.05 116.443L135.238 121.061L132.525 106.628L115.878 101.871Z" fill="white" stroke="black" stroke-linecap="round" stroke-linejoin="round"/>
<path d="M144.992 110.149L142.459 95.7563L132.524 106.628L135.237 121.061L144.992 110.149Z" fill="black" stroke="black" stroke-linecap="round" stroke-linejoin="round"/>
<path d="M336.858 248.672L385.882 245.111" stroke="black" stroke-linecap="round" stroke-linejoin="round"/>
<path d="M389.442 244.852L396.045 244.373" stroke="black" stroke-linecap="round" stroke-linejoin="round"/>
<path d="M393.791 259.055L400.394 258.577" stroke="black" stroke-linecap="round" stroke-linejoin="round"/>
<path d="M415.166 272.012L421.769 271.533" stroke="black" stroke-linecap="round" stroke-linejoin="round"/>
<path d="M412.483 280.64L419.076 280.161" stroke="black" stroke-linecap="round" stroke-linejoin="round"/>
<path d="M404.803 258.248L449.029 255.046" stroke="black" stroke-linecap="round" stroke-linejoin="round"/>
<path d="M425.479 271.264L462.344 268.591" stroke="black" stroke-linecap="round" stroke-linejoin="round"/>
<path d="M422.937 279.872L459.802 277.199" stroke="black" stroke-linecap="round" stroke-linejoin="round"/>
<path d="M409.79 289.258L416.393 288.769" stroke="black" stroke-linecap="round" stroke-linejoin="round"/>
<path d="M420.243 288.49L457.108 285.816" stroke="black" stroke-linecap="round" stroke-linejoin="round"/>
<path d="M406.13 297.945L412.733 297.457" stroke="black" stroke-linecap="round" stroke-linejoin="round"/>
<path d="M418.089 351.757C416.613 351.866 413.401 351.637 406.289 344.116L405.721 343.508L405.122 342.87C404.773 342.481 404.414 342.082 404.045 341.653L402.858 340.276C402.639 340.027 402.419 339.758 402.2 339.488L401.562 338.71C404.384 337.264 407.606 335.718 411.117 334.332C411.636 334.97 412.114 335.618 412.653 336.277C413.6 337.503 414.528 338.73 415.376 339.917C416.224 341.104 417.032 342.321 417.71 343.448C420.503 347.996 421.47 351.487 418.089 351.757Z" fill="black" stroke="black" stroke-linecap="round" stroke-linejoin="round"/>
<path d="M439.863 352.026H439.634L430.567 352.684C427.206 350.948 424.144 347.697 420.353 343.288C419.765 342.61 419.156 341.912 418.538 341.174L417.251 339.727C415.935 338.191 414.508 336.556 412.962 334.85L412.773 334.66C412.573 334.451 412.324 334.222 412.055 333.982C414.598 332.985 417.291 331.987 420.094 331.159L420.443 331.05C423.456 330.099 426.648 329.86 429.769 330.352C429.75 330.856 429.784 331.36 429.869 331.858C429.911 332.137 429.97 332.414 430.048 332.686C430.518 334.414 431.352 336.022 432.492 337.403C433.958 339.239 435.095 340.745 435.953 342.012C435.997 342.121 436.03 342.235 436.053 342.351H436.182C438.676 346.051 438.776 347.438 438.367 348.086L438.157 347.996C438.206 348.062 438.25 348.132 438.287 348.206C439.102 349.339 439.642 350.647 439.863 352.026Z" fill="black" stroke="black" stroke-linecap="round" stroke-linejoin="round"/>
<path d="M397.821 355.078L391.487 355.537C390.843 354.996 390.245 354.402 389.702 353.761C388.403 352.227 387.007 350.778 385.522 349.422C385.103 349.043 384.704 348.694 384.315 348.425L385.313 347.986C387.257 347.096 389.131 346.059 390.918 344.884C391.657 344.395 392.644 343.767 393.841 343.049C394.409 343.577 394.978 344.156 395.537 344.784C396.08 345.387 396.59 346.02 397.063 346.679C397.937 347.88 398.469 349.295 398.602 350.774C398.736 352.253 398.466 353.74 397.821 355.078Z" fill="black" stroke="black" stroke-linecap="round" stroke-linejoin="round"/>
<path d="M416.583 297.177L453.448 294.504" stroke="black" stroke-linecap="round" stroke-linejoin="round"/>
<path d="M442.336 348.704C440.998 348.883 439.637 348.683 438.407 348.126C438.815 347.477 438.716 346.131 436.222 342.39C436.152 342.276 436.076 342.166 435.993 342.061C435.135 340.795 433.998 339.288 432.532 337.453C431.391 336.072 430.558 334.464 430.088 332.735C430.01 332.464 429.95 332.187 429.908 331.907C429.824 331.41 429.79 330.906 429.809 330.401C430.959 330.576 432.096 330.833 433.21 331.169C434.676 332.646 436.122 334.162 437.479 335.648C439.375 337.657 441.116 339.808 442.686 342.081C445 345.562 445.528 348.225 442.336 348.704Z" fill="#F2C5EE" stroke="black" stroke-linecap="round" stroke-linejoin="round"/>
<path d="M322.555 226.928H322.545" stroke="black" stroke-linecap="round" stroke-linejoin="round"/>
<path d="M217.546 354.041L216.648 354.569L203.841 356.235L179.235 334.761L174.537 330.541L174.218 330.262L187.154 326.741L217.546 354.041Z" fill="black" stroke="black" stroke-linecap="round" stroke-linejoin="round"/>
<path d="M323.194 304.917C321.287 305.765 319.226 306.21 317.139 306.224C313.608 306.324 309.469 305.506 304.292 303.98C303.225 303.67 302.108 303.321 300.941 302.982C298.547 302.214 295.954 301.317 293.091 300.319C292.886 300.242 292.676 300.178 292.463 300.13C292.952 299.411 293.46 298.673 294.009 297.945C294.558 297.217 295.176 296.379 295.794 295.611C296.592 294.614 297.42 293.616 298.268 292.739C299.283 291.62 300.355 290.555 301.48 289.547C301.689 290.862 302.332 292.069 303.305 292.978C304.284 293.962 305.403 294.796 306.626 295.452L306.577 295.651L307.524 295.93C308.223 296.276 308.943 296.579 309.679 296.838H309.419L311.334 296.988C314.117 297.786 316.75 298.524 318.975 299.212C324.929 301.107 327.971 302.753 323.194 304.917Z" fill="black" stroke="black" stroke-linecap="round" stroke-linejoin="round"/>
<path d="M326.804 295.362C325.129 296.609 322.725 297.167 319.443 297.287C316.727 297.34 314.01 297.244 311.304 296.998C310.067 296.649 308.801 296.28 307.524 295.891C307.245 295.751 306.935 295.591 306.626 295.412C305.403 294.756 304.283 293.922 303.305 292.938C302.332 292.029 301.689 290.822 301.479 289.507C301.759 289.248 302.048 288.998 302.327 288.759C302.607 288.52 303.016 288.19 303.325 287.931L304.392 288.151C305.729 288.41 307.065 288.659 308.382 288.869C313.09 289.657 317.578 290.185 321.089 290.744C327.153 291.701 330.315 292.749 326.804 295.362Z" fill="#F2C5EE" stroke="black" stroke-linecap="round" stroke-linejoin="round"/>
<path d="M328.271 276.351C326.984 276.939 325.707 277.448 324.421 277.927C319.673 279.692 314.875 280.989 309.828 283.682C308.041 284.616 306.324 285.68 304.691 286.864C304.243 287.193 303.784 287.542 303.325 287.911C302.866 288.28 302.637 288.45 302.327 288.739C302.018 289.028 301.759 289.228 301.48 289.487C300.355 290.495 299.283 291.56 298.268 292.679C297.42 293.596 296.592 294.564 295.794 295.551C295.176 296.319 294.577 297.097 294.009 297.885C293.44 298.673 292.952 299.352 292.463 300.07L292.104 300.608C290.577 302.869 289.278 305.274 288.224 307.79C286.977 311.022 287.087 313.156 289.411 312.777C291.037 312.159 292.523 311.6 293.899 311.101C296.014 310.323 297.889 309.675 299.475 309.107C300.742 308.698 303.155 308.039 303.155 308.039C306.841 306.961 310.779 307.119 314.366 308.488C315.049 308.712 315.69 309.049 316.262 309.486C316.693 309.754 317.052 310.125 317.306 310.565C317.56 311.005 317.701 311.501 317.718 312.009C317.508 313.366 316.481 314.084 314.965 314.562C312.302 315.4 308.152 315.5 304.272 317.046C302.855 317.562 301.484 318.196 300.173 318.941C299.315 319.42 298.178 320.068 296.662 321.006L295.216 321.884C282 329.933 273.143 329.863 269.223 329.155C259.438 331.15 252.705 335.419 245.125 339.129L218.374 354.23L216.658 354.46L217.556 353.931L187.154 326.761L239.25 312.578L239.16 312.518C245.277 310.775 251.174 308.335 256.735 305.246C263.8 301.271 270.597 296.836 277.083 291.971C283.306 287.353 286.917 284.47 288.723 283.243C294.65 279.325 301.056 276.184 307.783 273.897L307.973 273.837C309.758 273.229 311.434 272.7 312.96 272.261C314.765 271.733 316.321 271.324 317.518 271.005C320.543 270.178 323.614 269.532 326.715 269.07C339.601 267.274 333.038 274.177 328.271 276.351Z" fill="#F2C5EE" stroke="black" stroke-linecap="round" stroke-linejoin="round"/>
<path d="M454.246 331.748L434.497 321.026C430.946 319.28 429.988 318.402 423.136 317.864C422.138 317.784 420.991 317.714 419.705 317.644L414.997 315.44C413.969 315.119 412.902 314.937 411.825 314.901C410.159 314.762 408.484 314.692 406.838 314.692C401.926 314.688 397.031 315.267 392.255 316.417C376.197 320.248 345.227 327.639 344.449 327.858L218.374 344.266L203.841 346.151L179.224 324.676L179.554 324.965L140.395 368.952L155.276 379.924L155.426 380.034L170.896 391.404L175.694 394.935C177.61 396.351 179.802 397.349 182.129 397.865C184.455 398.38 186.864 398.401 189.199 397.927L192.66 397.209L193.528 396.98L329.367 360.075L349.735 354.549C351.686 354.035 353.707 353.839 355.72 353.971C367.689 354.639 378.401 350.978 384.346 348.415L385.343 347.976C387.288 347.086 389.162 346.049 390.949 344.874C391.687 344.385 392.674 343.757 393.871 343.039C395.866 341.822 398.499 340.316 401.591 338.74C404.414 337.294 407.636 335.748 411.147 334.361L412.084 333.992C414.628 332.995 417.321 331.997 420.124 331.169L420.473 331.06C423.486 330.109 426.678 329.87 429.799 330.362C429.799 330.362 429.799 330.362 429.799 330.312C429.799 330.262 429.799 330.312 429.799 330.362C430.949 330.536 432.086 330.793 433.2 331.13C433.978 331.369 434.776 331.648 435.594 331.957C442.266 334.541 447.254 336.017 450.675 336.206C451.913 336.34 453.164 336.162 454.315 335.688C454.701 335.519 455.029 335.239 455.256 334.885C455.484 334.53 455.601 334.116 455.594 333.695C455.586 333.273 455.454 332.864 455.214 332.517C454.974 332.171 454.637 331.903 454.246 331.748Z" fill="#F2C5EE" stroke="black" stroke-linecap="round" stroke-linejoin="round"/>
<path d="M179.554 324.966L140.395 368.952L137.203 372.533L136.126 371.645L134.52 370.389C133.842 368.055 133.243 365.681 132.735 363.287C132.515 362.289 132.306 361.222 132.116 360.175C130.992 353.965 130.438 347.665 130.461 341.353C130.461 338.401 130.594 335.482 130.86 332.596L130.919 331.978C132.191 318.269 136.222 304.959 142.769 292.848L143.098 292.23L179.554 324.966Z" fill="#7C25FF" stroke="black" stroke-linecap="round" stroke-linejoin="round"/>
<path d="M155.426 380.004L130.141 394.676L130.041 394.726C122.942 382.929 118.297 369.82 116.386 356.185L116.506 356.275C116.257 354.509 116.057 352.744 115.887 350.948C115.618 347.886 115.479 344.774 115.479 341.642V341.353C115.479 339.827 115.479 338.361 115.598 336.815H115.488C116.357 318.025 122.386 299.838 132.914 284.25L132.973 284.3L133.462 283.582L143.107 292.25L142.778 292.868C136.222 304.974 132.181 318.28 130.899 331.987L130.839 332.606C130.58 335.485 130.447 338.404 130.44 341.363C130.431 347.676 130.998 353.976 132.136 360.185C132.325 361.232 132.535 362.269 132.754 363.297C133.263 365.69 133.861 368.064 134.539 370.398L136.125 371.645L137.232 372.523L140.424 368.942L155.306 379.914L155.426 380.004Z" fill="black" stroke="black" stroke-linecap="round" stroke-linejoin="round"/>
<path d="M314.127 414.904H328.799" stroke="black" stroke-miterlimit="10" stroke-dasharray="2 2"/>
<path d="M337.038 414.904H420.932" stroke="black" stroke-miterlimit="10" stroke-dasharray="2 2"/>
<path d="M274.758 387.744L269.841 393.22" stroke="black" stroke-linecap="round" stroke-linejoin="round"/>
<path d="M155.106 189.106L155.216 182.383L207.681 177.994L209.506 184.547L155.106 189.106Z" fill="white" stroke="black" stroke-linecap="round" stroke-linejoin="round"/>
<path d="M212.508 197.973L155.575 207.568L167.544 276.799L212.219 273.069L212.508 197.973Z" fill="white" stroke="black" stroke-linecap="round" stroke-linejoin="round"/>
<path d="M212.539 192.178L212.519 197.973L155.576 207.568L153.771 197.095L212.539 192.178Z" fill="black" stroke="black" stroke-linecap="round" stroke-linejoin="round"/>
<path d="M215.541 192.277L212.539 192.527L212.459 192.537L153.82 197.434H153.79L150.828 197.684L151.457 189.415L155.107 189.106L209.507 184.547L213.537 184.218L215.541 192.277Z" fill="white" stroke="black" stroke-linecap="round" stroke-linejoin="round"/>
<path d="M203.851 237.581C203.853 238.365 203.8 239.148 203.691 239.925C203.09 244.279 200.821 248.229 197.363 250.943C193.906 253.656 189.53 254.921 185.157 254.471C180.785 254.02 176.759 251.89 173.927 248.528C171.095 245.167 169.679 240.837 169.978 236.452C170.276 232.067 172.266 227.969 175.527 225.022C178.789 222.076 183.067 220.51 187.46 220.657C191.852 220.803 196.017 222.65 199.075 225.807C202.133 228.964 203.845 233.185 203.851 237.581Z" fill="#00ED64" stroke="black" stroke-miterlimit="10"/>
<path d="M490.083 95.9955L509.752 104.204V98.7783L497.604 93.9109L509.752 89.0135V83.6074L490.083 91.8262V95.9955Z" fill="black" stroke="black" stroke-linecap="round" stroke-linejoin="round"/>
<path d="M538.967 85.9717V91.3877L551.125 96.2851L538.967 101.153V106.569L558.646 98.3697V94.2005L538.967 85.9717Z" fill="black" stroke="black" stroke-linecap="round" stroke-linejoin="round"/>
<path d="M529.212 76.7354L514.919 98.7686L514.111 100.015H520.365L522.879 96.1254L526.938 89.8416L535.406 76.7354H529.212Z" fill="black" stroke="black" stroke-linecap="round" stroke-linejoin="round"/>
<path d="M488.148 91.567L507.818 99.7659V94.3498L495.669 89.4824L507.818 84.575V79.1689L488.148 87.3977V91.567Z" fill="white" stroke="black" stroke-linecap="round" stroke-linejoin="round"/>
<path d="M537.032 81.543V86.949L549.191 91.8464L537.032 96.7238V102.14L556.712 93.941V89.7618L537.032 81.543Z" fill="white" stroke="black" stroke-linecap="round" stroke-linejoin="round"/>
<path d="M527.277 72.2969L512.984 94.3301L512.166 95.5769H518.43L520.933 91.6969L525.003 85.4031L533.471 72.2969H527.277Z" fill="white" stroke="black" stroke-linecap="round" stroke-linejoin="round"/>
<path d="M251.379 53.8045C253.251 53.8045 254.77 52.2862 254.77 50.4132C254.77 48.5403 253.251 47.022 251.379 47.022C249.506 47.022 247.987 48.5403 247.987 50.4132C247.987 52.2862 249.506 53.8045 251.379 53.8045Z" fill="#7C25FF" stroke="#7C25FF" stroke-miterlimit="10"/>
<path d="M262.23 53.8045C264.103 53.8045 265.621 52.2862 265.621 50.4132C265.621 48.5403 264.103 47.022 262.23 47.022C260.357 47.022 258.839 48.5403 258.839 50.4132C258.839 52.2862 260.357 53.8045 262.23 53.8045Z" fill="#7C25FF" stroke="#7C25FF" stroke-miterlimit="10"/>
<path d="M273.083 53.8045C274.956 53.8045 276.474 52.2862 276.474 50.4132C276.474 48.5403 274.956 47.022 273.083 47.022C271.21 47.022 269.691 48.5403 269.691 50.4132C269.691 52.2862 271.21 53.8045 273.083 53.8045Z" fill="#7C25FF" stroke="#7C25FF" stroke-miterlimit="10"/>
<path d="M474.643 156.011L515.697 133.659" stroke="black" stroke-miterlimit="10" stroke-dasharray="2 2"/>
<path d="M443.713 159.512L484.767 137.169" stroke="black" stroke-miterlimit="10" stroke-dasharray="2 2"/>
<path d="M543.575 344.495L539.406 360.653L284.792 378.916L386.191 355.926L543.575 344.495Z" fill="white" stroke="black" stroke-linecap="round" stroke-linejoin="round"/>
<path d="M332.898 213.054C330.95 213.395 329.13 214.257 327.632 215.548L440.222 225.402L442.037 205.075L333.108 213.054H332.898Z" fill="black" stroke="black" stroke-linecap="round" stroke-linejoin="round"/>
<path d="M454.844 427.501C461.801 427.501 467.441 421.861 467.441 414.904C467.441 407.946 461.801 402.306 454.844 402.306C447.886 402.306 442.246 407.946 442.246 414.904C442.246 421.861 447.886 427.501 454.844 427.501Z" fill="white" stroke="black" stroke-linecap="round" stroke-linejoin="round"/>
<path d="M447.323 424.998C447.323 424.998 463.142 419.522 465.277 407.812C468.03 411.433 469.167 419.781 463.282 424.27C457.397 428.758 451.602 427.312 447.323 424.998Z" fill="black" stroke="black" stroke-linecap="round" stroke-linejoin="round"/>
</g>
<defs>
<clipPath id="clip0_4697_37286">
<rect width="465.161" height="388" fill="white" transform="translate(115 40)"/>
</clipPath>
</defs>
</svg>
