<?xml version="1.0" encoding="utf-8"?>
<!-- Generator: Adobe Illustrator 26.5.0, SVG Export Plug-In . SVG Version: 6.00 Build 0)  -->
<svg version="1.1" id="Layer_1" xmlns="http://www.w3.org/2000/svg" xmlns:xlink="http://www.w3.org/1999/xlink" x="0px" y="0px"
	 viewBox="0 0 144 144" style="enable-background:new 0 0 144 144;" xml:space="preserve">
<style type="text/css">
	.st0{fill:#0070B8;}
	.st1{fill:#6FCDE4;}
	.st2{fill:#144F90;}
	.st3{fill:#FFFFFF;}
	.st4{fill:#76C168;}
</style>
<g>
	<path d="M33.18,33.22c0-1.25-0.89-2.3-2.21-2.3h-0.91v4.6h0.91C32.29,35.52,33.18,34.47,33.18,33.22z"/>
	<path d="M36.01,58.23c-0.81,0-1.69,0.45-1.89,1.69h3.7C37.64,58.81,36.92,58.23,36.01,58.23z"/>
	<path d="M53.73,45.82c-0.66,0-1.07,0.37-1.21,0.88h2.35C54.7,46.04,54.16,45.82,53.73,45.82z"/>
	<path d="M38.57,32.82c-0.66,0-1.07,0.37-1.21,0.88h2.35C39.54,33.04,39,32.82,38.57,32.82z"/>
	<path d="M103.14,59.83l8.54,3.55h0.77l3.31-1.42V27.72H27.56v35.65H72.8l8.54-3.55C87.37,57.33,97.12,57.33,103.14,59.83z
		 M57.99,31.62h1.66v0.56c0.26-0.37,0.81-0.68,1.53-0.68c1.35,0,2.13,1,2.13,2.44v3.18h-1.66v-2.89c0-0.76-0.3-1.22-0.89-1.22
		c-0.63,0-1.11,0.45-1.11,1.44v2.67h-1.66V31.62z M53.47,31.5c0.67,0,1.24,0.3,1.5,0.67v-0.55h1.66v5.16c0,2.04-1.39,2.75-2.81,2.75
		c-1.57,0-2.6-0.92-2.68-2.11h1.62c0.18,0.52,0.55,0.74,1.11,0.74c0.57,0,1.1-0.35,1.1-1.13v-0.65c-0.25,0.37-0.83,0.67-1.5,0.67
		c-1.41,0-2.57-1.23-2.57-2.77C50.89,32.73,52.06,31.5,53.47,31.5z M49.02,28.8c0.58,0,1.04,0.46,1.04,1.03
		c0,0.57-0.46,1.03-1.04,1.03c-0.56,0-1.03-0.46-1.03-1.03C47.99,29.27,48.46,28.8,49.02,28.8z M49.86,31.62v5.5H48.2v-5.5H49.86z
		 M44.85,35.17l-1.11-0.29c-0.96-0.24-1.39-0.91-1.39-1.73c0-0.96,0.85-1.66,2.3-1.66c1.21,0,2.2,0.62,2.28,1.78h-1.67
		c-0.07-0.41-0.35-0.51-0.64-0.51c-0.34,0-0.56,0.13-0.56,0.35c0,0.29,0.31,0.36,0.56,0.43l1,0.26c1.11,0.3,1.55,0.86,1.55,1.73
		c0,1.02-0.98,1.69-2.37,1.69c-1.5,0-2.51-0.84-2.56-1.91H44c0.02,0.44,0.4,0.66,0.87,0.66c0.43,0,0.62-0.15,0.62-0.35
		C45.48,35.4,45.28,35.28,44.85,35.17z M38.62,31.5c1.58,0,3,1.08,2.94,3.26h-4.24c0.08,0.56,0.5,1.06,1.39,1.06
		c0.48,0,0.92-0.22,1.06-0.52h1.74c-0.35,1.14-1.5,1.95-2.88,1.95c-1.71,0-2.92-1.21-2.92-2.88C35.7,32.71,36.96,31.5,38.62,31.5z
		 M34.05,44.62h1.82l1.36,3.4l1.35-3.4h1.83l-3.42,7.8H35.2l1.14-2.62L34.05,44.62z M28.31,29.31h2.66c2.2,0,3.98,1.74,3.98,3.91
		c0,2.17-1.78,3.91-3.98,3.91h-2.66V29.31z M30.91,47.1l-0.76-0.2c-1.24-0.33-2.1-1.12-2.11-2.34c-0.01-1.47,1.07-2.38,2.68-2.38
		c1.71,0,2.77,1.24,2.82,2.44H31.8c-0.18-0.62-0.66-0.82-1.08-0.82c-0.51,0-0.91,0.22-0.92,0.64c-0.01,0.43,0.34,0.68,0.95,0.84
		l0.89,0.23c1.28,0.33,2.07,1.17,2.07,2.39c0,1.33-1.1,2.37-2.78,2.37c-1.94,0-3.01-1.33-3.08-2.64h1.75
		c0.11,0.66,0.65,1.02,1.33,1.02c0.58,0,1.01-0.25,1.01-0.69C31.93,47.58,31.65,47.29,30.91,47.1z M31.02,63.12h-0.83V56.1h-2.53
		v-0.79h5.89v0.79h-2.53V63.12z M38.61,60.59h-4.53c0.02,1.13,0.94,1.93,1.94,1.93c0.73,0,1.34-0.28,1.72-1.03h0.79
		c-0.26,0.94-1.1,1.75-2.51,1.75c-1.58,0-2.73-1.22-2.73-2.86c0-1.6,1.03-2.86,2.76-2.86C37.8,57.51,38.75,59.01,38.61,60.59z
		 M45.14,63.12h-0.77V62.2c-0.4,0.59-1.19,1.03-2.04,1.03c-1.56,0-2.74-1.29-2.74-2.86s1.18-2.86,2.74-2.86
		c0.85,0,1.64,0.44,2.04,1.03v-0.92h0.77V63.12z M43.18,50.24c-1.5,0-2.51-0.84-2.56-1.91h1.75c0.02,0.44,0.4,0.66,0.87,0.66
		c0.43,0,0.62-0.15,0.62-0.35c0-0.24-0.2-0.35-0.63-0.46l-1.11-0.29c-0.96-0.24-1.39-0.91-1.39-1.73c0-0.96,0.85-1.66,2.3-1.66
		c1.21,0,2.2,0.62,2.28,1.78h-1.67c-0.07-0.41-0.35-0.51-0.64-0.51c-0.34,0-0.56,0.13-0.56,0.35c0,0.29,0.31,0.36,0.56,0.43l1,0.26
		c1.11,0.3,1.55,0.86,1.55,1.73C45.55,49.57,44.57,50.24,43.18,50.24z M45.92,46.06v-1.44h1.1v-1.53h1.66v1.53h1.54v1.44h-1.54v1.71
		c0,0.66,0.27,0.94,0.94,0.94c0.25,0,0.43-0.03,0.6-0.1v1.47c-0.24,0.07-0.55,0.11-0.99,0.11c-1.22,0-2.21-0.68-2.21-2.08v-2.05
		H45.92z M54.93,63.12h-0.77v-3.33c0-0.9-0.41-1.56-1.17-1.56c-0.97,0-1.63,0.85-1.63,2.16v2.74H50.6v-3.33
		c0-0.9-0.4-1.56-1.16-1.56c-0.97,0-1.64,0.85-1.64,2.16v2.74h-0.77v-5.5h0.77v0.92c0.32-0.64,0.96-1.03,1.72-1.03
		c0.84,0,1.44,0.47,1.71,1.23c0.27-0.74,0.95-1.23,1.83-1.23c1.16,0,1.88,0.88,1.88,2.17V63.12z M53.86,48.81
		c0.48,0,0.92-0.22,1.06-0.52h1.74c-0.35,1.14-1.5,1.95-2.88,1.95c-1.71,0-2.92-1.21-2.92-2.88c0-1.65,1.25-2.86,2.92-2.86
		c1.58,0,3,1.08,2.94,3.26h-4.24C52.55,48.32,52.97,48.81,53.86,48.81z M66.3,50.12h-1.66v-2.85c0-0.8-0.23-1.27-0.79-1.27
		c-0.58,0-0.99,0.44-0.99,1.44v2.67h-1.66v-2.85c0-0.8-0.23-1.27-0.79-1.27c-0.58,0-0.99,0.44-0.99,1.44v2.67h-1.66v-5.5h1.66v0.56
		c0.29-0.38,0.76-0.68,1.41-0.68c0.79,0,1.36,0.36,1.71,0.97c0.35-0.67,1.11-0.97,1.68-0.97c1.34,0,2.09,0.96,2.09,2.49V50.12z
		 M69.81,50.24c-1.5,0-2.51-0.84-2.56-1.91H69c0.02,0.44,0.4,0.66,0.87,0.66c0.43,0,0.62-0.15,0.62-0.35c0-0.24-0.2-0.35-0.63-0.46
		l-1.11-0.29c-0.96-0.24-1.39-0.91-1.39-1.73c0-0.96,0.85-1.66,2.3-1.66c1.21,0,2.2,0.62,2.28,1.78h-1.67
		c-0.07-0.41-0.35-0.51-0.64-0.51c-0.34,0-0.56,0.13-0.56,0.35c0,0.29,0.31,0.36,0.56,0.43l1,0.26c1.11,0.3,1.55,0.86,1.55,1.73
		C72.18,49.57,71.2,50.24,69.81,50.24z"/>
	<path d="M27.19,27.72H6.07c-1.1,4.7-1.56,9.53-1.34,14.37v21.29h22.45V27.72z"/>
	<path d="M27.19,99.68V63.75H4.73v38.59c-0.1,2.21-0.05,4.41,0.13,6.61l14.85-6.16L27.19,99.68z"/>
	<circle cx="53.83" cy="34.27" r="1.27"/>
	<path d="M42.41,58.23c-1.2,0-2.02,0.96-2.02,2.15c0,1.19,0.82,2.15,2.02,2.15s2.02-0.96,2.02-2.15
		C44.44,59.18,43.61,58.23,42.41,58.23z"/>
	<path d="M137.22,27.34c-0.35-1.43-0.75-2.84-1.22-4.24c-3.29-7.8-9.9-13.72-18-16.14c-0.62-0.15-1.25-0.27-1.87-0.41v20.79H137.22z
		"/>
	<path d="M27.19,27.34V6.57c-0.6,0.13-1.21,0.24-1.81,0.39c-8.1,2.42-14.71,8.34-18,16.14c-0.46,1.4-0.86,2.81-1.21,4.24H27.19z"/>
	<path d="M116.13,61.79l22.52-9.66V42.09c0.22-4.83-0.23-9.67-1.33-14.37h-21.18V61.79z"/>
	<path d="M115.76,27.34V6.47c-3.91-0.81-7.89-1.25-11.88-1.25c-0.68,0-1.37,0.01-2.05,0.04H41.57c-0.68-0.02-1.37-0.04-2.05-0.04
		c-4.01,0-8.02,0.44-11.95,1.27v20.86H115.76z"/>
	<path class="st0" d="M27.19,116.65H6.06c0.37,1.58,0.81,3.14,1.32,4.68c3.29,7.8,9.9,13.72,18,16.14c0.6,0.15,1.21,0.26,1.81,0.39
		V116.65z"/>
	<path class="st0" d="M27.19,99.68l-7.47,3.1l-14.85,6.16c0.2,2.46,0.57,4.91,1.12,7.32h21.2V99.68z"/>
	<polygon class="st0" points="116.13,63.37 138.65,63.37 138.65,52.14 116.13,61.79 	"/>
	<polygon class="st0" points="116.13,65.22 138.65,74.56 138.65,63.75 116.13,63.75 	"/>
	<polygon class="st0" points="115.76,63.75 112.59,63.75 115.76,65.06 	"/>
	<polygon class="st0" points="115.76,63.37 115.76,61.95 112.45,63.37 	"/>
	<path class="st0" d="M113.07,106.8l-13.48,5.23c-3.25,1.35-12.08,1.04-14.7,0l-17.5-6.79l0,0l-0.01,0l-11.79-4.58
		c-0.48-0.19-0.89-0.39-1.26-0.59l-14.36-5.69l0.03-0.01l-12.45,5.17v16.74h88.19v-10.5l-2.32,0.9
		C113.33,106.71,113.2,106.75,113.07,106.8z"/>
	<path class="st0" d="M116.13,105.62v10.65h21.27c1.03-4.56,1.46-9.24,1.25-13.93v-5.46L116.13,105.62z"/>
	<path class="st0" d="M116.13,137.87c0.63-0.13,1.25-0.25,1.87-0.41c8.1-2.42,14.71-8.34,18-16.14c0.51-1.54,0.95-3.1,1.32-4.68
		h-21.19V137.87z"/>
	<path class="st0" d="M115.76,116.65H27.56v21.29c3.93,0.82,7.93,1.27,11.95,1.27c0.68,0,1.37-0.01,2.05-0.04h60.25
		c0.68,0.02,1.37,0.04,2.05,0.04c3.99,0,7.98-0.44,11.89-1.25V116.65z"/>
	<path class="st1" d="M6.17,27.34c-0.03,0.13-0.07,0.25-0.1,0.38h21.11v35.65H4.73v0.38h22.45v35.93v16.59H5.98
		c0.03,0.13,0.05,0.25,0.08,0.38h21.12v21.21c0.13,0.03,0.25,0.06,0.38,0.08v-21.29h88.19v21.31c0.13-0.03,0.25-0.05,0.38-0.08
		v-21.23h21.19c0.03-0.12,0.05-0.25,0.08-0.38h-21.27v-10.65v-4.36l-0.38,0.16v4.35v10.5H27.56V99.53V63.75H71.9l0.91-0.38H27.56
		V27.72h88.19v34.24v1.42h-3.31h-0.77l0.91,0.38h3.17v1.31l0.38,0.16v-1.47h22.52v-0.38h-22.52v-1.58V27.72h21.18
		c-0.03-0.13-0.07-0.25-0.1-0.38h-21.09V6.55c-0.13-0.03-0.25-0.06-0.38-0.08v20.87H27.56V6.49c-0.13,0.03-0.25,0.05-0.38,0.08
		v20.77H6.17z"/>
	<polygon class="st2" points="116.13,101.26 116.13,105.62 138.65,96.88 138.65,91.91 	"/>
	<path class="st2" d="M81.35,106.65l-20.77-8.62v0c-0.1-0.24-14.71-6.11-14.71-6.11l-5.85,2.44l-0.03,0.01l14.36,5.69
		c0.37,0.21,0.78,0.41,1.26,0.59l11.79,4.58l0.01,0l0,0l17.5,6.79c2.62,1.04,11.44,1.35,14.7,0l13.48-5.23
		c0.12-0.04,0.25-0.08,0.36-0.13l2.32-0.9v-4.35l-12.62,5.24C97.12,109.15,87.37,109.15,81.35,106.65z"/>
	<path class="st3" d="M53.47,37.04c0.67,0,1.24-0.3,1.5-0.67v0.65c0,0.78-0.53,1.13-1.1,1.13c-0.56,0-0.94-0.22-1.11-0.74h-1.62
		c0.09,1.19,1.11,2.11,2.68,2.11c1.42,0,2.81-0.71,2.81-2.75v-5.16h-1.66v0.55c-0.25-0.37-0.83-0.67-1.5-0.67
		c-1.41,0-2.57,1.23-2.57,2.77C50.89,35.81,52.06,37.04,53.47,37.04z M53.83,33.01c0.67,0,1.27,0.5,1.27,1.27
		c0,0.77-0.59,1.27-1.27,1.27c-0.67,0-1.27-0.49-1.27-1.27C52.57,33.5,53.16,33.01,53.83,33.01z"/>
	<path class="st3" d="M49.02,30.87c0.58,0,1.04-0.46,1.04-1.03c0-0.57-0.46-1.03-1.04-1.03c-0.56,0-1.03,0.46-1.03,1.03
		C47.99,30.41,48.46,30.87,49.02,30.87z"/>
	<path class="st3" d="M59.65,34.45c0-0.99,0.48-1.44,1.11-1.44c0.59,0,0.89,0.46,0.89,1.22v2.89h1.66v-3.18
		c0-1.44-0.78-2.44-2.13-2.44c-0.72,0-1.27,0.31-1.53,0.68v-0.56h-1.66v5.5h1.66V34.45z"/>
	<rect x="48.2" y="31.62" class="st3" width="1.66" height="5.5"/>
	<path class="st3" d="M44.87,35.99c-0.47,0-0.85-0.22-0.87-0.66h-1.75c0.06,1.08,1.07,1.91,2.56,1.91c1.39,0,2.37-0.67,2.37-1.69
		c0-0.87-0.44-1.43-1.55-1.73l-1-0.26c-0.25-0.07-0.56-0.14-0.56-0.43c0-0.22,0.22-0.35,0.56-0.35c0.29,0,0.57,0.1,0.64,0.51h1.67
		c-0.08-1.17-1.07-1.78-2.28-1.78c-1.45,0-2.3,0.7-2.3,1.66c0,0.81,0.43,1.48,1.39,1.73l1.11,0.29c0.43,0.11,0.63,0.22,0.63,0.46
		C45.48,35.84,45.3,35.99,44.87,35.99z"/>
	<path class="st3" d="M34.96,33.22c0-2.17-1.78-3.91-3.98-3.91h-2.66v7.81h2.66C33.17,37.12,34.96,35.38,34.96,33.22z M30.06,30.92
		h0.91c1.32,0,2.21,1.05,2.21,2.3c0,1.25-0.89,2.3-2.21,2.3h-0.91V30.92z"/>
	<path class="st3" d="M38.62,37.24c1.39,0,2.53-0.8,2.88-1.95h-1.74c-0.13,0.3-0.57,0.52-1.06,0.52c-0.89,0-1.31-0.5-1.39-1.06h4.24
		c0.07-2.18-1.35-3.26-2.94-3.26c-1.66,0-2.92,1.21-2.92,2.86C35.7,36.03,36.91,37.24,38.62,37.24z M38.57,32.82
		c0.43,0,0.97,0.22,1.14,0.88h-2.35C37.51,33.19,37.91,32.82,38.57,32.82z"/>
	<path class="st3" d="M70.63,46.82l-1-0.26c-0.25-0.07-0.56-0.14-0.56-0.43c0-0.22,0.22-0.35,0.56-0.35c0.29,0,0.57,0.1,0.64,0.51
		h1.67c-0.08-1.17-1.07-1.78-2.28-1.78c-1.45,0-2.3,0.7-2.3,1.66c0,0.81,0.43,1.48,1.39,1.73l1.11,0.29
		c0.43,0.11,0.63,0.22,0.63,0.46c0,0.2-0.19,0.35-0.62,0.35c-0.47,0-0.85-0.22-0.87-0.66h-1.75c0.06,1.08,1.07,1.91,2.56,1.91
		c1.39,0,2.37-0.67,2.37-1.69C72.18,47.68,71.74,47.12,70.63,46.82z"/>
	<path class="st3" d="M53.78,44.5c-1.66,0-2.92,1.21-2.92,2.86c0,1.67,1.21,2.88,2.92,2.88c1.39,0,2.53-0.8,2.88-1.95h-1.74
		c-0.13,0.3-0.57,0.52-1.06,0.52c-0.89,0-1.31-0.5-1.39-1.06h4.24C56.78,45.58,55.36,44.5,53.78,44.5z M52.52,46.7
		c0.14-0.51,0.55-0.88,1.21-0.88c0.43,0,0.97,0.22,1.14,0.88H52.52z"/>
	<path class="st3" d="M49.23,50.19c0.44,0,0.75-0.04,0.99-0.11V48.6c-0.18,0.07-0.35,0.1-0.6,0.1c-0.66,0-0.94-0.27-0.94-0.94v-1.71
		h1.54v-1.44h-1.54v-1.53h-1.66v1.53h-1.1v1.44h1.1v2.05C47.02,49.51,48.01,50.19,49.23,50.19z"/>
	<path class="st3" d="M64.2,44.5c-0.57,0-1.33,0.3-1.68,0.97c-0.34-0.6-0.91-0.97-1.71-0.97c-0.65,0-1.12,0.3-1.41,0.68v-0.56h-1.66
		v5.5h1.66v-2.67c0-1,0.41-1.44,0.99-1.44c0.56,0,0.79,0.46,0.79,1.27v2.85h1.66v-2.67c0-1,0.41-1.44,0.99-1.44
		c0.56,0,0.79,0.46,0.79,1.27v2.85h1.66v-3.14C66.3,45.46,65.55,44.5,64.2,44.5z"/>
	<path class="st3" d="M44,46.82l-1-0.26c-0.25-0.07-0.56-0.14-0.56-0.43c0-0.22,0.22-0.35,0.56-0.35c0.29,0,0.57,0.1,0.64,0.51h1.67
		c-0.08-1.17-1.07-1.78-2.28-1.78c-1.45,0-2.3,0.7-2.3,1.66c0,0.81,0.43,1.48,1.39,1.73l1.11,0.29c0.43,0.11,0.63,0.22,0.63,0.46
		c0,0.2-0.19,0.35-0.62,0.35c-0.47,0-0.85-0.22-0.87-0.66h-1.75c0.06,1.08,1.07,1.91,2.56,1.91c1.39,0,2.37-0.67,2.37-1.69
		C45.55,47.68,45.11,47.12,44,46.82z"/>
	<polygon class="st3" points="36.99,52.42 40.41,44.62 38.59,44.62 37.23,48.02 35.87,44.62 34.05,44.62 36.34,49.8 35.2,52.42 	"/>
	<path class="st3" d="M30.92,48.64c-0.68,0-1.22-0.36-1.33-1.02h-1.75c0.07,1.31,1.14,2.64,3.08,2.64c1.68,0,2.78-1.03,2.78-2.37
		c0-1.22-0.79-2.06-2.07-2.39l-0.89-0.23c-0.6-0.15-0.96-0.41-0.95-0.84c0.01-0.42,0.42-0.64,0.92-0.64c0.42,0,0.9,0.21,1.08,0.82
		h1.74c-0.04-1.2-1.11-2.44-2.82-2.44c-1.62,0-2.7,0.9-2.68,2.38c0.01,1.22,0.87,2.01,2.11,2.34l0.76,0.2
		c0.75,0.2,1.02,0.48,1.02,0.85C31.93,48.38,31.5,48.64,30.92,48.64z"/>
	<path class="st3" d="M36.04,57.51c-1.73,0-2.76,1.27-2.76,2.86c0,1.64,1.14,2.86,2.73,2.86c1.41,0,2.24-0.81,2.51-1.75h-0.79
		c-0.37,0.76-0.99,1.03-1.72,1.03c-1,0-1.91-0.79-1.94-1.93h4.53C38.75,59.01,37.8,57.51,36.04,57.51z M34.12,59.92
		c0.2-1.24,1.08-1.69,1.89-1.69c0.91,0,1.63,0.58,1.8,1.69H34.12z"/>
	<path class="st3" d="M53.05,57.51c-0.88,0-1.55,0.5-1.83,1.23c-0.26-0.76-0.87-1.23-1.71-1.23c-0.76,0-1.4,0.4-1.72,1.03v-0.92
		h-0.77v5.5h0.77v-2.74c0-1.31,0.67-2.16,1.64-2.16c0.76,0,1.16,0.66,1.16,1.56v3.33h0.77v-2.74c0-1.31,0.66-2.16,1.63-2.16
		c0.76,0,1.17,0.66,1.17,1.56v3.33h0.77v-3.44C54.93,58.39,54.21,57.51,53.05,57.51z"/>
	<polygon class="st3" points="33.55,55.31 27.66,55.31 27.66,56.1 30.19,56.1 30.19,63.12 31.02,63.12 31.02,56.1 33.55,56.1 	"/>
	<path class="st3" d="M44.37,58.55c-0.4-0.59-1.19-1.03-2.04-1.03c-1.56,0-2.74,1.29-2.74,2.86s1.18,2.86,2.74,2.86
		c0.85,0,1.64-0.44,2.04-1.03v0.92h0.77v-5.5h-0.77V58.55z M42.41,62.52c-1.2,0-2.02-0.96-2.02-2.15c0-1.19,0.82-2.15,2.02-2.15
		s2.02,0.96,2.02,2.15C44.44,61.56,43.61,62.52,42.41,62.52z"/>
	<path d="M103.14,104.93c-6.02,2.5-15.77,2.5-21.79,0L37.91,86.9c-6.02-2.5-6.02-6.55,0-9.04L71.9,63.75H27.56v35.78l12.45-5.17
		l5.85-2.44c0,0,14.61,5.86,14.71,6.11v0l20.77,8.62c6.02,2.5,15.77,2.5,21.79,0l12.62-5.24l0.38-0.16l22.52-9.35v-1.72
		L103.14,104.93z"/>
	<path class="st4" d="M115.76,65.06l-3.17-1.31l-0.91-0.38l-8.54-3.55c-6.02-2.5-15.77-2.5-21.79,0l-8.54,3.55l-0.91,0.38
		L37.91,77.86c-6.02,2.5-6.02,6.55,0,9.04l43.44,18.03c6.02,2.5,15.77,2.5,21.79,0l35.51-14.74V74.56l-22.52-9.35L115.76,65.06z"/>
</g>
</svg>
