<?xml version="1.0" encoding="utf-8"?>
<!-- Generator: Adobe Illustrator 23.0.2, SVG Export Plug-In . SVG Version: 6.00 Build 0)  -->
<svg version="1.1" xmlns="http://www.w3.org/2000/svg" xmlns:xlink="http://www.w3.org/1999/xlink" x="0px" y="0px"
	 viewBox="0 0 300.01 76.47" style="enable-background:new 0 0 300.01 76.47;" xml:space="preserve">
<style type="text/css">
	.st0{fill:#13AA52;}
	.st1{fill:#ABABAB;}
	.st2{fill:url(#Shape_1_);}
	.st3{fill:#48474A;}
</style>
<g id="Layer_1">
</g>
<g id="Layer_2">
	<g id="Layer_1_1_">
		<g>
			<g id="logo_3_">
				<g id="Colors_5_">
					<g id="Corp-Colors-_x28_Primary_x29__5_" transform="translate(-957.000000, -316.000000)">
						<g id="Group-5_5_" transform="translate(273.000000, 168.000000)">
							<g id="Group-4_5_" transform="translate(614.000000, 134.000000)">
								<g id="MongoDB-Leaf-Copy-2_5_" transform="translate(70.000000, 14.000000)">
									<path id="Shape_25_" class="st0" d="M33.72,30.44C29.69,12.66,20.17,6.82,19.15,4.59c-1.12-1.58-2.26-4.37-2.26-4.37
										C16.87,0.16,16.84,0.08,16.81,0c-0.12,1.57-0.18,2.18-1.67,3.77C12.84,5.58,1,15.5,0.04,35.7
										c-0.9,18.83,13.61,30.05,15.57,31.49l0.22,0.16c0.56-1.29,1.13-4.97,1.53-10.01c0.09,4.06,0.67,8.42,2.69,9.35l0.12-0.08
										c0.32-0.22,1.25-0.9,2.51-2.05C27.58,60.02,36.86,48.8,33.72,30.44z"/>
									<path id="Shape_24_" class="st1" d="M17.37,57.33c-0.4,5.04-0.97,8.71-1.53,9.99c0,0,0.62,4.44,1.05,9.14l1.54,0
										c0.57-5.27,1.62-9.78,1.62-9.78C18.04,65.76,17.46,61.4,17.37,57.33z"/>
									<path id="Shape_19_" class="st0" d="M33.72,30.44C29.69,12.66,20.17,6.82,19.15,4.59c-1.12-1.58-2.26-4.37-2.26-4.37
										c0.95,3.72,0.79,33.45,0.9,37.01c0.23,7.44,0,14.6-0.43,20.12c0.09,4.06,0.67,8.42,2.69,9.35l0.12-0.08
										c0.32-0.22,1.25-0.9,2.51-2.05l0.09-0.08C27.58,60.02,36.86,48.8,33.72,30.44z"/>
									
										<linearGradient id="Shape_1_" gradientUnits="userSpaceOnUse" x1="39.8165" y1="418.308" x2="39.8165" y2="418.1907" gradientTransform="matrix(68.2258 0 0 -259.7151 -2690.8857 108641.1328)">
										<stop  offset="0" style="stop-color:#13AA52;stop-opacity:0"/>
										<stop  offset="1" style="stop-color:#116149;stop-opacity:0.2"/>
									</linearGradient>
									<path id="Shape_18_" class="st2" d="M33.72,30.44C29.69,12.66,20.17,6.82,19.15,4.59c-1.12-1.58-2.26-4.37-2.26-4.37
										c0.95,3.72,0.79,33.45,0.9,37.01c0.23,7.44,0,14.6-0.43,20.12c0.09,4.06,0.67,8.42,2.69,9.35l0.12-0.08
										c0.32-0.22,1.25-0.9,2.51-2.05l0.09-0.08C27.58,60.02,36.86,48.8,33.72,30.44z"/>
								</g>
							</g>
						</g>
					</g>
				</g>
				<path class="st3" d="M216.07,24.81c1,0,4.78,0.17,6.54,0.17c3.28,0,5.57-0.17,11.72-0.17c5.16,0,9.49,1.39,12.6,4.06
					c3.75,3.25,5.74,7.77,5.74,13.27c0,7.82-3.57,12.34-7.15,14.89c-3.58,2.67-8.21,4.17-14.83,4.17c-3.52,0-9.55-0.12-14.59-0.17
					h-0.07c-0.23-0.46,0.43-2.27,0.84-2.32c1.36-0.15,1.73-0.21,2.36-0.47c1.06-0.44,1.32-0.98,1.43-2.89
					c0.18-3.59,0.12-7.88,0.12-12.75c0-3.48,0.06-10.26-0.06-12.4c-0.18-1.8-0.94-2.26-2.46-2.61c-0.76-0.17-1.82-0.35-3.28-0.52
					C214.88,26.73,215.78,25.16,216.07,24.81 M227.77,57.03c1.23,0.99,3.69,1.39,5.86,1.39c2.81,0,5.57-0.52,8.26-2.96
					c2.75-2.49,4.63-6.32,4.63-12.4c0-5.85-2.23-10.6-6.8-13.39c-2.58-1.62-5.92-2.26-9.73-2.26c-1.11,0-2.23,0.06-2.87,0.35
					c-0.18,0.12-0.53,0.58-0.53,0.81c-0.12,1.04-0.12,8.98-0.12,13.68c0,4.81,0,11.53,0.12,12.34
					C226.66,55.29,227.01,56.51,227.77,57.03"/>
				<path class="st3" d="M256.63,24.92c0.53,0,2.09,0.17,6.07,0.17c3.75,0,6.8-0.12,10.43-0.12c4.51,0,10.72,1.62,10.72,8.34
					c0,3.3-2.34,5.97-5.39,7.24c-0.18,0.06-0.18,0.17,0,0.23c4.34,1.1,8.15,3.77,8.15,8.87c0,4.98-3.11,8.11-7.62,10.08
					c-2.75,1.22-6.15,1.62-9.61,1.62c-2.64,0-9.7-0.29-13.63-0.23c-0.41-0.17,0.38-2.03,0.73-2.32c0.94-0.06,1.66-0.13,2.66-0.42
					c1.41-0.35,1.57-0.8,1.75-2.89c0.12-1.8,0.12-8.23,0.12-12.81c0-6.26,0.06-10.49,0-12.57c-0.06-1.62-0.64-2.14-1.76-2.43
					c-0.88-0.17-2.34-0.35-3.52-0.52C255.44,26.89,256.34,25.15,256.63,24.92 M280.52,50.93c0-5.1-3.75-8-10.61-8
					c-0.29,0-2.46-0.06-2.99,0.06c-0.18,0.06-0.35,0.17-0.35,0.29c0,3.65-0.06,9.5,0.12,11.82c0.12,0.99,0.82,2.38,1.7,2.78
					c0.94,0.52,3.05,0.64,4.51,0.64C276.94,58.53,280.52,56.27,280.52,50.93 M267.21,27.76c-0.23,0.06-0.53,0.64-0.53,0.93
					c-0.06,2.09-0.12,7.53-0.12,11.3c0,0.12,0.18,0.29,0.29,0.29c0.76,0.06,2.64,0.12,4.22,0.12c2.23,0,3.52-0.29,4.22-0.64
					c1.88-0.93,2.75-2.95,2.75-5.16c0-5.04-3.52-6.95-8.73-6.95C268.97,27.64,267.98,27.64,267.21,27.76"/>
				<path class="st3" d="M46.44,61.18c-0.1-0.16-0.2-0.62-0.18-1.17c0.02-0.42,0.1-0.69,0.18-0.78c1.11-0.17,1.63-0.29,2.25-0.46
					c1.04-0.26,1.43-0.82,1.49-2.14c0.17-3.12,0.18-8.99,0.12-13.11l0-0.12c0-0.44,0.01-1.05-0.54-1.47
					c-0.81-0.54-1.83-0.98-3.11-1.36c-0.49-0.15-0.76-0.4-0.75-0.71c0.02-0.29,0.32-0.66,0.96-0.78c1.7-0.17,6.15-1.24,7.89-2.04
					c0.1,0.13,0.27,0.4,0.24,0.83c-0.01,0.18-0.03,0.37-0.05,0.57c-0.05,0.58-0.11,1.24-0.11,1.9c0,0.19,0.21,0.38,0.43,0.38
					c0.11,0,0.22-0.04,0.3-0.13c3.33-2.61,6.3-3.54,7.84-3.54c2.52,0,4.48,1.2,5.99,3.68c0.09,0.13,0.21,0.2,0.34,0.2
					c0.13,0,0.25-0.07,0.32-0.17c3.06-2.32,6.09-3.71,8.12-3.71c4.8,0,7.66,3.59,7.66,9.61c0,1.73-0.02,3.92-0.03,5.96
					c-0.01,1.79-0.03,3.48-0.03,4.64c0,0.28,0.38,1.06,0.95,1.22c0.7,0.34,1.71,0.52,2.99,0.74l0.05,0.01
					c0.1,0.34-0.11,1.69-0.3,1.96c-0.32,0-0.76-0.03-1.31-0.05c-1-0.05-2.36-0.12-3.95-0.12c-3.19,0-4.85,0.06-6.44,0.17
					c-0.12-0.4-0.16-1.68-0.02-1.95c0.93-0.17,1.39-0.29,1.94-0.46c1.01-0.34,1.31-0.79,1.37-2.14c0.02-0.96,0.21-9.39-0.12-11.4
					c-0.3-2.08-1.87-4.5-5.29-4.5c-1.27,0-3.32,0.53-5.27,2.01c-0.12,0.12-0.19,0.35-0.19,0.5l0,0.04c0.23,1.08,0.23,2.34,0.23,4.25
					c0,1.09-0.01,2.24-0.01,3.39c-0.01,2.33-0.03,4.52,0.01,6.18c0,1.13,0.68,1.4,1.23,1.62c0.3,0.07,0.54,0.12,0.77,0.18
					c0.46,0.11,0.94,0.23,1.64,0.34c0.1,0.22,0.11,0.89-0.03,1.46c-0.07,0.31-0.16,0.45-0.2,0.5c-1.77-0.06-3.59-0.11-6.22-0.11
					c-0.8,0-2.09,0.03-3.24,0.06c-0.93,0.02-1.81,0.05-2.31,0.05c-0.07-0.11-0.17-0.48-0.17-1.01c0-0.49,0.09-0.84,0.18-0.94
					c0.25-0.05,0.48-0.09,0.71-0.13c0.62-0.11,1.15-0.2,1.66-0.33c0.87-0.27,1.19-0.75,1.26-1.85c0.17-2.58,0.3-10.01-0.06-11.87
					c-0.62-2.99-2.32-4.5-5.05-4.5c-1.6,0-3.62,0.77-5.27,2.01c-0.28,0.2-0.49,0.72-0.49,1.19c0,0.88,0,1.94-0.01,3.07
					c-0.01,3.73-0.02,8.38,0.07,10.39c0.06,0.62,0.27,1.35,1.44,1.62c0.25,0.07,0.69,0.15,1.2,0.23c0.29,0.05,0.61,0.1,0.94,0.16
					c0.12,0.32,0.05,1.57-0.16,1.96c-0.51,0-1.14-0.03-1.85-0.06c-1.1-0.05-2.46-0.11-4.02-0.11c-1.83,0-3.11,0.06-4.13,0.11
					C47.63,61.15,47.04,61.18,46.44,61.18"/>
				<path class="st3" d="M106.2,61.7c-8.8,0-11.94-6.46-11.94-12.5c0-4.22,1.73-7.52,5.13-9.81c2.42-1.49,5.31-2.34,7.92-2.34
					c6.72,0,11.41,4.83,11.41,11.75c0,4.7-1.88,8.42-5.42,10.74C111.61,60.57,108.65,61.7,106.2,61.7 M105.26,39.51
					c-1.07,0-2.06,0.28-2.8,0.79c-2.04,1.24-3.07,3.71-3.07,7.34c0,6.8,3.4,11.55,8.28,11.55c1.44,0,2.61-0.41,3.58-1.26
					c1.5-1.22,2.29-3.72,2.29-7.21C113.54,44.01,110.22,39.51,105.26,39.51"/>
				<path class="st3" d="M195.84,61.7c-8.81,0-11.94-6.46-11.94-12.5c0-4.22,1.73-7.52,5.13-9.81c2.42-1.49,5.31-2.34,7.92-2.34
					c6.72,0,11.41,4.83,11.41,11.75c0,4.71-1.88,8.42-5.42,10.74C201.25,60.57,198.29,61.7,195.84,61.7 M194.91,39.51
					c-1.07,0-2.06,0.28-2.8,0.79c-2.03,1.24-3.07,3.71-3.07,7.34c0,6.8,3.4,11.55,8.28,11.55c1.44,0,2.61-0.41,3.58-1.26
					c1.5-1.22,2.29-3.72,2.29-7.21C203.18,44.01,199.86,39.51,194.91,39.51"/>
				<path class="st3" d="M165.26,75.61c-3.16,0-5.44-0.67-7.38-2.16c-1.89-1.46-2.74-3.63-2.74-5.13c0-0.43,0.1-1.54,1.04-2.61
					c0.55-0.63,1.83-1.8,4.77-3.82c0.09-0.03,0.15-0.12,0.15-0.23c0-0.12-0.08-0.22-0.18-0.24c-2.43-0.93-3.16-2.46-3.38-3.28
					c0-0.03-0.01-0.08-0.02-0.13c-0.07-0.32-0.13-0.63,0.3-0.95c0.34-0.24,0.89-0.57,1.46-0.91c0.85-0.5,1.82-1.08,2.36-1.53
					c0.09-0.08,0.12-0.2,0.1-0.33c-0.02-0.12-0.09-0.22-0.2-0.28c-3.59-1.21-5.4-3.88-5.4-7.94c0-2.62,1.21-5,3.32-6.51
					c1.45-1.14,5.07-2.52,7.42-2.52l0.14,0c2.42,0.06,3.78,0.56,5.67,1.26c1.02,0.38,1.99,0.53,3.35,0.53c2,0,2.88-0.64,3.63-1.36
					c0.04,0.09,0.15,0.38,0.19,1.04c0.05,0.67-0.14,1.67-0.65,2.38c-0.41,0.57-1.36,0.98-2.25,0.98c-0.09,0-0.18,0-0.26-0.01
					c-0.92-0.09-1.35-0.22-1.36-0.23l-0.23,0.08c-0.07,0.1-0.03,0.22,0.03,0.37c0.01,0.04,0.03,0.07,0.03,0.09
					c0.12,0.47,0.33,1.84,0.33,2.22c0,4.26-1.68,6.12-3.5,7.5c-1.73,1.31-3.76,2.1-6.05,2.34h0c-0.05,0-0.26,0.02-0.7,0.06
					c-0.28,0.03-0.63,0.06-0.68,0.06l-0.05,0.01c-0.4,0.11-1.43,0.6-1.43,1.51c0,0.76,0.47,1.7,2.7,1.87
					c0.45,0.03,0.94,0.07,1.44,0.1c2.94,0.2,6.62,0.46,8.34,1.05c2.38,0.87,3.86,3,3.86,5.56c0,3.83-2.72,7.42-7.28,9.62
					C169.93,75.1,167.69,75.61,165.26,75.61 M164.91,62.16c-1.02,0-1.76,0.3-2.2,0.55c-2.15,1.38-3.14,2.75-3.14,4.34
					c0,1.49,0.58,2.68,1.83,3.73c1.51,1.28,3.54,1.9,6.22,1.9c5.26,0,7.62-2.83,7.62-5.63c0-1.95-0.98-3.26-2.99-4
					C170.68,62.48,168.09,62.16,164.91,62.16 M165.26,39.28c-2.71,0-4.47,2.14-4.47,5.46c0,3.35,1.51,7.26,5.76,7.26
					c0.73,0,2.05-0.32,2.71-1.05c0.99-0.91,1.63-2.78,1.63-4.76C170.89,41.86,168.79,39.28,165.26,39.28"/>
				<path class="st3" d="M151.8,59.14c-1.29-0.17-2.23-0.35-3.34-0.87c-0.18-0.12-0.41-0.64-0.41-0.81
					c-0.12-1.8-0.12-7.01-0.12-10.43c0-2.78-0.47-5.22-1.64-6.95c-1.41-1.97-3.4-3.13-5.98-3.13c-2.29,0-5.33,1.56-7.85,3.71
					c-0.06,0.06-0.45,0.42-0.44-0.15c0.01-0.57,0.1-1.73,0.15-2.46c0.05-0.73-0.38-1.07-0.38-1.07c-1.64,0.81-6.26,1.91-7.97,2.09
					c-1.25,0.24-1.56,1.44-0.23,1.85v0c0,0,0.01,0,0.02,0.01c1.39,0.42,2.33,0.87,3.03,1.33c0.53,0.41,0.47,0.99,0.47,1.45
					c0.06,3.88,0.06,9.85-0.12,13.1c-0.06,1.28-0.41,1.74-1.35,1.97l0.09-0.03c-0.7,0.17-1.29,0.29-2.17,0.41
					c-0.29,0.29-0.29,1.97,0,2.32c0.59,0,3.58-0.17,6.04-0.17c3.4,0,5.16,0.17,6.04,0.17c0.35-0.41,0.47-1.97,0.23-2.32
					c-1-0.06-1.7-0.17-2.4-0.35c-0.94-0.23-1.17-0.7-1.23-1.74c-0.12-2.72-0.12-8.52-0.12-12.46c0-1.1,0.29-1.62,0.64-1.91
					c1.17-1.04,3.11-1.74,4.81-1.74c1.64,0,2.75,0.52,3.57,1.22c1.11,0.93,1.52,2.26,1.64,3.25c0.23,2.2,0.18,6.61,0.18,10.43
					c0,2.09-0.18,2.61-0.94,2.84c-0.35,0.17-1.29,0.35-2.4,0.46c-0.35,0.35-0.23,1.97,0,2.32c1.52,0,3.28-0.17,5.86-0.17
					c3.22,0,5.27,0.17,6.09,0.17C151.92,61.05,152.04,59.54,151.8,59.14"/>
				<path class="st3" d="M294.46,56.37h1c0.81,0,1.11-0.28,1.11-1.01c0-0.74-0.3-0.98-1.2-0.98h-0.91V56.37L294.46,56.37z
					 M296.59,59.51l-1.18-2.53h-0.95v2.53h-0.69v-5.75h1.7c1.26,0,1.79,0.56,1.79,1.61c0,0.84-0.4,1.38-1.13,1.53l1.21,2.61H296.59
					L296.59,59.51z M295.47,52.49c-2.31,0-4.15,1.83-4.15,4.15c0,2.29,1.84,4.13,4.14,4.13c2.29,0,4.13-1.84,4.13-4.13
					C299.59,54.3,297.8,52.49,295.47,52.49L295.47,52.49z M295.46,61.18c-2.56,0-4.55-1.99-4.55-4.55c0-2.57,1.99-4.55,4.56-4.55
					c2.5,0,4.54,2.01,4.54,4.49C300.01,59.16,298.02,61.18,295.46,61.18L295.46,61.18z"/>
			</g>
		</g>
	</g>
</g>
</svg>
