<svg width="72" height="72" viewBox="0 0 72 72" fill="none" xmlns="http://www.w3.org/2000/svg">
<path d="M28 66C28 67.1 27.1 68 26 68H6C4.9 68 4 67.1 4 66V46C4 44.9 4.9 44 6 44H26C27.1 44 28 44.9 28 46V66Z" fill="#00ED64"/>
<path fill-rule="evenodd" clip-rule="evenodd" d="M7.5 6C7.5 4.62386 8.62386 3.5 10 3.5H66C67.3761 3.5 68.5 4.62386 68.5 6V62C68.5 63.3761 67.3761 64.5 66 64.5H60.8999V66C60.8999 67.3761 59.776 68.5 58.3999 68.5H38.3999C37.0237 68.5 35.8999 67.3761 35.8999 66V64.5H28.5V66C28.5 67.3761 27.3761 68.5 26 68.5H6C4.62386 68.5 3.5 67.3761 3.5 66V46C3.5 44.6239 4.62386 43.5 6 43.5H7.5V6ZM8.5 43.5H15.4999V20.9071L11.1536 25.2534L10.4465 24.5462L15.1176 19.8752C15.333 19.5898 15.6647 19.4748 15.9626 19.4748C16.278 19.4748 16.6066 19.5993 16.8536 19.8462L21.5536 24.5462L20.8465 25.2534L16.4999 20.9067V43.5H26C26.508 43.5 26.9817 43.6532 27.3771 43.9157L56.7928 14.5H50.5998V13.5H57.2998C57.9759 13.5 58.4998 14.0239 58.4998 14.7V21.4H57.4998V15.2072L28.0842 44.6227C28.3468 45.0182 28.5 45.4919 28.5 46V55.5002H35.8999V46C35.8999 44.6239 37.0237 43.5 38.3999 43.5H58.3999C59.776 43.5 60.8999 44.6239 60.8999 46V63.5H66C66.8239 63.5 67.5 62.8239 67.5 62V6C67.5 5.17614 66.8239 4.5 66 4.5H10C9.17614 4.5 8.5 5.17614 8.5 6V43.5ZM28.5 56.5002V63.5H35.8999V56.5002H28.5ZM36.8999 56.5002V66C36.8999 66.8239 37.576 67.5 38.3999 67.5H58.3999C59.2237 67.5 59.8999 66.8239 59.8999 66V46C59.8999 45.1761 59.2237 44.5 58.3999 44.5H38.3999C37.576 44.5 36.8999 45.1761 36.8999 46V55.5002H50.9929L46.6463 51.1536L47.3534 50.4465L52.0245 55.1176C52.2247 55.2687 52.341 55.477 52.3927 55.6908C52.4598 55.7759 52.4999 55.8834 52.4999 56.0002C52.4999 56.1322 52.4488 56.2522 52.3652 56.3416C52.3057 56.528 52.2016 56.7055 52.0534 56.8536L47.3534 61.5536L46.6463 60.8465L50.9927 56.5002H36.8999ZM4.5 46C4.5 45.1761 5.17614 44.5 6 44.5H26C26.8239 44.5 27.5 45.1761 27.5 46V66C27.5 66.8239 26.8239 67.5 26 67.5H6C5.17614 67.5 4.5 66.8239 4.5 66V46Z" fill="white"/>
</svg>
