<svg width="72" height="72" viewBox="0 0 72 72" fill="none" xmlns="http://www.w3.org/2000/svg">
<path d="M54.8598 32.9707C54.4728 22.9803 46.2515 15 36.1664 15C28.4085 15 21.6691 19.8546 18.8316 26.5861C18.7415 26.7998 18.5195 26.9278 18.2891 26.9011C17.8006 26.8445 17.3037 26.8154 16.8 26.8154C10.8923 26.3231 4 31.5615 4 38.6308C4 45.7 9.73076 51 16.8 51H58.6462C63.8121 51 68 47.2429 68 42.0769C68 36.9109 63.8121 32.7231 58.6462 32.7231C57.673 32.7231 56.5263 33.0822 55.5605 33.4424C55.2297 33.5657 54.8735 33.3235 54.8598 32.9707Z" stroke="white"/>
<path d="M52.4085 47.6178C52.0331 42.7959 48.0015 39 43.0832 39C39.2744 39 35.9565 41.3404 34.4946 44.6115C34.4 44.8233 34.1787 44.9504 33.9476 44.9308C33.7671 44.9155 33.5844 44.9077 33.4 44.9077C30.4462 44.6615 27 47.2808 27 50.8154C27 54.35 29.8654 57 33.4 57H54.3231C56.9061 57 59 55.1215 59 52.5385C59 49.9555 56.9061 47.8615 54.3231 47.8615C53.949 47.8615 53.5235 47.9677 53.1274 48.0986C52.7921 48.2094 52.4359 47.9698 52.4085 47.6178Z" fill="#00ED64" stroke="white"/>
</svg>
