<svg width="72" height="72" viewBox="0 0 72 72" fill="none" xmlns="http://www.w3.org/2000/svg">
<path d="M44.9672 29.25H26.0328C25.4303 29.25 25 29.6987 25 30.3269V44.5064C25 45.7628 25.9467 46.75 27.1516 46.75H43.8484C45.0533 46.75 46 45.7628 46 44.5064V30.3269C46 29.7885 45.4836 29.25 44.9672 29.25Z" fill="#00ED64"/>
<path fill-rule="evenodd" clip-rule="evenodd" d="M24.5 30.3269C24.5 29.4425 25.1347 28.75 26.0328 28.75H28.875V24.9315C28.875 21.2725 31.8634 18.25 35.5 18.25C39.1366 18.25 42.125 21.2725 42.125 24.9315V28.75H44.9672C45.3956 28.75 45.7766 28.9677 46.0381 29.2405C46.301 29.5145 46.5 29.9023 46.5 30.3269V44.5064C46.5 46.019 45.3489 47.25 43.8484 47.25H27.1516C25.6511 47.25 24.5 46.019 24.5 44.5064V30.3269ZM41.125 28.75H29.875V24.9315C29.875 21.8162 32.4243 19.25 35.5 19.25C38.5757 19.25 41.125 21.8162 41.125 24.9315V28.75ZM26.0328 29.75C25.726 29.75 25.5 29.9549 25.5 30.3269V44.5064C25.5 45.5066 26.2424 46.25 27.1516 46.25H43.8484C44.7576 46.25 45.5 45.5066 45.5 44.5064V30.3269C45.5 30.2131 45.4408 30.0624 45.3164 29.9326C45.1906 29.8015 45.0553 29.75 44.9672 29.75H26.0328Z" fill="white"/>
<path fill-rule="evenodd" clip-rule="evenodd" d="M16.5937 9.78374C22.7306 8.46905 28.6289 7.5 35.4125 7.5C42.45 7.5 49.4075 8.29173 56.1941 10.1426L56.2062 10.1459C57.1145 10.4184 58.1938 10.8655 59.046 11.7421C59.9121 12.633 60.5 13.9221 60.5 15.7875V34.8625C60.5 47.3062 53.3845 58.3509 41.7158 62.8046L41.7063 62.8083L41.7052 62.8085L41.6921 62.8132L41.6522 62.8274C41.6173 62.8398 41.5662 62.8578 41.5007 62.8808C41.3697 62.9267 41.1813 62.9921 40.9507 63.0706C40.4898 63.2275 39.8589 63.4369 39.1804 63.6465C38.5029 63.8558 37.7728 64.0669 37.1147 64.2262C36.5521 64.3624 36.0078 64.4695 35.5875 64.4945V64.5C35.5764 64.5 35.5652 64.4999 35.5539 64.4998C35.5362 64.4995 35.5182 64.4991 35.5 64.4985C35.4701 64.4995 35.4409 64.5 35.4125 64.5V64.4945C34.9922 64.4695 34.4479 64.3624 33.8853 64.2262C33.2272 64.0669 32.4971 63.8558 31.8196 63.6465C31.1411 63.4369 30.5102 63.2275 30.0493 63.0706C29.8187 62.9921 29.6303 62.9267 29.4993 62.8808C29.4338 62.8578 29.3827 62.8398 29.3478 62.8274L29.3079 62.8132L29.2948 62.8085C29.2947 62.8085 29.2938 62.8082 29.4625 62.3376L29.2938 62.8082L29.2842 62.8047C17.6155 58.351 10.5 47.3062 10.5 34.8625V15.7875C10.5 13.8828 11.0851 12.5702 11.954 11.6765C12.8108 10.7952 13.8964 10.3699 14.8162 10.1399L14.8413 10.1337L14.8668 10.13C15.1522 10.0892 15.442 10.0274 15.7368 9.96191L15.8463 9.93751C16.0963 9.88167 16.353 9.82432 16.5937 9.78374ZM35.5 63.4978C35.8126 63.4833 36.2936 63.3961 36.8794 63.2543C37.5092 63.1018 38.2174 62.8973 38.8852 62.691C39.5521 62.485 40.1735 62.2788 40.6286 62.1239C40.856 62.0465 41.0415 61.9821 41.17 61.9371C41.2342 61.9146 41.2841 61.8969 41.3179 61.8849L41.3562 61.8713L41.3642 61.8685C52.6176 57.5709 59.5 46.917 59.5 34.8625V15.7875C59.5 14.1529 58.9941 13.1233 58.329 12.4392C57.6516 11.7424 56.7647 11.3582 55.9248 11.1057C49.2383 9.28279 42.3729 8.5 35.4125 8.5C28.7252 8.5 22.9015 9.45479 16.7923 10.7639L16.781 10.7663L16.7697 10.7682C16.5547 10.804 16.3231 10.8557 16.0657 10.9132L15.9538 10.9381C15.6659 11.0021 15.3526 11.0695 15.0346 11.1162C14.2115 11.3247 13.3389 11.6865 12.671 12.3735C12.0087 13.0548 11.5 14.1047 11.5 15.7875V34.8625C11.5 46.917 18.3824 57.5709 29.6358 61.8685L29.6438 61.8713L29.6821 61.8849C29.7159 61.8969 29.7658 61.9146 29.83 61.9371C29.9585 61.9821 30.144 62.0465 30.3714 62.1239C30.8265 62.2788 31.448 62.485 32.1148 62.691C32.7826 62.8973 33.4908 63.1018 34.1206 63.2543C34.7064 63.3961 35.1874 63.4833 35.5 63.4978Z" fill="white"/>
</svg>
