<svg width="298" height="198" viewBox="0 0 298 198" fill="none" xmlns="http://www.w3.org/2000/svg">
<path d="M212.604 35.2148C212.604 52.8221 198.303 67.1074 180.676 67.1074H85.1429C49.8951 67.1074 21.2857 95.6845 21.2857 130.893C21.2857 166.101 49.8951 194.678 85.1429 194.678H212.857C248.105 194.678 276.714 166.101 276.714 130.893V35.2148C276.714 17.6074 262.413 3.32214 244.786 3.32214C226.906 3.32214 212.604 17.6074 212.604 35.2148Z" fill="#E3FCF7"/>
<path d="M87.2781 135.464H242.557V147.59H87.2781V135.464Z" fill="#B5FB48" stroke="black" stroke-linecap="round" stroke-linejoin="round"/>
<path d="M43.2166 135.464H87.2847V147.59H43.2166V135.464Z" fill="black" stroke="black" stroke-linecap="round" stroke-linejoin="round"/>
<path d="M217.633 80.5023V135.464H221.524V83.0072L217.633 80.5023Z" fill="#B5FB48" stroke="black" stroke-linecap="round" stroke-linejoin="round"/>
<path d="M180.576 47.5333C183.463 47.5333 186.017 48.9286 187.607 51.0813H212.052C215.132 51.0813 217.633 53.5796 217.633 56.6559V73.1138L221.524 77.0672V56.2639C221.524 51.4401 217.613 47.5333 212.784 47.5333H180.576Z" fill="#BFFA62" stroke="black" stroke-linecap="round" stroke-linejoin="round"/>
<path d="M103.143 56.2639V135.464H107.027V56.6559C107.027 55.347 107.48 54.1443 108.238 53.1942C109.262 51.9052 110.839 51.0813 112.615 51.0813H179.844C181.973 51.0813 183.815 52.2706 184.76 54.0181C185.186 54.8021 185.425 55.7057 185.425 56.6559V59.7853L189.316 62.2902V56.2639C189.316 54.3237 188.678 52.5298 187.607 51.0813C186.017 48.9352 183.463 47.5333 180.576 47.5333H111.876C108.99 47.5333 106.435 48.9286 104.845 51.0813C103.775 52.5298 103.136 54.3237 103.136 56.2639H103.143Z" fill="#B5FB48" stroke="black" stroke-linecap="round" stroke-linejoin="round"/>
<path d="M70.928 56.2639V135.464H74.8127V56.6559C74.8127 53.5796 77.3137 51.0813 80.3935 51.0813H104.845C106.435 48.9352 108.99 47.5333 111.876 47.5333H79.6618C74.8326 47.5333 70.9214 51.4401 70.9214 56.2639H70.928Z" fill="#B5FB48" stroke="black" stroke-linecap="round" stroke-linejoin="round"/>
<path d="M185.419 59.7853V135.464H189.31V62.2902L185.419 59.7853Z" fill="#B5FB48" stroke="black" stroke-linecap="round" stroke-linejoin="round"/>
<path d="M217.633 73.1138V80.5022L221.524 83.0071V77.0605L217.633 73.1138Z" fill="#BFFA62" stroke="black" stroke-linecap="round" stroke-linejoin="round"/>
<path d="M221.524 83.0071L237.07 92.9204L221.524 77.0605" stroke="black" stroke-linecap="round" stroke-linejoin="round"/>
<path d="M195.935 51.0813L217.633 73.1138" stroke="black" stroke-linecap="round" stroke-linejoin="round"/>
<path d="M171.875 51.0813L183.436 58.5096L185.419 59.7853" stroke="black" stroke-linecap="round" stroke-linejoin="round"/>
<path d="M189.31 62.2902L217.633 80.5022" stroke="black" stroke-linecap="round" stroke-linejoin="round"/>
<path d="M237.07 93.0068L237.482 93.2726L237.143 92.9205C237.143 92.9205 237.096 92.9736 237.07 93.0068Z" stroke="black" stroke-linecap="round" stroke-linejoin="round"/>
<path d="M160.421 119.624C160.421 123.557 163.614 126.753 167.552 126.753C171.49 126.753 174.689 123.564 174.689 119.624C174.689 115.684 171.496 112.501 167.552 112.501C163.607 112.501 160.421 115.69 160.421 119.624Z" fill="#FDFFFE" stroke="black" stroke-linecap="round" stroke-linejoin="round"/>
<path d="M117.624 119.624C117.624 123.557 120.816 126.753 124.754 126.753C128.692 126.753 131.892 123.564 131.892 119.624C131.892 115.684 128.699 112.501 124.754 112.501C120.81 112.501 117.624 115.69 117.624 119.624Z" fill="#FDFFFE" stroke="black" stroke-linecap="round" stroke-linejoin="round"/>
<path d="M146.153 119.624C146.153 123.557 149.346 126.753 153.29 126.753C157.235 126.753 160.428 123.564 160.428 119.624C160.428 115.684 157.235 112.501 153.29 112.501C149.346 112.501 146.153 115.69 146.153 119.624Z" fill="#FDFFFE" stroke="black" stroke-linecap="round" stroke-linejoin="round"/>
<path d="M131.885 119.624C131.885 123.557 135.078 126.753 139.022 126.753C142.967 126.753 146.153 123.564 146.153 119.624C146.153 115.684 142.96 112.501 139.022 112.501C135.084 112.501 131.885 115.69 131.885 119.624Z" fill="#FDFFFE" stroke="black" stroke-linecap="round" stroke-linejoin="round"/>
<path d="M184.753 54.0181L183.436 58.5096L167.552 112.501L160.454 88.7212V88.7146L153.251 64.6224V64.6157L149.206 51.0813" stroke="black" stroke-linecap="round" stroke-linejoin="round"/>
<path d="M171.523 51.0813L160.454 88.7146V88.7212L153.457 112.501L146.253 88.409L139.069 64.3433L135.104 51.0813" stroke="black" stroke-linecap="round" stroke-linejoin="round"/>
<path d="M157.235 51.0813L153.251 64.6157V64.6224L146.253 88.409L139.169 112.501L131.978 88.4422V88.4355L120.816 51.0813" stroke="black" stroke-linecap="round" stroke-linejoin="round"/>
<path d="M142.967 51.0813L139.069 64.3433L131.978 88.4355V88.4422L124.901 112.501L108.238 53.1942" stroke="black" stroke-linecap="round" stroke-linejoin="round"/>
<path d="M235.427 97.5515C235.427 101.485 238.62 104.681 242.564 104.681C246.509 104.681 249.701 101.492 249.701 97.5515C249.701 93.6115 246.509 90.4288 242.564 90.4288C240.396 90.4288 238.453 91.3923 237.149 92.9204L237.076 93.0068C236.045 94.236 235.427 95.824 235.427 97.5515Z" fill="#00ED5C" stroke="black" stroke-linecap="round" stroke-linejoin="round"/>
<path d="M251.285 92.163C251.285 92.163 256.912 89.5319 262.373 82.1633" stroke="black" stroke-linecap="round" stroke-linejoin="round"/>
<path d="M249.695 89.5584C249.695 89.5584 253.426 86.6814 255.548 82.1633" stroke="black" stroke-linecap="round" stroke-linejoin="round"/>
<path d="M118.275 116.68C116.632 120.255 118.202 124.488 121.781 126.129C122.247 126.341 122.719 126.501 123.198 126.607C117.617 123.298 118.761 115.783 122.566 112.873C120.73 113.465 119.14 114.793 118.269 116.68H118.275Z" fill="black" stroke="black" stroke-linecap="round" stroke-linejoin="round"/>
<path d="M132.543 116.68C130.9 120.255 132.47 124.488 136.049 126.129C136.515 126.341 136.987 126.501 137.466 126.607C131.885 123.298 133.029 115.783 136.834 112.873C134.998 113.465 133.408 114.793 132.537 116.68H132.543Z" fill="black" stroke="black" stroke-linecap="round" stroke-linejoin="round"/>
<path d="M146.878 116.68C145.235 120.255 146.805 124.488 150.384 126.129C150.849 126.341 151.321 126.501 151.8 126.607C146.22 123.298 147.364 115.783 151.168 112.873C149.333 113.465 147.743 114.793 146.871 116.68H146.878Z" fill="black" stroke="black" stroke-linecap="round" stroke-linejoin="round"/>
<path d="M161.073 116.488C159.43 120.062 161 124.295 164.579 125.936C165.044 126.149 165.516 126.308 165.995 126.414C160.415 123.105 161.559 115.591 165.363 112.681C163.528 113.272 161.938 114.601 161.066 116.488H161.073Z" fill="black" stroke="black" stroke-linecap="round" stroke-linejoin="round"/>
<path d="M235.44 97.8837C235.679 101.81 239.065 104.8 242.996 104.561C243.509 104.528 244.001 104.448 244.473 104.315C237.988 104.03 235.453 96.8605 237.429 92.5018C236.092 93.8838 235.314 95.8107 235.44 97.8837Z" fill="black" stroke="black" stroke-linecap="round" stroke-linejoin="round"/>
</svg>
