<svg width="198" height="131" viewBox="0 0 198 131" fill="none" xmlns="http://www.w3.org/2000/svg">
<g clip-path="url(#clip0_14946_86151)">
<path d="M35.7144 98.7589V50.4955C35.7167 46.1978 37.4239 42.0766 40.4611 39.036C43.4984 35.9955 47.6176 34.2839 51.9153 34.2768H83.7992C88.0672 34.256 92.1565 32.5602 95.1866 29.5544C98.2166 26.5485 99.9451 22.473 100 18.2053C100 9.31247 107.33 2.23212 116.201 2.23212H148.085C152.359 2.23198 156.46 3.92107 159.495 6.93138C162.53 9.9417 164.252 14.0293 164.286 18.3035V50.2187C164.283 54.5164 162.576 58.6376 159.539 61.6782C156.502 64.7188 152.383 66.4304 148.085 66.4375H116.071C111.797 66.4362 107.695 68.1249 104.66 71.1354C101.625 74.146 99.9036 78.2343 99.8706 82.5089V98.7276C99.8688 102.944 99.0354 107.118 97.4183 111.011C95.8011 114.905 93.432 118.441 90.4463 121.417C87.4606 124.394 83.9173 126.752 80.0189 128.358C76.1205 129.963 71.9437 130.783 67.7277 130.772C59.2391 130.766 51.0996 127.392 45.0972 121.389C39.0948 115.387 35.7203 107.248 35.7144 98.7589Z" fill="#F9EBFF"/>
<path d="M138.058 33.2768V41.9777H66.0981V18.183H122.964V33.2768H138.058Z" fill="#00D2FF" stroke="black" stroke-width="0.446429" stroke-linecap="round" stroke-linejoin="round"/>
<path d="M115.317 82.3795C114.265 85.8294 114.518 89.5456 116.027 92.8214C116.732 94.3474 117.696 95.74 118.875 96.9375C119.372 97.443 119.904 97.9115 120.469 98.3393C121.159 98.8631 121.894 99.3247 122.665 99.7188C124.488 100.648 126.485 101.186 128.528 101.297C130.57 101.409 132.614 101.092 134.527 100.366C135.156 100.127 135.767 99.845 136.358 99.5223C134.161 106.045 130.625 109.402 130.625 109.402H114.076L119.264 102.259C119.111 102.192 118.962 102.118 118.817 102.036L120.157 100.25L120.474 99.8304C120.011 99.558 119.564 99.26 119.134 98.9375C118.75 98.6429 118.384 98.3393 118.04 98.0179L116.875 99.5625C116.844 99.6961 116.844 99.8351 116.875 99.9688L110.027 109.42H58.6162C58.6162 109.42 66.0451 102.379 66.0451 88.8839V62.0536H138.005V74.9375C135.833 73.3237 133.256 72.3442 130.56 72.1077C127.865 71.8713 125.156 72.3872 122.737 73.5982C120.722 74.6006 118.968 76.057 117.612 77.8527C117.168 78.4309 116.772 79.0446 116.429 79.6875C115.963 80.5424 115.59 81.4449 115.317 82.3795Z" fill="#00D2FF" stroke="black" stroke-width="0.446429" stroke-linecap="round" stroke-linejoin="round"/>
<path d="M138.058 78.817V88.8393C138.066 91.4487 137.775 94.0505 137.192 96.5937C136.227 97.551 135.114 98.3469 133.897 98.9509C133.893 98.9525 133.89 98.9533 133.886 98.9533C133.882 98.9533 133.878 98.9525 133.875 98.9509C131.808 99.7186 129.581 99.9514 127.4 99.6275C125.219 99.3036 123.156 98.4335 121.402 97.0982C119.882 95.9528 118.634 94.4864 117.745 92.8036C116.899 91.2126 116.39 89.464 116.25 87.6673C116.11 85.8706 116.342 84.0644 116.933 82.3616C117.261 81.4039 117.702 80.4883 118.245 79.6339C118.442 79.3259 118.652 79.0268 118.875 78.7411C120.076 77.166 121.621 75.8864 123.393 75C125.466 74.2148 127.705 73.9696 129.9 74.2874C132.094 74.6053 134.172 75.4757 135.937 76.817C136.717 77.4022 137.428 78.0731 138.058 78.817Z" fill="#00D2FF" stroke="black" stroke-width="0.446429" stroke-linecap="round" stroke-linejoin="round"/>
<path d="M100.558 74.3929H76.3797C75.6277 74.3929 75.0181 75.0025 75.0181 75.7545C75.0181 76.5065 75.6277 77.1161 76.3797 77.1161H100.558C101.31 77.1161 101.92 76.5065 101.92 75.7545C101.92 75.0025 101.31 74.3929 100.558 74.3929Z" fill="#00ED64" stroke="black" stroke-width="0.446429" stroke-linecap="round" stroke-linejoin="round"/>
<path d="M127.464 88.5938H95.4685C94.7165 88.5938 94.1069 89.2034 94.1069 89.9554C94.1069 90.7074 94.7165 91.317 95.4685 91.317H127.464C128.216 91.317 128.826 90.7074 128.826 89.9554C128.826 89.2034 128.216 88.5938 127.464 88.5938Z" fill="#00ED64" stroke="black" stroke-width="0.446429" stroke-linecap="round" stroke-linejoin="round"/>
<path d="M138.058 33.2768L122.866 36.1786L124.732 33.2768H138.058Z" fill="black" stroke="black" stroke-width="0.446429" stroke-linecap="round" stroke-linejoin="round"/>
<path d="M128.821 75.7545H106.933" stroke="black" stroke-width="0.446429" stroke-linecap="round" stroke-linejoin="round" stroke-dasharray="0.89 0.89"/>
<path d="M122.965 28.8616V31.5893H102.232C101.874 31.5834 101.533 31.4368 101.282 31.1811C101.032 30.9254 100.892 30.5813 100.893 30.2232C100.893 29.862 101.036 29.5155 101.29 29.2589C101.416 29.1316 101.567 29.0308 101.732 28.9626C101.898 28.8943 102.075 28.86 102.255 28.8616H122.965Z" fill="#00ED64" stroke="black" stroke-width="0.446429" stroke-linecap="round" stroke-linejoin="round"/>
<path d="M96.7991 30.2277H74.9062" stroke="black" stroke-width="0.446429" stroke-linecap="round" stroke-linejoin="round" stroke-dasharray="0.89 0.89"/>
<path d="M88.469 89.9553H75.0181" stroke="black" stroke-width="0.446429" stroke-linecap="round" stroke-linejoin="round" stroke-dasharray="0.89 0.89"/>
<path d="M119.276 102.232L114.089 109.375L109.178 116.143C108.835 115.985 108.51 115.79 108.209 115.563C106.504 114.308 107 113.625 107 113.625L110.08 109.375L116.928 99.9241C117.022 100.29 117.326 100.879 118.268 101.594C118.449 101.738 118.641 101.868 118.843 101.982C118.983 102.073 119.128 102.156 119.276 102.232Z" fill="#00ED64" stroke="black" stroke-width="0.446429" stroke-linecap="round" stroke-linejoin="round"/>
<path d="M120.897 101.696L120.348 102.455V102.478L115.34 109.397L110.429 116.161C110.405 116.188 110.376 116.21 110.344 116.228C110.233 116.29 110.109 116.328 109.982 116.339C109.855 116.35 109.727 116.333 109.607 116.29C109.517 116.276 109.428 116.25 109.344 116.214L109.201 116.156L114.112 109.388L119.299 102.246C119.147 102.179 118.998 102.104 118.853 102.022L120.192 100.237C120.304 100.338 120.408 100.447 120.504 100.563C120.584 100.661 120.656 100.765 120.719 100.875C120.745 100.92 120.769 100.966 120.79 101.013C120.914 101.218 120.952 101.464 120.897 101.696Z" fill="#00ED64" stroke="black" stroke-width="0.446429" stroke-linecap="round" stroke-linejoin="round"/>
<path d="M120.504 99.8169L120.187 100.237L118.848 102.022C118.646 101.908 118.453 101.778 118.272 101.634C117.325 100.92 117.022 100.33 116.933 99.9643C116.901 99.8306 116.901 99.6916 116.933 99.558L118.098 98.0134C118.442 98.3348 118.808 98.6384 119.192 98.933C119.613 99.2516 120.051 99.5467 120.504 99.8169Z" fill="#00ED64" stroke="black" stroke-width="0.446429" stroke-linecap="round" stroke-linejoin="round"/>
<path d="M122.665 99.7188L122.621 99.7813L121.995 100.598L120.656 102.384C120.562 102.426 120.46 102.452 120.357 102.46C119.99 102.48 119.624 102.405 119.295 102.241C119.141 102.173 118.992 102.096 118.848 102.009L120.188 100.223L120.504 99.8036C120.042 99.5313 119.595 99.2332 119.165 98.9107C118.781 98.6161 118.416 98.3125 118.072 97.9911L118.875 96.933C119.372 97.4385 119.904 97.907 120.469 98.3348C121.158 98.8602 121.893 99.3233 122.665 99.7188Z" fill="#00ED64" stroke="black" stroke-width="0.446429" stroke-linecap="round" stroke-linejoin="round"/>
<path d="M122.665 99.7187C121.893 99.3247 121.158 98.8631 120.468 98.3393C119.904 97.9114 119.371 97.4429 118.875 96.9375C117.695 95.74 116.732 94.3474 116.027 92.8214C114.518 89.5456 114.265 85.8294 115.317 82.3795C115.601 81.4308 115.99 80.5162 116.473 79.6518C116.817 79.0089 117.212 78.3952 117.656 77.817C119.012 76.0212 120.767 74.5649 122.781 73.5625C120.228 74.5384 117.999 76.2102 116.348 78.3884C116.04 78.8036 115.75 79.2232 115.491 79.6518C114.963 80.5117 114.531 81.4262 114.2 82.3795C113.004 85.7752 113.101 89.4927 114.473 92.8214C115.273 94.7921 116.502 96.5597 118.071 97.9955C118.415 98.317 118.781 98.6205 119.165 98.9152C119.594 99.2376 120.041 99.5357 120.504 99.808C120.984 100.101 121.482 100.362 121.995 100.589C123.968 101.472 126.112 101.908 128.273 101.865C130.434 101.823 132.558 101.303 134.495 100.344C132.588 101.068 130.551 101.387 128.514 101.279C126.477 101.171 124.485 100.64 122.665 99.7187Z" fill="black" stroke="black" stroke-width="0.446429" stroke-miterlimit="10"/>
<path d="M122.665 99.7187C121.893 99.3247 121.158 98.8631 120.468 98.3393C119.904 97.9114 119.371 97.4429 118.875 96.9375C117.695 95.74 116.732 94.3474 116.027 92.8214C114.518 89.5456 114.265 85.8294 115.317 82.3795C115.601 81.4308 115.99 80.5162 116.473 79.6518C116.817 79.0089 117.212 78.3952 117.656 77.817C119.012 76.0212 120.767 74.5649 122.781 73.5625C120.228 74.5384 117.999 76.2102 116.348 78.3884C116.04 78.8036 115.75 79.2232 115.491 79.6518C114.963 80.5117 114.531 81.4262 114.2 82.3795C113.004 85.7752 113.101 89.4927 114.473 92.8214C115.273 94.7921 116.502 96.5597 118.071 97.9955C118.415 98.317 118.781 98.6205 119.165 98.9152C119.594 99.2376 120.041 99.5357 120.504 99.808C120.984 100.101 121.482 100.362 121.995 100.589V100.589C123.968 101.472 126.112 101.908 128.273 101.865C130.434 101.823 132.558 101.303 134.495 100.344C132.588 101.068 130.551 101.387 128.514 101.279C126.477 101.171 124.485 100.64 122.665 99.7187V99.7187Z" stroke="black" stroke-width="0.446429" stroke-linecap="round" stroke-linejoin="round"/>
<path d="M122.634 99.7857L122.013 100.612L120.674 102.397C120.569 102.453 120.453 102.484 120.335 102.487C119.97 102.495 119.61 102.417 119.281 102.259C119.129 102.192 118.98 102.118 118.835 102.036L120.174 100.25L120.491 99.8304L121.174 98.9375L122.607 99.7991L122.634 99.7857Z" fill="black" stroke="black" stroke-width="0.446429" stroke-linecap="round" stroke-linejoin="round"/>
<path d="M138.178 75L138.058 74.9152C135.886 73.3014 133.309 72.3218 130.613 72.0854C127.918 71.8489 125.21 72.3649 122.79 73.5759C120.775 74.5782 119.021 76.0346 117.665 77.8304C117.221 78.4086 116.826 79.0223 116.482 79.6652C115.998 80.5296 115.611 81.4442 115.326 82.3929C114.274 85.8428 114.527 89.559 116.036 92.8348C116.741 94.3608 117.704 95.7534 118.884 96.9509C119.38 97.4563 119.913 97.9248 120.478 98.3527C121.168 98.8765 121.903 99.3381 122.674 99.7321C124.497 100.661 126.494 101.199 128.537 101.311C130.579 101.422 132.623 101.105 134.536 100.379C135.165 100.14 135.776 99.8584 136.366 99.5357C138.173 98.5493 139.749 97.1904 140.991 95.5491C142.158 94.0159 143.01 92.2677 143.5 90.4045C143.99 88.5414 144.108 86.6 143.846 84.6913C143.585 82.7826 142.95 80.9442 141.978 79.2812C141.005 77.6183 139.714 76.1634 138.178 75ZM139.772 94.5982C138.991 95.6217 138.063 96.5242 137.018 97.2768C136.055 97.9681 135.004 98.5267 133.893 98.9375C133.889 98.9391 133.885 98.9399 133.881 98.9399C133.878 98.9399 133.874 98.9391 133.871 98.9375C131.804 99.7053 129.576 99.938 127.396 99.6141C125.215 99.2902 123.151 98.4201 121.397 97.0848C119.878 95.9394 118.629 94.473 117.741 92.7902C116.895 91.1992 116.386 89.4507 116.246 87.6539C116.106 85.8572 116.338 84.051 116.929 82.3482C117.257 81.3905 117.698 80.475 118.241 79.6205C118.438 79.3125 118.647 79.0134 118.87 78.7277C120.074 77.157 121.621 75.882 123.393 75C125.585 73.8892 128.044 73.4169 130.491 73.6372C132.938 73.8574 135.274 74.7613 137.232 76.2455C137.514 76.4598 137.781 76.692 138.04 76.9196C140.495 79.1109 142.037 82.1455 142.358 85.4208C142.678 88.696 141.756 91.9721 139.772 94.5982Z" fill="#00ED64" stroke="black" stroke-width="0.446429" stroke-linecap="round" stroke-linejoin="round"/>
<path d="M139.772 94.5982C138.991 95.6216 138.063 96.5242 137.018 97.2767C136.055 97.9681 135.004 98.5267 133.893 98.9375C135.11 98.3335 136.223 97.5376 137.187 96.5803C137.646 96.1354 138.069 95.6563 138.455 95.1473C140.253 92.7802 141.193 89.8721 141.12 86.9005C141.047 83.929 139.966 81.0706 138.054 78.7946C137.427 78.0431 136.717 77.3648 135.938 76.7723C134.172 75.431 132.094 74.5606 129.9 74.2428C127.705 73.9249 125.467 74.1701 123.393 74.9553C125.585 73.8445 128.044 73.3722 130.491 73.5925C132.939 73.8127 135.274 74.7166 137.232 76.2009C137.514 76.4151 137.781 76.6473 138.04 76.875C140.508 79.068 142.057 82.1115 142.378 85.3973C142.699 88.683 141.769 91.9688 139.772 94.5982Z" fill="black" stroke="black" stroke-width="0.446429" stroke-linecap="round" stroke-linejoin="round"/>
<path d="M120.897 101.696L120.348 102.455V102.478L115.34 109.397L110.429 116.161C110.389 116.201 110.161 116.42 109.607 116.29C109.517 116.276 109.428 116.25 109.344 116.214L109.201 116.156L114.112 109.388L119.299 102.246L120.514 100.571C120.593 100.67 120.665 100.774 120.728 100.884C120.754 100.929 120.778 100.975 120.799 101.022C120.917 101.226 120.952 101.467 120.897 101.696Z" fill="black" stroke="black" stroke-width="0.446429" stroke-linecap="round" stroke-linejoin="round"/>
<path d="M49.2144 40.5804V60.6295H150.446V40.5804H49.2144ZM142.781 51.5223C142.482 51.8228 142.127 52.0612 141.735 52.2239C141.344 52.3866 140.924 52.4704 140.5 52.4704C140.076 52.4704 139.656 52.3866 139.265 52.2239C138.873 52.0612 138.518 51.8228 138.219 51.5223C138.162 51.4676 138.108 51.4095 138.058 51.3482C137.555 50.7641 137.278 50.0187 137.278 49.2478C137.278 48.4769 137.555 47.7315 138.058 47.1473C138.108 47.0832 138.162 47.0221 138.219 46.9643C138.825 46.3618 139.645 46.0237 140.5 46.0237C141.355 46.0237 142.175 46.3618 142.781 46.9643C143.383 47.5699 143.722 48.3893 143.722 49.2433C143.722 50.0974 143.383 50.9167 142.781 51.5223Z" fill="white" stroke="black" stroke-width="0.446429" stroke-linecap="round" stroke-linejoin="round"/>
<path d="M138.058 33.2768H122.964V18.183L138.058 33.2768Z" fill="white" stroke="black" stroke-width="0.446429" stroke-linecap="round" stroke-linejoin="round"/>
<path d="M142.777 51.5223L146.438 55.1831" stroke="black" stroke-width="0.446429" stroke-linecap="round" stroke-linejoin="round"/>
<path d="M142.782 51.5223C142.482 51.8228 142.127 52.0612 141.736 52.2239C141.344 52.3866 140.924 52.4704 140.5 52.4704C140.076 52.4704 139.656 52.3866 139.265 52.2239C138.874 52.0612 138.518 51.8228 138.219 51.5223C138.162 51.4676 138.108 51.4095 138.058 51.3482C137.555 50.7641 137.278 50.0187 137.278 49.2478C137.278 48.4768 137.555 47.7315 138.058 47.1473C138.108 47.0832 138.162 47.0221 138.219 46.9643C138.826 46.3618 139.645 46.0237 140.5 46.0237C141.355 46.0237 142.175 46.3618 142.782 46.9643C143.384 47.5699 143.722 48.3893 143.722 49.2433C143.722 50.0974 143.384 50.9167 142.782 51.5223Z" fill="white" stroke="black" stroke-width="0.446429" stroke-linecap="round" stroke-linejoin="round"/>
<path d="M57.0806 48.3705C60.2056 48.3705 60.2056 52.8348 63.3306 52.8348C66.4556 52.8348 66.4556 48.3705 69.5806 48.3705C72.7056 48.3705 72.7056 52.8348 75.8306 52.8348C78.9556 52.8348 78.9556 48.3705 82.0806 48.3705C85.2056 48.3705 85.2056 52.8348 88.3306 52.8348C91.4556 52.8348 91.4556 48.3705 94.5806 48.3705C97.7056 48.3705 97.7056 52.8348 100.831 52.8348C103.956 52.8348 103.956 48.3705 107.081 48.3705C110.206 48.3705 110.206 52.8348 113.331 52.8348C116.456 52.8348 116.456 48.3705 119.581 48.3705C122.706 48.3705 122.706 52.8348 125.831 52.8348" stroke="black" stroke-width="0.446429" stroke-linecap="round" stroke-linejoin="round"/>
<path d="M138.062 60.6295H66.0981V65.1562H138.062V60.6295Z" fill="black" stroke="black" stroke-width="0.446429" stroke-linecap="round" stroke-linejoin="round"/>
</g>
<defs>
<clipPath id="clip0_14946_86151">
<rect width="128.571" height="128.571" fill="white" transform="translate(35.7144 2.23212)"/>
</clipPath>
</defs>
</svg>
